solid 
facet normal -0.000000 -0.000000 -1.000000
   outer loop
     vertex -575.000000 -200.000000 30.000000
     vertex -537.504652 -299.410322 30.000000
     vertex -612.504652 -299.410322 30.000000
   endloop
  endfacet
facet normal -0.847357 0.183637 0.498261
   outer loop
     vertex -681.262997 170.572106 262.263294
     vertex -639.491305 242.637243 306.741416
     vertex -693.021378 272.703532 204.625454
   endloop
  endfacet
facet normal 0.972093 -0.232473 0.031481
   outer loop
     vertex -530.000000 -280.000000 251.360993
     vertex -536.247462 -313.393748 197.676816
     vertex -531.187194 -295.038696 176.966275
   endloop
  endfacet
facet normal 0.016361 0.968697 0.247707
   outer loop
     vertex -575.003058 394.985854 30.000000
     vertex -562.593633 379.732329 88.831627
     vertex -531.834982 386.886783 58.821498
   endloop
  endfacet
facet normal -0.000000 -0.000000 1.000000
   outer loop
     vertex -515.602536 210.805008 60.000000
     vertex -450.827323 200.459400 60.000000
     vertex -487.981935 239.497172 60.000000
   endloop
  endfacet
facet normal 1.000000 -0.000000 0.000000
   outer loop
     vertex -530.000000 -0.000000 428.726703
     vertex -530.000000 0.000000 347.046000
     vertex -530.000000 70.000000 392.240841
   endloop
  endfacet
facet normal 0.000000 -0.000000 -1.000000
   outer loop
     vertex -735.735527 0.000000 30.000000
     vertex -650.000000 -0.000000 30.000000
     vertex -695.721582 -100.000000 30.000000
   endloop
  endfacet
facet normal 0.000000 -0.000000 -1.000000
   outer loop
     vertex -612.504652 299.410322 30.000000
     vertex -537.504652 299.410322 30.000000
     vertex -575.000000 200.000000 30.000000
   endloop
  endfacet
facet normal -0.000000 0.000000 -1.000000
   outer loop
     vertex -448.445891 0.000000 30.000000
     vertex -500.000000 -0.000000 30.000000
     vertex -469.321231 100.000000 30.000000
   endloop
  endfacet
facet normal -0.997928 -0.062253 0.016268
   outer loop
     vertex -735.735527 0.000000 30.000000
     vertex -733.626492 -0.000000 159.376921
     vertex -740.930318 100.216432 94.838035
   endloop
  endfacet
facet normal -0.847357 -0.183637 0.498261
   outer loop
     vertex -693.021378 -272.703532 204.625454
     vertex -639.491305 -242.637243 306.741416
     vertex -681.262997 -170.572106 262.263294
   endloop
  endfacet
facet normal -0.564817 0.087226 0.820593
   outer loop
     vertex -530.000000 -0.000000 428.726703
     vertex -625.542780 0.000000 362.964345
     vertex -579.429514 -70.158965 402.161853
   endloop
  endfacet
facet normal 0.035598 -0.965650 0.257397
   outer loop
     vertex -645.550466 -339.807075 244.861517
     vertex -587.476073 -351.809125 191.802990
     vertex -592.719013 -331.163900 269.980707
   endloop
  endfacet
facet normal 0.148652 -0.964405 0.218690
   outer loop
     vertex -575.003058 -394.985854 30.000000
     vertex -562.593633 -379.732329 88.831627
     vertex -605.709900 -392.823456 60.408661
   endloop
  endfacet
facet normal 0.685520 0.329010 0.649472
   outer loop
     vertex -480.849438 -355.794241 71.142760
     vertex -503.160650 -324.340420 78.758417
     vertex -510.481227 -341.326493 95.090143
   endloop
  endfacet
facet normal 0.096844 0.942711 0.319244
   outer loop
     vertex -645.550466 339.807075 244.861517
     vertex -587.476073 351.809125 191.802990
     vertex -641.624187 365.203349 168.676663
   endloop
  endfacet
facet normal 0.912269 0.386881 0.134491
   outer loop
     vertex -545.865369 329.244727 217.318737
     vertex -530.000000 280.000000 251.360993
     vertex -536.247462 313.393748 197.676816
   endloop
  endfacet
facet normal 0.685520 -0.329010 0.649472
   outer loop
     vertex -503.160650 324.340420 78.758417
     vertex -480.849438 355.794241 71.142760
     vertex -510.481227 341.326493 95.090143
   endloop
  endfacet
facet normal -0.000000 -0.000000 1.000000
   outer loop
     vertex -530.000000 0.000000 60.000000
     vertex -502.655222 0.000000 60.000000
     vertex -515.787611 70.143744 60.000000
   endloop
  endfacet
facet normal -0.000000 -0.000000 1.000000
   outer loop
     vertex -450.827323 -200.459400 60.000000
     vertex -487.981935 -239.497172 60.000000
     vertex -461.334699 -269.437062 60.000000
   endloop
  endfacet
facet normal 0.994811 0.021365 0.099467
   outer loop
     vertex -448.445891 0.000000 30.000000
     vertex -451.445475 0.000000 60.000000
     vertex -449.297462 -100.015953 60.000000
   endloop
  endfacet
facet normal 1.000000 -0.000000 0.000000
   outer loop
     vertex -530.000000 -210.000000 299.203483
     vertex -530.000000 -210.000000 203.521483
     vertex -530.000000 -140.000000 251.364000
   endloop
  endfacet
facet normal 1.000000 0.000000 0.000000
   outer loop
     vertex -530.000000 0.000000 60.000000
     vertex -530.000000 0.000000 155.682000
     vertex -530.000000 -70.000000 107.841000
   endloop
  endfacet
facet normal 1.000000 0.000000 -0.000000
   outer loop
     vertex -530.000000 210.000000 203.521483
     vertex -530.000000 210.000000 299.203483
     vertex -530.000000 140.000000 251.364000
   endloop
  endfacet
facet normal 0.000000 0.000000 -1.000000
   outer loop
     vertex -575.000000 -200.000000 30.000000
     vertex -612.500000 -100.000000 30.000000
     vertex -537.500000 -100.000000 30.000000
   endloop
  endfacet
facet normal 0.000000 0.000000 -1.000000
   outer loop
     vertex -504.815621 -393.875686 30.000000
     vertex -537.504652 -299.410322 30.000000
     vertex -467.274182 -298.423878 30.000000
   endloop
  endfacet
facet normal 0.000000 0.000000 -1.000000
   outer loop
     vertex -653.442970 -394.807171 30.000000
     vertex -690.960401 -299.022644 30.000000
     vertex -612.504652 -299.410322 30.000000
   endloop
  endfacet
facet normal -0.887143 -0.056382 0.458038
   outer loop
     vertex -681.262997 170.572106 262.263294
     vertex -704.004959 99.959037 209.523876
     vertex -649.722790 69.966428 310.967470
   endloop
  endfacet
facet normal -0.758351 0.295537 0.581001
   outer loop
     vertex -587.519909 308.179732 341.237609
     vertex -639.491305 242.637243 306.741416
     vertex -578.914916 210.549911 402.130568
   endloop
  endfacet
facet normal -0.860171 0.321316 0.396058
   outer loop
     vertex -688.446084 368.048361 137.210216
     vertex -733.573462 299.514957 94.801329
     vertex -693.021378 272.703532 204.625454
   endloop
  endfacet
facet normal 0.592934 -0.743371 -0.309561
   outer loop
     vertex -587.476073 -351.809125 191.802990
     vertex -536.247462 -313.393748 197.676816
     vertex -545.865369 -329.244727 217.318737
   endloop
  endfacet
facet normal 0.946733 -0.294211 0.130907
   outer loop
     vertex -530.000000 -280.000000 155.680970
     vertex -540.109107 -327.134073 122.858078
     vertex -531.963940 -309.764759 102.988509
   endloop
  endfacet
facet normal 0.937856 -0.345657 0.030787
   outer loop
     vertex -541.030377 -314.629909 292.532794
     vertex -530.000000 -280.000000 345.319935
     vertex -536.621260 -296.153227 365.663012
   endloop
  endfacet
facet normal 0.148931 0.834183 0.530998
   outer loop
     vertex -550.832817 344.149857 141.432149
     vertex -562.593633 379.732329 88.831627
     vertex -592.962820 367.235867 116.980989
   endloop
  endfacet
facet normal 0.118102 0.933995 0.337201
   outer loop
     vertex -490.079217 372.114976 85.112572
     vertex -504.815621 393.875686 30.000000
     vertex -531.834982 386.886783 58.821498
   endloop
  endfacet
facet normal 0.049383 0.991123 0.123435
   outer loop
     vertex -636.435245 386.403199 90.675294
     vertex -653.442970 394.807171 30.000000
     vertex -684.227065 392.554377 60.404701
   endloop
  endfacet
facet normal -0.000000 -0.000000 1.000000
   outer loop
     vertex -502.655222 140.287489 60.000000
     vertex -463.325999 100.126463 60.000000
     vertex -475.938321 170.293251 60.000000
   endloop
  endfacet
facet normal 0.233671 0.238446 0.942625
   outer loop
     vertex -472.693044 338.441693 56.330905
     vertex -446.482191 298.251159 60.000000
     vertex -453.108305 367.817916 44.044969
   endloop
  endfacet
facet normal -0.000000 0.000000 1.000000
   outer loop
     vertex -461.334699 269.437062 60.000000
     vertex -530.000000 280.000000 60.000000
     vertex -487.981935 239.497172 60.000000
   endloop
  endfacet
facet normal 1.000000 0.000000 -0.000000
   outer loop
     vertex -530.000000 0.000000 251.364000
     vertex -530.000000 0.000000 347.046000
     vertex -530.000000 -70.000000 299.205000
   endloop
  endfacet
facet normal 1.000000 0.000000 -0.000000
   outer loop
     vertex -530.000000 140.000000 347.046000
     vertex -530.000000 140.095964 429.589392
     vertex -530.000000 70.000000 392.240841
   endloop
  endfacet
facet normal 1.000000 0.000000 0.000000
   outer loop
     vertex -530.000000 -140.000000 347.046000
     vertex -530.000000 -140.095964 429.589392
     vertex -530.000000 -210.000000 393.160793
   endloop
  endfacet
facet normal 0.000000 0.000000 -1.000000
   outer loop
     vertex -650.000000 -200.000000 30.000000
     vertex -731.168011 -198.905517 30.000000
     vertex -695.721582 -100.000000 30.000000
   endloop
  endfacet
facet normal -0.000000 0.000000 -1.000000
   outer loop
     vertex -650.000000 200.000000 30.000000
     vertex -731.168011 198.905517 30.000000
     vertex -690.960401 299.022644 30.000000
   endloop
  endfacet
facet normal -0.000000 0.000000 -1.000000
   outer loop
     vertex -575.000000 0.000000 30.000000
     vertex -650.000000 -0.000000 30.000000
     vertex -612.500000 100.000000 30.000000
   endloop
  endfacet
facet normal -0.000000 0.000000 -1.000000
   outer loop
     vertex -612.504652 299.410322 30.000000
     vertex -690.960401 299.022644 30.000000
     vertex -653.442970 394.807171 30.000000
   endloop
  endfacet
facet normal 0.000000 0.000000 -1.000000
   outer loop
     vertex -467.274182 298.423878 30.000000
     vertex -537.504652 299.410322 30.000000
     vertex -504.815621 393.875686 30.000000
   endloop
  endfacet
facet normal 0.000000 0.000000 -1.000000
   outer loop
     vertex -537.500000 100.000000 30.000000
     vertex -612.500000 100.000000 30.000000
     vertex -575.000000 200.000000 30.000000
   endloop
  endfacet
facet normal 0.000000 -0.000000 -1.000000
   outer loop
     vertex -500.000000 200.000000 30.000000
     vertex -447.297758 198.476777 30.000000
     vertex -469.321231 100.000000 30.000000
   endloop
  endfacet
facet normal 0.000000 -0.000000 -1.000000
   outer loop
     vertex -500.000000 -200.000000 30.000000
     vertex -447.297758 -198.476777 30.000000
     vertex -467.274182 -298.423878 30.000000
   endloop
  endfacet
facet normal 0.000000 -0.000000 -1.000000
   outer loop
     vertex -575.000000 0.000000 30.000000
     vertex -500.000000 -0.000000 30.000000
     vertex -537.500000 -100.000000 30.000000
   endloop
  endfacet
facet normal -0.995987 0.088077 -0.015900
   outer loop
     vertex -733.099423 200.381975 159.164095
     vertex -731.168011 198.905517 30.000000
     vertex -740.930318 100.216432 94.838035
   endloop
  endfacet
facet normal -0.999787 0.014380 -0.014786
   outer loop
     vertex -733.099423 -200.381975 159.164095
     vertex -731.168011 -198.905517 30.000000
     vertex -733.573462 -299.514957 94.801329
   endloop
  endfacet
facet normal -0.844908 0.017826 0.534615
   outer loop
     vertex -671.331547 0.000000 257.828124
     vertex -733.626492 -0.000000 159.376921
     vertex -704.004959 -99.959037 209.523876
   endloop
  endfacet
facet normal -0.860171 -0.321316 0.396058
   outer loop
     vertex -693.021378 -272.703532 204.625454
     vertex -733.573462 -299.514957 94.801329
     vertex -688.446084 -368.048361 137.210216
   endloop
  endfacet
facet normal -0.758351 -0.295537 0.581001
   outer loop
     vertex -578.914916 -210.549911 402.130568
     vertex -639.491305 -242.637243 306.741416
     vertex -587.519909 -308.179732 341.237609
   endloop
  endfacet
facet normal -0.887143 0.056382 0.458038
   outer loop
     vertex -649.722790 -69.966428 310.967470
     vertex -704.004959 -99.959037 209.523876
     vertex -681.262997 -170.572106 262.263294
   endloop
  endfacet
facet normal -0.566760 -0.078951 0.820091
   outer loop
     vertex -625.923487 -140.423028 363.265777
     vertex -530.000000 -140.095964 429.589392
     vertex -579.429514 -70.158965 402.161853
   endloop
  endfacet
facet normal -0.567319 -0.074235 0.820145
   outer loop
     vertex -625.923487 140.423028 363.265777
     vertex -530.000000 140.095964 429.589392
     vertex -578.914916 210.549911 402.130568
   endloop
  endfacet
facet normal -0.916638 -0.020102 0.399213
   outer loop
     vertex -671.331547 0.000000 257.828124
     vertex -625.542780 0.000000 362.964345
     vertex -649.722790 69.966428 310.967470
   endloop
  endfacet
facet normal 0.174085 -0.940824 0.290764
   outer loop
     vertex -541.030377 -314.629909 292.532794
     vertex -587.519909 -308.179732 341.237609
     vertex -592.719013 -331.163900 269.980707
   endloop
  endfacet
facet normal -0.067482 -0.951578 0.299909
   outer loop
     vertex -636.435245 -386.403199 90.675294
     vertex -688.446084 -368.048361 137.210216
     vertex -684.227065 -392.554377 60.404701
   endloop
  endfacet
facet normal 0.403331 -0.901604 0.156315
   outer loop
     vertex -550.832817 -344.149857 141.432149
     vertex -587.476073 -351.809125 191.802990
     vertex -592.962820 -367.235867 116.980989
   endloop
  endfacet
facet normal -0.056072 -0.986729 0.152387
   outer loop
     vertex -636.435245 -386.403199 90.675294
     vertex -653.442970 -394.807171 30.000000
     vertex -605.709900 -392.823456 60.408661
   endloop
  endfacet
facet normal -0.017535 -0.928369 0.371247
   outer loop
     vertex -490.079217 -372.114976 85.112572
     vertex -504.815621 -393.875686 30.000000
     vertex -462.886716 -383.905091 56.913647
   endloop
  endfacet
facet normal 0.128307 -0.834517 0.535835
   outer loop
     vertex -550.832817 -344.149857 141.432149
     vertex -562.593633 -379.732329 88.831627
     vertex -520.919420 -358.021675 112.665148
   endloop
  endfacet
facet normal 0.718781 0.111979 0.686159
   outer loop
     vertex -480.849438 -355.794241 71.142760
     vertex -462.886716 -383.905091 56.913647
     vertex -453.108305 -367.817916 44.044969
   endloop
  endfacet
facet normal 0.652674 0.533465 0.537988
   outer loop
     vertex -529.423237 -295.180153 81.704422
     vertex -503.160650 -324.340420 78.758417
     vertex -499.976308 -309.241316 59.923097
   endloop
  endfacet
facet normal 0.722153 0.233819 0.651017
   outer loop
     vertex -540.109107 -327.134073 122.858078
     vertex -520.919420 -358.021675 112.665148
     vertex -510.481227 -341.326493 95.090143
   endloop
  endfacet
facet normal -0.112099 0.960773 0.253670
   outer loop
     vertex -636.435245 386.403199 90.675294
     vertex -688.446084 368.048361 137.210216
     vertex -641.624187 365.203349 168.676663
   endloop
  endfacet
facet normal 0.114296 0.964795 0.236869
   outer loop
     vertex -541.030377 314.629909 292.532794
     vertex -587.519909 308.179732 341.237609
     vertex -536.621260 296.153227 365.663012
   endloop
  endfacet
facet normal 0.592934 0.743371 -0.309561
   outer loop
     vertex -536.247462 313.393748 197.676816
     vertex -587.476073 351.809125 191.802990
     vertex -545.865369 329.244727 217.318737
   endloop
  endfacet
facet normal 0.933513 0.356440 0.038769
   outer loop
     vertex -541.030377 314.629909 292.532794
     vertex -530.000000 280.000000 345.319935
     vertex -533.993332 298.423581 272.088728
   endloop
  endfacet
facet normal 0.991693 0.124262 0.033231
   outer loop
     vertex -531.963940 309.764759 102.988509
     vertex -530.000000 280.000000 155.680970
     vertex -529.423237 295.180153 81.704422
   endloop
  endfacet
facet normal 0.941546 0.330901 -0.063216
   outer loop
     vertex -531.187194 295.038696 176.966275
     vertex -550.832817 344.149857 141.432149
     vertex -536.247462 313.393748 197.676816
   endloop
  endfacet
facet normal 0.652674 -0.533465 0.537988
   outer loop
     vertex -503.160650 324.340420 78.758417
     vertex -529.423237 295.180153 81.704422
     vertex -499.976308 309.241316 59.923097
   endloop
  endfacet
facet normal 0.718781 -0.111979 0.686159
   outer loop
     vertex -462.886716 383.905091 56.913647
     vertex -480.849438 355.794241 71.142760
     vertex -453.108305 367.817916 44.044969
   endloop
  endfacet
facet normal 0.722153 -0.233819 0.651017
   outer loop
     vertex -520.919420 358.021675 112.665148
     vertex -540.109107 327.134073 122.858078
     vertex -510.481227 341.326493 95.090143
   endloop
  endfacet
facet normal 0.000000 0.000000 1.000000
   outer loop
     vertex -502.655222 -140.287489 60.000000
     vertex -530.000000 -140.000000 60.000000
     vertex -515.602536 -210.805008 60.000000
   endloop
  endfacet
facet normal 0.000000 0.000000 1.000000
   outer loop
     vertex -476.960000 -0.000000 60.000000
     vertex -502.655222 0.000000 60.000000
     vertex -489.807611 -70.143744 60.000000
   endloop
  endfacet
facet normal 0.000000 -0.000000 1.000000
   outer loop
     vertex -530.000000 -280.000000 60.000000
     vertex -487.981935 -239.497172 60.000000
     vertex -515.602536 -210.805008 60.000000
   endloop
  endfacet
facet normal 0.019886 -0.103750 0.994405
   outer loop
     vertex -446.482191 -298.251159 60.000000
     vertex -499.976308 -309.241316 59.923097
     vertex -472.693044 -338.441693 56.330905
   endloop
  endfacet
facet normal 0.000000 -0.000000 1.000000
   outer loop
     vertex -502.655222 -140.287489 60.000000
     vertex -463.325999 -100.126463 60.000000
     vertex -489.807611 -70.143744 60.000000
   endloop
  endfacet
facet normal 0.761886 0.634211 0.131551
   outer loop
     vertex -447.297758 -198.476777 30.000000
     vertex -475.938321 -170.293251 60.000000
     vertex -450.827323 -200.459400 60.000000
   endloop
  endfacet
facet normal 0.983051 0.149748 0.105762
   outer loop
     vertex -447.297758 198.476777 30.000000
     vertex -461.334699 269.437062 60.000000
     vertex -450.827323 200.459400 60.000000
   endloop
  endfacet
facet normal 0.000000 0.000000 1.000000
   outer loop
     vertex -449.297462 100.015953 60.000000
     vertex -489.807611 70.143744 60.000000
     vertex -451.445475 0.000000 60.000000
   endloop
  endfacet
facet normal 1.000000 0.000000 -0.000000
   outer loop
     vertex -530.000000 -210.000000 299.203483
     vertex -530.000000 -210.000000 393.160793
     vertex -530.000000 -280.000000 345.319935
   endloop
  endfacet
facet normal 1.000000 0.000000 -0.000000
   outer loop
     vertex -530.000000 -210.000000 107.841000
     vertex -530.000000 -210.000000 203.521483
     vertex -530.000000 -280.000000 155.680970
   endloop
  endfacet
facet normal 1.000000 0.000000 -0.000000
   outer loop
     vertex -530.000000 -70.000000 203.523000
     vertex -530.000000 -70.000000 299.205000
     vertex -530.000000 -140.000000 251.364000
   endloop
  endfacet
facet normal 1.000000 -0.000000 0.000000
   outer loop
     vertex -530.000000 -140.000000 155.682000
     vertex -530.000000 -140.000000 60.000000
     vertex -530.000000 -70.000000 107.841000
   endloop
  endfacet
facet normal 1.000000 -0.000000 0.000000
   outer loop
     vertex -530.000000 140.000000 155.682000
     vertex -530.000000 140.000000 60.000000
     vertex -530.000000 210.000000 107.841000
   endloop
  endfacet
facet normal 1.000000 -0.000000 0.000000
   outer loop
     vertex -530.000000 0.000000 251.364000
     vertex -530.000000 0.000000 155.682000
     vertex -530.000000 70.000000 203.523000
   endloop
  endfacet
facet normal 1.000000 -0.000000 0.000000
   outer loop
     vertex -530.000000 210.000000 203.521483
     vertex -530.000000 210.000000 107.841000
     vertex -530.000000 280.000000 155.680970
   endloop
  endfacet
facet normal 1.000000 -0.000000 0.000000
   outer loop
     vertex -530.000000 210.000000 393.160793
     vertex -530.000000 210.000000 299.203483
     vertex -530.000000 280.000000 345.319935
   endloop
  endfacet
facet normal 1.000000 -0.000000 0.000000
   outer loop
     vertex -530.000000 70.000000 299.205000
     vertex -530.000000 70.000000 203.523000
     vertex -530.000000 140.000000 251.364000
   endloop
  endfacet
facet normal 0.000000 0.000000 -1.000000
   outer loop
     vertex -575.003058 -394.985854 30.000000
     vertex -612.504652 -299.410322 30.000000
     vertex -537.504652 -299.410322 30.000000
   endloop
  endfacet
facet normal 0.000000 0.000000 -1.000000
   outer loop
     vertex -612.504652 -299.410322 30.000000
     vertex -650.000000 -200.000000 30.000000
     vertex -575.000000 -200.000000 30.000000
   endloop
  endfacet
facet normal 0.000000 0.000000 -1.000000
   outer loop
     vertex -537.504652 -299.410322 30.000000
     vertex -575.000000 -200.000000 30.000000
     vertex -500.000000 -200.000000 30.000000
   endloop
  endfacet
facet normal -0.816702 0.272876 0.508466
   outer loop
     vertex -645.550466 339.807075 244.861517
     vertex -693.021378 272.703532 204.625454
     vertex -639.491305 242.637243 306.741416
   endloop
  endfacet
facet normal -0.858957 0.173074 0.481911
   outer loop
     vertex -693.021378 272.703532 204.625454
     vertex -733.099423 200.381975 159.164095
     vertex -681.262997 170.572106 262.263294
   endloop
  endfacet
facet normal -0.841502 0.171590 0.512280
   outer loop
     vertex -639.491305 242.637243 306.741416
     vertex -681.262997 170.572106 262.263294
     vertex -625.923487 140.423028 363.265777
   endloop
  endfacet
facet normal 0.960952 -0.271037 -0.055775
   outer loop
     vertex -545.865369 -329.244727 217.318737
     vertex -530.000000 -280.000000 251.360993
     vertex -533.993332 -298.423581 272.088728
   endloop
  endfacet
facet normal 0.912269 -0.386881 0.134491
   outer loop
     vertex -530.000000 -280.000000 251.360993
     vertex -545.865369 -329.244727 217.318737
     vertex -536.247462 -313.393748 197.676816
   endloop
  endfacet
facet normal 0.941546 -0.330901 -0.063216
   outer loop
     vertex -550.832817 -344.149857 141.432149
     vertex -531.187194 -295.038696 176.966275
     vertex -536.247462 -313.393748 197.676816
   endloop
  endfacet
facet normal 0.148652 0.964405 0.218690
   outer loop
     vertex -562.593633 379.732329 88.831627
     vertex -575.003058 394.985854 30.000000
     vertex -605.709900 392.823456 60.408661
   endloop
  endfacet
facet normal 0.005847 0.911615 0.411005
   outer loop
     vertex -605.709900 392.823456 60.408661
     vertex -592.962820 367.235867 116.980989
     vertex -562.593633 379.732329 88.831627
   endloop
  endfacet
facet normal 0.213008 0.878444 0.427743
   outer loop
     vertex -520.919420 358.021675 112.665148
     vertex -531.834982 386.886783 58.821498
     vertex -562.593633 379.732329 88.831627
   endloop
  endfacet
facet normal 0.000349 0.002271 0.999997
   outer loop
     vertex -530.000000 280.000000 60.000000
     vertex -461.334699 269.437062 60.000000
     vertex -499.976308 309.241316 59.923097
   endloop
  endfacet
facet normal 0.000000 0.000000 1.000000
   outer loop
     vertex -450.827323 200.459400 60.000000
     vertex -515.602536 210.805008 60.000000
     vertex -475.938321 170.293251 60.000000
   endloop
  endfacet
facet normal 0.000000 -0.000000 1.000000
   outer loop
     vertex -487.981935 239.497172 60.000000
     vertex -450.827323 200.459400 60.000000
     vertex -461.334699 269.437062 60.000000
   endloop
  endfacet
facet normal 1.000000 0.000000 0.000000
   outer loop
     vertex -530.000000 0.000000 347.046000
     vertex -530.000000 -0.000000 428.726703
     vertex -530.000000 -70.000000 392.240841
   endloop
  endfacet
facet normal 1.000000 -0.000000 0.000000
   outer loop
     vertex -530.000000 -70.000000 392.240841
     vertex -530.000000 -70.000000 299.205000
     vertex -530.000000 0.000000 347.046000
   endloop
  endfacet
facet normal 1.000000 0.000000 -0.000000
   outer loop
     vertex -530.000000 70.000000 299.205000
     vertex -530.000000 70.000000 392.240841
     vertex -530.000000 0.000000 347.046000
   endloop
  endfacet
facet normal 0.000000 -0.000000 -1.000000
   outer loop
     vertex -695.721582 100.000000 30.000000
     vertex -612.500000 100.000000 30.000000
     vertex -650.000000 -0.000000 30.000000
   endloop
  endfacet
facet normal 0.000000 0.000000 -1.000000
   outer loop
     vertex -612.500000 -100.000000 30.000000
     vertex -695.721582 -100.000000 30.000000
     vertex -650.000000 -0.000000 30.000000
   endloop
  endfacet
facet normal 0.000000 0.000000 -1.000000
   outer loop
     vertex -650.000000 -0.000000 30.000000
     vertex -735.735527 0.000000 30.000000
     vertex -695.721582 100.000000 30.000000
   endloop
  endfacet
facet normal 0.000000 0.000000 -1.000000
   outer loop
     vertex -500.000000 200.000000 30.000000
     vertex -575.000000 200.000000 30.000000
     vertex -537.504652 299.410322 30.000000
   endloop
  endfacet
facet normal 0.000000 0.000000 -1.000000
   outer loop
     vertex -575.000000 200.000000 30.000000
     vertex -650.000000 200.000000 30.000000
     vertex -612.504652 299.410322 30.000000
   endloop
  endfacet
facet normal 0.000000 0.000000 -1.000000
   outer loop
     vertex -537.504652 299.410322 30.000000
     vertex -612.504652 299.410322 30.000000
     vertex -575.003058 394.985854 30.000000
   endloop
  endfacet
facet normal 0.000000 0.000000 -1.000000
   outer loop
     vertex -469.321231 -100.000000 30.000000
     vertex -537.500000 -100.000000 30.000000
     vertex -500.000000 -0.000000 30.000000
   endloop
  endfacet
facet normal 0.000000 -0.000000 -1.000000
   outer loop
     vertex -537.500000 100.000000 30.000000
     vertex -469.321231 100.000000 30.000000
     vertex -500.000000 -0.000000 30.000000
   endloop
  endfacet
facet normal 0.000000 -0.000000 -1.000000
   outer loop
     vertex -500.000000 -0.000000 30.000000
     vertex -448.445891 0.000000 30.000000
     vertex -469.321231 -100.000000 30.000000
   endloop
  endfacet
facet normal -0.944072 -0.127130 0.304248
   outer loop
     vertex -740.930318 -100.216432 94.838035
     vertex -704.004959 -99.959037 209.523876
     vertex -733.626492 -0.000000 159.376921
   endloop
  endfacet
facet normal -0.944072 0.127130 0.304248
   outer loop
     vertex -704.004959 99.959037 209.523876
     vertex -740.930318 100.216432 94.838035
     vertex -733.626492 -0.000000 159.376921
   endloop
  endfacet
facet normal -0.997928 0.062253 0.016268
   outer loop
     vertex -733.626492 -0.000000 159.376921
     vertex -735.735527 0.000000 30.000000
     vertex -740.930318 -100.216432 94.838035
   endloop
  endfacet
facet normal -0.841502 -0.171590 0.512280
   outer loop
     vertex -625.923487 -140.423028 363.265777
     vertex -681.262997 -170.572106 262.263294
     vertex -639.491305 -242.637243 306.741416
   endloop
  endfacet
facet normal -0.858957 -0.173074 0.481911
   outer loop
     vertex -681.262997 -170.572106 262.263294
     vertex -733.099423 -200.381975 159.164095
     vertex -693.021378 -272.703532 204.625454
   endloop
  endfacet
facet normal -0.816702 -0.272876 0.508466
   outer loop
     vertex -639.491305 -242.637243 306.741416
     vertex -693.021378 -272.703532 204.625454
     vertex -645.550466 -339.807075 244.861517
   endloop
  endfacet
facet normal -0.779709 0.176908 0.600631
   outer loop
     vertex -579.429514 70.158965 402.161853
     vertex -649.722790 69.966428 310.967470
     vertex -625.542780 0.000000 362.964345
   endloop
  endfacet
facet normal -0.779709 -0.176908 0.600631
   outer loop
     vertex -649.722790 -69.966428 310.967470
     vertex -579.429514 -70.158965 402.161853
     vertex -625.542780 0.000000 362.964345
   endloop
  endfacet
facet normal -0.564817 -0.087226 0.820593
   outer loop
     vertex -625.542780 0.000000 362.964345
     vertex -530.000000 -0.000000 428.726703
     vertex -579.429514 70.158965 402.161853
   endloop
  endfacet
facet normal 0.159378 -0.969127 0.188127
   outer loop
     vertex -641.624187 -365.203349 168.676663
     vertex -592.962820 -367.235867 116.980989
     vertex -587.476073 -351.809125 191.802990
   endloop
  endfacet
facet normal 0.331185 -0.906572 0.261619
   outer loop
     vertex -545.865369 -329.244727 217.318737
     vertex -592.719013 -331.163900 269.980707
     vertex -587.476073 -351.809125 191.802990
   endloop
  endfacet
facet normal 0.096844 -0.942711 0.319244
   outer loop
     vertex -587.476073 -351.809125 191.802990
     vertex -645.550466 -339.807075 244.861517
     vertex -641.624187 -365.203349 168.676663
   endloop
  endfacet
facet normal 0.213008 -0.878444 0.427743
   outer loop
     vertex -531.834982 -386.886783 58.821498
     vertex -520.919420 -358.021675 112.665148
     vertex -562.593633 -379.732329 88.831627
   endloop
  endfacet
facet normal 0.005847 -0.911615 0.411005
   outer loop
     vertex -592.962820 -367.235867 116.980989
     vertex -605.709900 -392.823456 60.408661
     vertex -562.593633 -379.732329 88.831627
   endloop
  endfacet
facet normal 0.016361 -0.968697 0.247707
   outer loop
     vertex -562.593633 -379.732329 88.831627
     vertex -575.003058 -394.985854 30.000000
     vertex -531.834982 -386.886783 58.821498
   endloop
  endfacet
facet normal 0.699270 0.315425 0.641505
   outer loop
     vertex -531.963940 -309.764759 102.988509
     vertex -510.481227 -341.326493 95.090143
     vertex -503.160650 -324.340420 78.758417
   endloop
  endfacet
facet normal 0.675871 0.219900 0.703451
   outer loop
     vertex -510.481227 -341.326493 95.090143
     vertex -490.079217 -372.114976 85.112572
     vertex -480.849438 -355.794241 71.142760
   endloop
  endfacet
facet normal 0.650958 0.292100 0.700665
   outer loop
     vertex -503.160650 -324.340420 78.758417
     vertex -480.849438 -355.794241 71.142760
     vertex -472.693044 -338.441693 56.330905
   endloop
  endfacet
facet normal 0.331185 0.906572 0.261619
   outer loop
     vertex -592.719013 331.163900 269.980707
     vertex -545.865369 329.244727 217.318737
     vertex -587.476073 351.809125 191.802990
   endloop
  endfacet
facet normal 0.159378 0.969127 0.188127
   outer loop
     vertex -592.962820 367.235867 116.980989
     vertex -641.624187 365.203349 168.676663
     vertex -587.476073 351.809125 191.802990
   endloop
  endfacet
facet normal 0.035598 0.965650 0.257397
   outer loop
     vertex -587.476073 351.809125 191.802990
     vertex -645.550466 339.807075 244.861517
     vertex -592.719013 331.163900 269.980707
   endloop
  endfacet
facet normal 0.891601 0.438476 0.113075
   outer loop
     vertex -550.832817 344.149857 141.432149
     vertex -531.187194 295.038696 176.966275
     vertex -540.109107 327.134073 122.858078
   endloop
  endfacet
facet normal 0.960952 0.271037 -0.055775
   outer loop
     vertex -530.000000 280.000000 251.360993
     vertex -545.865369 329.244727 217.318737
     vertex -533.993332 298.423581 272.088728
   endloop
  endfacet
facet normal 0.972093 0.232473 0.031481
   outer loop
     vertex -536.247462 313.393748 197.676816
     vertex -530.000000 280.000000 251.360993
     vertex -531.187194 295.038696 176.966275
   endloop
  endfacet
facet normal 0.675871 -0.219900 0.703451
   outer loop
     vertex -490.079217 372.114976 85.112572
     vertex -510.481227 341.326493 95.090143
     vertex -480.849438 355.794241 71.142760
   endloop
  endfacet
facet normal 0.699270 -0.315425 0.641505
   outer loop
     vertex -510.481227 341.326493 95.090143
     vertex -531.963940 309.764759 102.988509
     vertex -503.160650 324.340420 78.758417
   endloop
  endfacet
facet normal 0.650958 -0.292100 0.700665
   outer loop
     vertex -480.849438 355.794241 71.142760
     vertex -503.160650 324.340420 78.758417
     vertex -472.693044 338.441693 56.330905
   endloop
  endfacet
facet normal -0.000000 -0.000000 1.000000
   outer loop
     vertex -515.787611 -70.143744 60.000000
     vertex -489.807611 -70.143744 60.000000
     vertex -502.655222 0.000000 60.000000
   endloop
  endfacet
facet normal 0.000000 0.000000 1.000000
   outer loop
     vertex -489.807611 70.143744 60.000000
     vertex -515.787611 70.143744 60.000000
     vertex -502.655222 0.000000 60.000000
   endloop
  endfacet
facet normal 0.000000 0.000000 1.000000
   outer loop
     vertex -502.655222 0.000000 60.000000
     vertex -530.000000 0.000000 60.000000
     vertex -515.787611 -70.143744 60.000000
   endloop
  endfacet
facet normal 0.000000 -0.000000 1.000000
   outer loop
     vertex -515.602536 -210.805008 60.000000
     vertex -450.827323 -200.459400 60.000000
     vertex -475.938321 -170.293251 60.000000
   endloop
  endfacet
facet normal 0.000000 -0.000000 1.000000
   outer loop
     vertex -450.827323 -200.459400 60.000000
     vertex -515.602536 -210.805008 60.000000
     vertex -487.981935 -239.497172 60.000000
   endloop
  endfacet
facet normal 0.000000 0.000000 1.000000
   outer loop
     vertex -530.000000 -280.000000 60.000000
     vertex -461.334699 -269.437062 60.000000
     vertex -487.981935 -239.497172 60.000000
   endloop
  endfacet
facet normal 0.000000 -0.000000 1.000000
   outer loop
     vertex -489.807611 70.143744 60.000000
     vertex -449.297462 100.015953 60.000000
     vertex -463.325999 100.126463 60.000000
   endloop
  endfacet
facet normal -0.000000 -0.000000 1.000000
   outer loop
     vertex -489.807611 -70.143744 60.000000
     vertex -449.297462 -100.015953 60.000000
     vertex -451.445475 0.000000 60.000000
   endloop
  endfacet
facet normal 0.994811 -0.021365 0.099467
   outer loop
     vertex -451.445475 0.000000 60.000000
     vertex -448.445891 0.000000 30.000000
     vertex -449.297462 100.015953 60.000000
   endloop
  endfacet
facet normal 1.000000 0.000000 -0.000000
   outer loop
     vertex -530.000000 -140.000000 155.682000
     vertex -530.000000 -140.000000 251.364000
     vertex -530.000000 -210.000000 203.521483
   endloop
  endfacet
facet normal 1.000000 0.000000 -0.000000
   outer loop
     vertex -530.000000 -140.000000 251.364000
     vertex -530.000000 -140.000000 347.046000
     vertex -530.000000 -210.000000 299.203483
   endloop
  endfacet
facet normal 1.000000 0.000000 -0.000000
   outer loop
     vertex -530.000000 -210.000000 203.521483
     vertex -530.000000 -210.000000 299.203483
     vertex -530.000000 -280.000000 251.360993
   endloop
  endfacet
facet normal 1.000000 0.000000 -0.000000
   outer loop
     vertex -530.000000 70.000000 107.841000
     vertex -530.000000 70.000000 203.523000
     vertex -530.000000 0.000000 155.682000
   endloop
  endfacet
facet normal 1.000000 -0.000000 0.000000
   outer loop
     vertex -530.000000 -70.000000 203.523000
     vertex -530.000000 -70.000000 107.841000
     vertex -530.000000 0.000000 155.682000
   endloop
  endfacet
facet normal 1.000000 -0.000000 0.000000
   outer loop
     vertex -530.000000 0.000000 155.682000
     vertex -530.000000 0.000000 60.000000
     vertex -530.000000 70.000000 107.841000
   endloop
  endfacet
facet normal 1.000000 -0.000000 0.000000
   outer loop
     vertex -530.000000 140.000000 347.046000
     vertex -530.000000 140.000000 251.364000
     vertex -530.000000 210.000000 299.203483
   endloop
  endfacet
facet normal 1.000000 -0.000000 0.000000
   outer loop
     vertex -530.000000 140.000000 251.364000
     vertex -530.000000 140.000000 155.682000
     vertex -530.000000 210.000000 203.521483
   endloop
  endfacet
facet normal 1.000000 -0.000000 0.000000
   outer loop
     vertex -530.000000 210.000000 299.203483
     vertex -530.000000 210.000000 203.521483
     vertex -530.000000 280.000000 251.360993
   endloop
  endfacet
facet normal -0.000000 -0.000000 -1.000000
   outer loop
     vertex -575.000000 0.000000 30.000000
     vertex -537.500000 -100.000000 30.000000
     vertex -612.500000 -100.000000 30.000000
   endloop
  endfacet
facet normal -0.000000 -0.000000 -1.000000
   outer loop
     vertex -537.500000 -100.000000 30.000000
     vertex -500.000000 -200.000000 30.000000
     vertex -575.000000 -200.000000 30.000000
   endloop
  endfacet
facet normal -0.000000 -0.000000 -1.000000
   outer loop
     vertex -612.500000 -100.000000 30.000000
     vertex -575.000000 -200.000000 30.000000
     vertex -650.000000 -200.000000 30.000000
   endloop
  endfacet
facet normal 0.000000 -0.000000 -1.000000
   outer loop
     vertex -500.000000 -200.000000 30.000000
     vertex -467.274182 -298.423878 30.000000
     vertex -537.504652 -299.410322 30.000000
   endloop
  endfacet
facet normal 0.000000 -0.000000 -1.000000
   outer loop
     vertex -467.274182 -298.423878 30.000000
     vertex -441.966312 -393.824661 30.000000
     vertex -504.815621 -393.875686 30.000000
   endloop
  endfacet
facet normal 0.000000 -0.000000 -1.000000
   outer loop
     vertex -537.504652 -299.410322 30.000000
     vertex -504.815621 -393.875686 30.000000
     vertex -575.003058 -394.985854 30.000000
   endloop
  endfacet
facet normal -0.000000 -0.000000 -1.000000
   outer loop
     vertex -650.000000 -200.000000 30.000000
     vertex -612.504652 -299.410322 30.000000
     vertex -690.960401 -299.022644 30.000000
   endloop
  endfacet
facet normal -0.000000 -0.000000 -1.000000
   outer loop
     vertex -612.504652 -299.410322 30.000000
     vertex -575.003058 -394.985854 30.000000
     vertex -653.442970 -394.807171 30.000000
   endloop
  endfacet
facet normal -0.000000 -0.000000 -1.000000
   outer loop
     vertex -690.960401 -299.022644 30.000000
     vertex -653.442970 -394.807171 30.000000
     vertex -725.870990 -393.958461 30.000000
   endloop
  endfacet
facet normal -0.888048 -0.070751 0.454274
   outer loop
     vertex -671.331547 0.000000 257.828124
     vertex -649.722790 69.966428 310.967470
     vertex -704.004959 99.959037 209.523876
   endloop
  endfacet
facet normal -0.882090 -0.049759 0.468446
   outer loop
     vertex -649.722790 69.966428 310.967470
     vertex -625.923487 140.423028 363.265777
     vertex -681.262997 170.572106 262.263294
   endloop
  endfacet
facet normal -0.897266 -0.039444 0.439725
   outer loop
     vertex -704.004959 99.959037 209.523876
     vertex -681.262997 170.572106 262.263294
     vertex -733.099423 200.381975 159.164095
   endloop
  endfacet
facet normal -0.791039 0.212284 0.573754
   outer loop
     vertex -625.923487 140.423028 363.265777
     vertex -578.914916 210.549911 402.130568
     vertex -639.491305 242.637243 306.741416
   endloop
  endfacet
facet normal -0.765860 0.290338 0.573726
   outer loop
     vertex -578.914916 210.549911 402.130568
     vertex -530.000000 280.000000 432.280759
     vertex -587.519909 308.179732 341.237609
   endloop
  endfacet
facet normal -0.765729 0.310826 0.563068
   outer loop
     vertex -639.491305 242.637243 306.741416
     vertex -587.519909 308.179732 341.237609
     vertex -645.550466 339.807075 244.861517
   endloop
  endfacet
facet normal -0.887607 0.247828 0.388247
   outer loop
     vertex -733.099423 200.381975 159.164095
     vertex -693.021378 272.703532 204.625454
     vertex -733.573462 299.514957 94.801329
   endloop
  endfacet
facet normal -0.839604 0.339890 0.423722
   outer loop
     vertex -693.021378 272.703532 204.625454
     vertex -645.550466 339.807075 244.861517
     vertex -688.446084 368.048361 137.210216
   endloop
  endfacet
facet normal -0.862711 0.332056 0.381405
   outer loop
     vertex -733.573462 299.514957 94.801329
     vertex -688.446084 368.048361 137.210216
     vertex -725.870990 393.958461 30.000000
   endloop
  endfacet
facet normal 0.891601 -0.438476 0.113075
   outer loop
     vertex -531.187194 -295.038696 176.966275
     vertex -550.832817 -344.149857 141.432149
     vertex -540.109107 -327.134073 122.858078
   endloop
  endfacet
facet normal 0.983924 -0.167052 -0.063149
   outer loop
     vertex -540.109107 -327.134073 122.858078
     vertex -530.000000 -280.000000 155.680970
     vertex -531.187194 -295.038696 176.966275
   endloop
  endfacet
facet normal 0.923891 -0.382364 0.014906
   outer loop
     vertex -545.865369 -329.244727 217.318737
     vertex -533.993332 -298.423581 272.088728
     vertex -541.030377 -314.629909 292.532794
   endloop
  endfacet
facet normal 0.991693 -0.124262 0.033231
   outer loop
     vertex -530.000000 -280.000000 155.680970
     vertex -531.963940 -309.764759 102.988509
     vertex -529.423237 -295.180153 81.704422
   endloop
  endfacet
facet normal 0.999279 0.037967 -0.000000
   outer loop
     vertex -529.423237 -295.180153 81.704422
     vertex -530.000000 -280.000000 60.000000
     vertex -530.000000 -280.000000 155.680970
   endloop
  endfacet
facet normal 0.996899 -0.078698 0.000000
   outer loop
     vertex -531.187194 -295.038696 176.966275
     vertex -530.000000 -280.000000 155.680970
     vertex -530.000000 -280.000000 251.360993
   endloop
  endfacet
facet normal 0.933513 -0.356440 0.038769
   outer loop
     vertex -530.000000 -280.000000 345.319935
     vertex -541.030377 -314.629909 292.532794
     vertex -533.993332 -298.423581 272.088728
   endloop
  endfacet
facet normal 0.977306 -0.211832 0.000000
   outer loop
     vertex -533.993332 -298.423581 272.088728
     vertex -530.000000 -280.000000 251.360993
     vertex -530.000000 -280.000000 345.319935
   endloop
  endfacet
facet normal 0.925283 -0.379277 0.000000
   outer loop
     vertex -536.621260 -296.153227 365.663012
     vertex -530.000000 -280.000000 345.319935
     vertex -530.000000 -280.000000 432.280759
   endloop
  endfacet
facet normal 0.128307 0.834517 0.535835
   outer loop
     vertex -562.593633 379.732329 88.831627
     vertex -550.832817 344.149857 141.432149
     vertex -520.919420 358.021675 112.665148
   endloop
  endfacet
facet normal 0.016413 0.882605 0.469829
   outer loop
     vertex -531.834982 386.886783 58.821498
     vertex -520.919420 358.021675 112.665148
     vertex -490.079217 372.114976 85.112572
   endloop
  endfacet
facet normal 0.176415 0.911164 0.372368
   outer loop
     vertex -592.962820 367.235867 116.980989
     vertex -605.709900 392.823456 60.408661
     vertex -636.435245 386.403199 90.675294
   endloop
  endfacet
facet normal -0.017535 0.928369 0.371247
   outer loop
     vertex -504.815621 393.875686 30.000000
     vertex -490.079217 372.114976 85.112572
     vertex -462.886716 383.905091 56.913647
   endloop
  endfacet
facet normal 0.000762 0.938105 0.346350
   outer loop
     vertex -462.886716 383.905091 56.913647
     vertex -441.966312 393.824661 30.000000
     vertex -504.815621 393.875686 30.000000
   endloop
  endfacet
facet normal 0.015316 0.968339 0.249170
   outer loop
     vertex -531.834982 386.886783 58.821498
     vertex -504.815621 393.875686 30.000000
     vertex -575.003058 394.985854 30.000000
   endloop
  endfacet
facet normal -0.056072 0.986729 0.152387
   outer loop
     vertex -653.442970 394.807171 30.000000
     vertex -636.435245 386.403199 90.675294
     vertex -605.709900 392.823456 60.408661
   endloop
  endfacet
facet normal -0.002273 0.997638 0.068648
   outer loop
     vertex -605.709900 392.823456 60.408661
     vertex -575.003058 394.985854 30.000000
     vertex -653.442970 394.807171 30.000000
   endloop
  endfacet
facet normal -0.011695 0.998001 0.062105
   outer loop
     vertex -684.227065 392.554377 60.404701
     vertex -653.442970 394.807171 30.000000
     vertex -725.870990 393.958461 30.000000
   endloop
  endfacet
facet normal 0.000000 0.000000 1.000000
   outer loop
     vertex -451.445475 0.000000 60.000000
     vertex -489.807611 70.143744 60.000000
     vertex -476.960000 -0.000000 60.000000
   endloop
  endfacet
facet normal 0.591112 0.224080 0.774838
   outer loop
     vertex -447.297758 198.476777 30.000000
     vertex -475.938321 170.293251 60.000000
     vertex -449.297462 100.015953 60.000000
   endloop
  endfacet
facet normal 0.000000 0.000000 1.000000
   outer loop
     vertex -463.325999 100.126463 60.000000
     vertex -502.655222 140.287489 60.000000
     vertex -489.807611 70.143744 60.000000
   endloop
  endfacet
facet normal 0.493136 -0.254192 0.831988
   outer loop
     vertex -461.334699 269.437062 60.000000
     vertex -447.297758 198.476777 30.000000
     vertex -446.482191 298.251159 60.000000
   endloop
  endfacet
facet normal 0.495505 0.238737 0.835152
   outer loop
     vertex -446.482191 298.251159 60.000000
     vertex -441.966312 393.824661 30.000000
     vertex -453.108305 367.817916 44.044969
   endloop
  endfacet
facet normal 0.019886 0.103750 0.994405
   outer loop
     vertex -499.976308 309.241316 59.923097
     vertex -446.482191 298.251159 60.000000
     vertex -472.693044 338.441693 56.330905
   endloop
  endfacet
facet normal 0.000000 0.000000 1.000000
   outer loop
     vertex -475.938321 170.293251 60.000000
     vertex -515.602536 210.805008 60.000000
     vertex -502.655222 140.287489 60.000000
   endloop
  endfacet
facet normal -0.001300 0.000670 0.999999
   outer loop
     vertex -446.482191 298.251159 60.000000
     vertex -499.976308 309.241316 59.923097
     vertex -461.334699 269.437062 60.000000
   endloop
  endfacet
facet normal -0.000000 -0.000000 1.000000
   outer loop
     vertex -487.981935 239.497172 60.000000
     vertex -530.000000 280.000000 60.000000
     vertex -515.602536 210.805008 60.000000
   endloop
  endfacet
facet normal 1.000000 -0.000000 0.000000
   outer loop
     vertex -530.000000 0.000000 347.046000
     vertex -530.000000 0.000000 251.364000
     vertex -530.000000 70.000000 299.205000
   endloop
  endfacet
facet normal 1.000000 -0.000000 0.000000
   outer loop
     vertex -530.000000 70.000000 392.240841
     vertex -530.000000 70.000000 299.205000
     vertex -530.000000 140.000000 347.046000
   endloop
  endfacet
facet normal 1.000000 0.000000 -0.000000
   outer loop
     vertex -530.000000 -70.000000 299.205000
     vertex -530.000000 -70.000000 392.240841
     vertex -530.000000 -140.000000 347.046000
   endloop
  endfacet
facet normal 1.000000 -0.000000 0.000000
   outer loop
     vertex -530.000000 140.095964 429.589392
     vertex -530.000000 140.000000 347.046000
     vertex -530.000000 210.000000 393.160793
   endloop
  endfacet
facet normal 1.000000 0.000000 -0.000000
   outer loop
     vertex -530.000000 210.000000 393.160793
     vertex -530.000000 280.000000 432.280759
     vertex -530.000000 140.095964 429.589392
   endloop
  endfacet
facet normal 1.000000 0.000000 -0.000000
   outer loop
     vertex -530.000000 70.000000 392.240841
     vertex -530.000000 140.095964 429.589392
     vertex -530.000000 -0.000000 428.726703
   endloop
  endfacet
facet normal 1.000000 -0.000000 0.000000
   outer loop
     vertex -530.000000 -140.095964 429.589392
     vertex -530.000000 -140.000000 347.046000
     vertex -530.000000 -70.000000 392.240841
   endloop
  endfacet
facet normal 1.000000 0.000000 -0.000000
   outer loop
     vertex -530.000000 -70.000000 392.240841
     vertex -530.000000 -0.000000 428.726703
     vertex -530.000000 -140.095964 429.589392
   endloop
  endfacet
facet normal 1.000000 0.000000 -0.000000
   outer loop
     vertex -530.000000 -210.000000 393.160793
     vertex -530.000000 -140.095964 429.589392
     vertex -530.000000 -280.000000 432.280759
   endloop
  endfacet
facet normal 0.000000 0.000000 1.000000
   outer loop
     vertex -529.572873 210.164380 60.000000
     vertex -530.000000 280.000000 60.000000
     vertex -530.000000 140.000000 60.000000
   endloop
  endfacet
facet normal 0.000000 0.000000 1.000000
   outer loop
     vertex -529.358750 70.000000 60.000000
     vertex -530.000000 140.000000 60.000000
     vertex -530.000000 0.000000 60.000000
   endloop
  endfacet
facet normal 0.000000 0.000000 1.000000
   outer loop
     vertex -529.561250 -70.000000 60.000000
     vertex -530.000000 0.000000 60.000000
     vertex -530.000000 -140.000000 60.000000
   endloop
  endfacet
facet normal 0.000000 0.000000 1.000000
   outer loop
     vertex -529.324823 -210.328759 60.000000
     vertex -530.000000 -140.000000 60.000000
     vertex -530.000000 -280.000000 60.000000
   endloop
  endfacet
facet normal 0.000000 0.000000 -1.000000
   outer loop
     vertex -725.870990 -393.958461 30.000000
     vertex -731.168011 -198.905517 30.000000
     vertex -690.960401 -299.022644 30.000000
   endloop
  endfacet
facet normal 0.000000 0.000000 -1.000000
   outer loop
     vertex -731.168011 -198.905517 30.000000
     vertex -735.735527 0.000000 30.000000
     vertex -695.721582 -100.000000 30.000000
   endloop
  endfacet
facet normal 0.000000 -0.000000 -1.000000
   outer loop
     vertex -731.168011 -198.905517 30.000000
     vertex -650.000000 -200.000000 30.000000
     vertex -690.960401 -299.022644 30.000000
   endloop
  endfacet
facet normal 0.000000 0.000000 -1.000000
   outer loop
     vertex -735.735527 0.000000 30.000000
     vertex -731.168011 198.905517 30.000000
     vertex -695.721582 100.000000 30.000000
   endloop
  endfacet
facet normal 0.000000 0.000000 -1.000000
   outer loop
     vertex -731.168011 198.905517 30.000000
     vertex -725.870990 393.958461 30.000000
     vertex -690.960401 299.022644 30.000000
   endloop
  endfacet
facet normal 0.000000 -0.000000 -1.000000
   outer loop
     vertex -731.168011 198.905517 30.000000
     vertex -650.000000 200.000000 30.000000
     vertex -695.721582 100.000000 30.000000
   endloop
  endfacet
facet normal 0.000000 -0.000000 -1.000000
   outer loop
     vertex -695.721582 -100.000000 30.000000
     vertex -612.500000 -100.000000 30.000000
     vertex -650.000000 -200.000000 30.000000
   endloop
  endfacet
facet normal 0.000000 0.000000 -1.000000
   outer loop
     vertex -612.500000 100.000000 30.000000
     vertex -695.721582 100.000000 30.000000
     vertex -650.000000 200.000000 30.000000
   endloop
  endfacet
facet normal 0.000000 -0.000000 -1.000000
   outer loop
     vertex -650.000000 -0.000000 30.000000
     vertex -575.000000 0.000000 30.000000
     vertex -612.500000 -100.000000 30.000000
   endloop
  endfacet
facet normal 0.000000 -0.000000 -1.000000
   outer loop
     vertex -725.870990 393.958461 30.000000
     vertex -653.442970 394.807171 30.000000
     vertex -690.960401 299.022644 30.000000
   endloop
  endfacet
facet normal 0.000000 -0.000000 -1.000000
   outer loop
     vertex -653.442970 394.807171 30.000000
     vertex -575.003058 394.985854 30.000000
     vertex -612.504652 299.410322 30.000000
   endloop
  endfacet
facet normal 0.000000 -0.000000 -1.000000
   outer loop
     vertex -690.960401 299.022644 30.000000
     vertex -612.504652 299.410322 30.000000
     vertex -650.000000 200.000000 30.000000
   endloop
  endfacet
facet normal 0.000000 -0.000000 -1.000000
   outer loop
     vertex -575.003058 394.985854 30.000000
     vertex -504.815621 393.875686 30.000000
     vertex -537.504652 299.410322 30.000000
   endloop
  endfacet
facet normal 0.000000 -0.000000 -1.000000
   outer loop
     vertex -504.815621 393.875686 30.000000
     vertex -441.966312 393.824661 30.000000
     vertex -467.274182 298.423878 30.000000
   endloop
  endfacet
facet normal 0.000000 -0.000000 -1.000000
   outer loop
     vertex -537.504652 299.410322 30.000000
     vertex -467.274182 298.423878 30.000000
     vertex -500.000000 200.000000 30.000000
   endloop
  endfacet
facet normal 0.000000 -0.000000 -1.000000
   outer loop
     vertex -650.000000 200.000000 30.000000
     vertex -575.000000 200.000000 30.000000
     vertex -612.500000 100.000000 30.000000
   endloop
  endfacet
facet normal 0.000000 -0.000000 -1.000000
   outer loop
     vertex -575.000000 200.000000 30.000000
     vertex -500.000000 200.000000 30.000000
     vertex -537.500000 100.000000 30.000000
   endloop
  endfacet
facet normal 0.000000 -0.000000 -1.000000
   outer loop
     vertex -612.500000 100.000000 30.000000
     vertex -537.500000 100.000000 30.000000
     vertex -575.000000 0.000000 30.000000
   endloop
  endfacet
facet normal -0.000000 0.000000 -1.000000
   outer loop
     vertex -441.966312 393.824661 30.000000
     vertex -447.297758 198.476777 30.000000
     vertex -467.274182 298.423878 30.000000
   endloop
  endfacet
facet normal -0.000000 0.000000 -1.000000
   outer loop
     vertex -447.297758 198.476777 30.000000
     vertex -448.445891 0.000000 30.000000
     vertex -469.321231 100.000000 30.000000
   endloop
  endfacet
facet normal 0.000000 0.000000 -1.000000
   outer loop
     vertex -447.297758 198.476777 30.000000
     vertex -500.000000 200.000000 30.000000
     vertex -467.274182 298.423878 30.000000
   endloop
  endfacet
facet normal -0.000000 -0.000000 -1.000000
   outer loop
     vertex -448.445891 0.000000 30.000000
     vertex -447.297758 -198.476777 30.000000
     vertex -469.321231 -100.000000 30.000000
   endloop
  endfacet
facet normal -0.000000 -0.000000 -1.000000
   outer loop
     vertex -447.297758 -198.476777 30.000000
     vertex -441.966312 -393.824661 30.000000
     vertex -467.274182 -298.423878 30.000000
   endloop
  endfacet
facet normal -0.000000 0.000000 -1.000000
   outer loop
     vertex -447.297758 -198.476777 30.000000
     vertex -500.000000 -200.000000 30.000000
     vertex -469.321231 -100.000000 30.000000
   endloop
  endfacet
facet normal 0.000000 0.000000 -1.000000
   outer loop
     vertex -469.321231 100.000000 30.000000
     vertex -537.500000 100.000000 30.000000
     vertex -500.000000 200.000000 30.000000
   endloop
  endfacet
facet normal 0.000000 -0.000000 -1.000000
   outer loop
     vertex -537.500000 -100.000000 30.000000
     vertex -469.321231 -100.000000 30.000000
     vertex -500.000000 -200.000000 30.000000
   endloop
  endfacet
facet normal 0.000000 0.000000 -1.000000
   outer loop
     vertex -500.000000 -0.000000 30.000000
     vertex -575.000000 0.000000 30.000000
     vertex -537.500000 100.000000 30.000000
   endloop
  endfacet
facet normal -0.996507 0.027062 -0.079007
   outer loop
     vertex -725.870990 393.958461 30.000000
     vertex -731.168011 198.905517 30.000000
     vertex -733.573462 299.514957 94.801329
   endloop
  endfacet
facet normal -0.993125 0.022805 -0.114818
   outer loop
     vertex -731.168011 198.905517 30.000000
     vertex -735.735527 0.000000 30.000000
     vertex -740.930318 100.216432 94.838035
   endloop
  endfacet
facet normal -0.999787 -0.014380 -0.014786
   outer loop
     vertex -731.168011 198.905517 30.000000
     vertex -733.099423 200.381975 159.164095
     vertex -733.573462 299.514957 94.801329
   endloop
  endfacet
facet normal -0.993125 -0.022805 -0.114818
   outer loop
     vertex -735.735527 0.000000 30.000000
     vertex -731.168011 -198.905517 30.000000
     vertex -740.930318 -100.216432 94.838035
   endloop
  endfacet
facet normal -0.996507 -0.027062 -0.079007
   outer loop
     vertex -731.168011 -198.905517 30.000000
     vertex -725.870990 -393.958461 30.000000
     vertex -733.573462 -299.514957 94.801329
   endloop
  endfacet
facet normal -0.995987 -0.088077 -0.015900
   outer loop
     vertex -731.168011 -198.905517 30.000000
     vertex -733.099423 -200.381975 159.164095
     vertex -740.930318 -100.216432 94.838035
   endloop
  endfacet
facet normal -0.944925 -0.121332 0.303965
   outer loop
     vertex -740.930318 100.216432 94.838035
     vertex -704.004959 99.959037 209.523876
     vertex -733.099423 200.381975 159.164095
   endloop
  endfacet
facet normal -0.944925 0.121332 0.303965
   outer loop
     vertex -704.004959 -99.959037 209.523876
     vertex -740.930318 -100.216432 94.838035
     vertex -733.099423 -200.381975 159.164095
   endloop
  endfacet
facet normal -0.844908 -0.017826 0.534615
   outer loop
     vertex -733.626492 -0.000000 159.376921
     vertex -671.331547 0.000000 257.828124
     vertex -704.004959 99.959037 209.523876
   endloop
  endfacet
facet normal -0.862711 -0.332056 0.381405
   outer loop
     vertex -725.870990 -393.958461 30.000000
     vertex -688.446084 -368.048361 137.210216
     vertex -733.573462 -299.514957 94.801329
   endloop
  endfacet
facet normal -0.839604 -0.339890 0.423722
   outer loop
     vertex -688.446084 -368.048361 137.210216
     vertex -645.550466 -339.807075 244.861517
     vertex -693.021378 -272.703532 204.625454
   endloop
  endfacet
facet normal -0.887607 -0.247828 0.388247
   outer loop
     vertex -733.573462 -299.514957 94.801329
     vertex -693.021378 -272.703532 204.625454
     vertex -733.099423 -200.381975 159.164095
   endloop
  endfacet
facet normal -0.765729 -0.310826 0.563068
   outer loop
     vertex -645.550466 -339.807075 244.861517
     vertex -587.519909 -308.179732 341.237609
     vertex -639.491305 -242.637243 306.741416
   endloop
  endfacet
facet normal -0.765860 -0.290338 0.573726
   outer loop
     vertex -587.519909 -308.179732 341.237609
     vertex -530.000000 -280.000000 432.280759
     vertex -578.914916 -210.549911 402.130568
   endloop
  endfacet
facet normal -0.791039 -0.212284 0.573754
   outer loop
     vertex -639.491305 -242.637243 306.741416
     vertex -578.914916 -210.549911 402.130568
     vertex -625.923487 -140.423028 363.265777
   endloop
  endfacet
facet normal -0.897266 0.039444 0.439725
   outer loop
     vertex -733.099423 -200.381975 159.164095
     vertex -681.262997 -170.572106 262.263294
     vertex -704.004959 -99.959037 209.523876
   endloop
  endfacet
facet normal -0.882090 0.049759 0.468446
   outer loop
     vertex -681.262997 -170.572106 262.263294
     vertex -625.923487 -140.423028 363.265777
     vertex -649.722790 -69.966428 310.967470
   endloop
  endfacet
facet normal -0.888048 0.070751 0.454274
   outer loop
     vertex -704.004959 -99.959037 209.523876
     vertex -649.722790 -69.966428 310.967470
     vertex -671.331547 0.000000 257.828124
   endloop
  endfacet
facet normal -0.507483 0.016573 0.861503
   outer loop
     vertex -530.000000 -280.000000 432.280759
     vertex -530.000000 -140.095964 429.589392
     vertex -578.914916 -210.549911 402.130568
   endloop
  endfacet
facet normal -0.479328 0.005404 0.877619
   outer loop
     vertex -530.000000 -140.095964 429.589392
     vertex -530.000000 -0.000000 428.726703
     vertex -579.429514 -70.158965 402.161853
   endloop
  endfacet
facet normal -0.567319 0.074235 0.820145
   outer loop
     vertex -530.000000 -140.095964 429.589392
     vertex -625.923487 -140.423028 363.265777
     vertex -578.914916 -210.549911 402.130568
   endloop
  endfacet
facet normal -0.479328 -0.005404 0.877619
   outer loop
     vertex -530.000000 -0.000000 428.726703
     vertex -530.000000 140.095964 429.589392
     vertex -579.429514 70.158965 402.161853
   endloop
  endfacet
facet normal -0.507483 -0.016573 0.861503
   outer loop
     vertex -530.000000 140.095964 429.589392
     vertex -530.000000 280.000000 432.280759
     vertex -578.914916 210.549911 402.130568
   endloop
  endfacet
facet normal -0.566760 0.078951 0.820091
   outer loop
     vertex -530.000000 140.095964 429.589392
     vertex -625.923487 140.423028 363.265777
     vertex -579.429514 70.158965 402.161853
   endloop
  endfacet
facet normal -0.778497 0.182739 0.600457
   outer loop
     vertex -579.429514 -70.158965 402.161853
     vertex -649.722790 -69.966428 310.967470
     vertex -625.923487 -140.423028 363.265777
   endloop
  endfacet
facet normal -0.778497 -0.182739 0.600457
   outer loop
     vertex -649.722790 69.966428 310.967470
     vertex -579.429514 70.158965 402.161853
     vertex -625.923487 140.423028 363.265777
   endloop
  endfacet
facet normal -0.916638 0.020102 0.399213
   outer loop
     vertex -625.542780 0.000000 362.964345
     vertex -671.331547 0.000000 257.828124
     vertex -649.722790 -69.966428 310.967470
   endloop
  endfacet
facet normal 0.121812 -0.967306 0.222442
   outer loop
     vertex -530.000000 -280.000000 432.280759
     vertex -587.519909 -308.179732 341.237609
     vertex -536.621260 -296.153227 365.663012
   endloop
  endfacet
facet normal 0.010096 -0.951883 0.306297
   outer loop
     vertex -587.519909 -308.179732 341.237609
     vertex -645.550466 -339.807075 244.861517
     vertex -592.719013 -331.163900 269.980707
   endloop
  endfacet
facet normal 0.114296 -0.964795 0.236869
   outer loop
     vertex -587.519909 -308.179732 341.237609
     vertex -541.030377 -314.629909 292.532794
     vertex -536.621260 -296.153227 365.663012
   endloop
  endfacet
facet normal -0.148401 -0.940443 0.305849
   outer loop
     vertex -645.550466 -339.807075 244.861517
     vertex -688.446084 -368.048361 137.210216
     vertex -641.624187 -365.203349 168.676663
   endloop
  endfacet
facet normal -0.180049 -0.939934 0.290011
   outer loop
     vertex -688.446084 -368.048361 137.210216
     vertex -725.870990 -393.958461 30.000000
     vertex -684.227065 -392.554377 60.404701
   endloop
  endfacet
facet normal -0.112099 -0.960773 0.253670
   outer loop
     vertex -688.446084 -368.048361 137.210216
     vertex -636.435245 -386.403199 90.675294
     vertex -641.624187 -365.203349 168.676663
   endloop
  endfacet
facet normal 0.231632 -0.957623 0.171185
   outer loop
     vertex -592.719013 -331.163900 269.980707
     vertex -545.865369 -329.244727 217.318737
     vertex -541.030377 -314.629909 292.532794
   endloop
  endfacet
facet normal 0.247337 -0.930721 0.269413
   outer loop
     vertex -592.962820 -367.235867 116.980989
     vertex -641.624187 -365.203349 168.676663
     vertex -636.435245 -386.403199 90.675294
   endloop
  endfacet
facet normal 0.554143 -0.782422 0.284149
   outer loop
     vertex -536.247462 -313.393748 197.676816
     vertex -587.476073 -351.809125 191.802990
     vertex -550.832817 -344.149857 141.432149
   endloop
  endfacet
facet normal -0.011695 -0.998001 0.062105
   outer loop
     vertex -725.870990 -393.958461 30.000000
     vertex -653.442970 -394.807171 30.000000
     vertex -684.227065 -392.554377 60.404701
   endloop
  endfacet
facet normal -0.002273 -0.997638 0.068648
   outer loop
     vertex -653.442970 -394.807171 30.000000
     vertex -575.003058 -394.985854 30.000000
     vertex -605.709900 -392.823456 60.408661
   endloop
  endfacet
facet normal 0.049383 -0.991123 0.123435
   outer loop
     vertex -653.442970 -394.807171 30.000000
     vertex -636.435245 -386.403199 90.675294
     vertex -684.227065 -392.554377 60.404701
   endloop
  endfacet
facet normal 0.015316 -0.968339 0.249170
   outer loop
     vertex -575.003058 -394.985854 30.000000
     vertex -504.815621 -393.875686 30.000000
     vertex -531.834982 -386.886783 58.821498
   endloop
  endfacet
facet normal 0.000762 -0.938105 0.346350
   outer loop
     vertex -504.815621 -393.875686 30.000000
     vertex -441.966312 -393.824661 30.000000
     vertex -462.886716 -383.905091 56.913647
   endloop
  endfacet
facet normal 0.118102 -0.933995 0.337201
   outer loop
     vertex -504.815621 -393.875686 30.000000
     vertex -490.079217 -372.114976 85.112572
     vertex -531.834982 -386.886783 58.821498
   endloop
  endfacet
facet normal 0.176415 -0.911164 0.372368
   outer loop
     vertex -605.709900 -392.823456 60.408661
     vertex -592.962820 -367.235867 116.980989
     vertex -636.435245 -386.403199 90.675294
   endloop
  endfacet
facet normal 0.016413 -0.882605 0.469829
   outer loop
     vertex -520.919420 -358.021675 112.665148
     vertex -531.834982 -386.886783 58.821498
     vertex -490.079217 -372.114976 85.112572
   endloop
  endfacet
facet normal 0.148931 -0.834183 0.530998
   outer loop
     vertex -562.593633 -379.732329 88.831627
     vertex -550.832817 -344.149857 141.432149
     vertex -592.962820 -367.235867 116.980989
   endloop
  endfacet
facet normal 0.791021 0.008530 0.611729
   outer loop
     vertex -441.966312 -393.824661 30.000000
     vertex -453.108305 -367.817916 44.044969
     vertex -462.886716 -383.905091 56.913647
   endloop
  endfacet
facet normal 0.728428 0.213343 0.651059
   outer loop
     vertex -453.108305 -367.817916 44.044969
     vertex -472.693044 -338.441693 56.330905
     vertex -480.849438 -355.794241 71.142760
   endloop
  endfacet
facet normal 0.741535 0.141920 0.655732
   outer loop
     vertex -462.886716 -383.905091 56.913647
     vertex -480.849438 -355.794241 71.142760
     vertex -490.079217 -372.114976 85.112572
   endloop
  endfacet
facet normal 0.646874 0.537905 0.540567
   outer loop
     vertex -472.693044 -338.441693 56.330905
     vertex -499.976308 -309.241316 59.923097
     vertex -503.160650 -324.340420 78.758417
   endloop
  endfacet
facet normal 0.629070 0.644759 0.434230
   outer loop
     vertex -499.976308 -309.241316 59.923097
     vertex -530.000000 -280.000000 60.000000
     vertex -529.423237 -295.180153 81.704422
   endloop
  endfacet
facet normal 0.679611 0.564782 0.468135
   outer loop
     vertex -503.160650 -324.340420 78.758417
     vertex -529.423237 -295.180153 81.704422
     vertex -531.963940 -309.764759 102.988509
   endloop
  endfacet
facet normal 0.706352 0.253938 0.660744
   outer loop
     vertex -490.079217 -372.114976 85.112572
     vertex -510.481227 -341.326493 95.090143
     vertex -520.919420 -358.021675 112.665148
   endloop
  endfacet
facet normal 0.724549 0.343661 0.597433
   outer loop
     vertex -510.481227 -341.326493 95.090143
     vertex -531.963940 -309.764759 102.988509
     vertex -540.109107 -327.134073 122.858078
   endloop
  endfacet
facet normal 0.728468 0.240946 0.641311
   outer loop
     vertex -520.919420 -358.021675 112.665148
     vertex -540.109107 -327.134073 122.858078
     vertex -550.832817 -344.149857 141.432149
   endloop
  endfacet
facet normal -0.180049 0.939934 0.290011
   outer loop
     vertex -725.870990 393.958461 30.000000
     vertex -688.446084 368.048361 137.210216
     vertex -684.227065 392.554377 60.404701
   endloop
  endfacet
facet normal -0.148401 0.940443 0.305849
   outer loop
     vertex -688.446084 368.048361 137.210216
     vertex -645.550466 339.807075 244.861517
     vertex -641.624187 365.203349 168.676663
   endloop
  endfacet
facet normal -0.067482 0.951578 0.299909
   outer loop
     vertex -688.446084 368.048361 137.210216
     vertex -636.435245 386.403199 90.675294
     vertex -684.227065 392.554377 60.404701
   endloop
  endfacet
facet normal 0.010096 0.951883 0.306297
   outer loop
     vertex -645.550466 339.807075 244.861517
     vertex -587.519909 308.179732 341.237609
     vertex -592.719013 331.163900 269.980707
   endloop
  endfacet
facet normal 0.121812 0.967306 0.222442
   outer loop
     vertex -587.519909 308.179732 341.237609
     vertex -530.000000 280.000000 432.280759
     vertex -536.621260 296.153227 365.663012
   endloop
  endfacet
facet normal 0.174085 0.940824 0.290764
   outer loop
     vertex -587.519909 308.179732 341.237609
     vertex -541.030377 314.629909 292.532794
     vertex -592.719013 331.163900 269.980707
   endloop
  endfacet
facet normal 0.247337 0.930721 0.269413
   outer loop
     vertex -641.624187 365.203349 168.676663
     vertex -592.962820 367.235867 116.980989
     vertex -636.435245 386.403199 90.675294
   endloop
  endfacet
facet normal 0.231632 0.957623 0.171185
   outer loop
     vertex -545.865369 329.244727 217.318737
     vertex -592.719013 331.163900 269.980707
     vertex -541.030377 314.629909 292.532794
   endloop
  endfacet
facet normal 0.403331 0.901604 0.156315
   outer loop
     vertex -587.476073 351.809125 191.802990
     vertex -550.832817 344.149857 141.432149
     vertex -592.962820 367.235867 116.980989
   endloop
  endfacet
facet normal 0.925283 0.379277 0.000000
   outer loop
     vertex -530.000000 280.000000 432.280759
     vertex -530.000000 280.000000 345.319935
     vertex -536.621260 296.153227 365.663012
   endloop
  endfacet
facet normal 0.977306 0.211832 0.000000
   outer loop
     vertex -530.000000 280.000000 345.319935
     vertex -530.000000 280.000000 251.360993
     vertex -533.993332 298.423581 272.088728
   endloop
  endfacet
facet normal 0.937856 0.345657 0.030787
   outer loop
     vertex -530.000000 280.000000 345.319935
     vertex -541.030377 314.629909 292.532794
     vertex -536.621260 296.153227 365.663012
   endloop
  endfacet
facet normal 0.996899 0.078698 0.000000
   outer loop
     vertex -530.000000 280.000000 251.360993
     vertex -530.000000 280.000000 155.680970
     vertex -531.187194 295.038696 176.966275
   endloop
  endfacet
facet normal 0.999279 -0.037967 0.000000
   outer loop
     vertex -530.000000 280.000000 155.680970
     vertex -530.000000 280.000000 60.000000
     vertex -529.423237 295.180153 81.704422
   endloop
  endfacet
facet normal 0.946733 0.294211 0.130907
   outer loop
     vertex -540.109107 327.134073 122.858078
     vertex -530.000000 280.000000 155.680970
     vertex -531.963940 309.764759 102.988509
   endloop
  endfacet
facet normal 0.923891 0.382364 0.014906
   outer loop
     vertex -533.993332 298.423581 272.088728
     vertex -545.865369 329.244727 217.318737
     vertex -541.030377 314.629909 292.532794
   endloop
  endfacet
facet normal 0.983924 0.167052 -0.063149
   outer loop
     vertex -530.000000 280.000000 155.680970
     vertex -540.109107 327.134073 122.858078
     vertex -531.187194 295.038696 176.966275
   endloop
  endfacet
facet normal 0.554143 0.782422 0.284149
   outer loop
     vertex -587.476073 351.809125 191.802990
     vertex -536.247462 313.393748 197.676816
     vertex -550.832817 344.149857 141.432149
   endloop
  endfacet
facet normal 0.629070 -0.644759 0.434230
   outer loop
     vertex -530.000000 280.000000 60.000000
     vertex -499.976308 309.241316 59.923097
     vertex -529.423237 295.180153 81.704422
   endloop
  endfacet
facet normal 0.646874 -0.537905 0.540567
   outer loop
     vertex -499.976308 309.241316 59.923097
     vertex -472.693044 338.441693 56.330905
     vertex -503.160650 324.340420 78.758417
   endloop
  endfacet
facet normal 0.679611 -0.564782 0.468135
   outer loop
     vertex -529.423237 295.180153 81.704422
     vertex -503.160650 324.340420 78.758417
     vertex -531.963940 309.764759 102.988509
   endloop
  endfacet
facet normal 0.728428 -0.213343 0.651059
   outer loop
     vertex -472.693044 338.441693 56.330905
     vertex -453.108305 367.817916 44.044969
     vertex -480.849438 355.794241 71.142760
   endloop
  endfacet
facet normal 0.791021 -0.008530 0.611729
   outer loop
     vertex -453.108305 367.817916 44.044969
     vertex -441.966312 393.824661 30.000000
     vertex -462.886716 383.905091 56.913647
   endloop
  endfacet
facet normal 0.741535 -0.141920 0.655732
   outer loop
     vertex -480.849438 355.794241 71.142760
     vertex -462.886716 383.905091 56.913647
     vertex -490.079217 372.114976 85.112572
   endloop
  endfacet
facet normal 0.724549 -0.343661 0.597433
   outer loop
     vertex -531.963940 309.764759 102.988509
     vertex -510.481227 341.326493 95.090143
     vertex -540.109107 327.134073 122.858078
   endloop
  endfacet
facet normal 0.706352 -0.253938 0.660744
   outer loop
     vertex -510.481227 341.326493 95.090143
     vertex -490.079217 372.114976 85.112572
     vertex -520.919420 358.021675 112.665148
   endloop
  endfacet
facet normal 0.728468 -0.240946 0.641311
   outer loop
     vertex -540.109107 327.134073 122.858078
     vertex -520.919420 358.021675 112.665148
     vertex -550.832817 344.149857 141.432149
   endloop
  endfacet
facet normal 0.000000 0.000000 1.000000
   outer loop
     vertex -515.602536 210.805008 60.000000
     vertex -529.572873 210.164380 60.000000
     vertex -530.000000 140.000000 60.000000
   endloop
  endfacet
facet normal 0.000000 0.000000 1.000000
   outer loop
     vertex -502.655222 140.287489 60.000000
     vertex -530.000000 140.000000 60.000000
     vertex -515.787611 70.143744 60.000000
   endloop
  endfacet
facet normal 0.000000 -0.000000 1.000000
   outer loop
     vertex -530.000000 140.000000 60.000000
     vertex -502.655222 140.287489 60.000000
     vertex -515.602536 210.805008 60.000000
   endloop
  endfacet
facet normal -0.000000 -0.000000 1.000000
   outer loop
     vertex -529.561250 -70.000000 60.000000
     vertex -515.787611 -70.143744 60.000000
     vertex -530.000000 0.000000 60.000000
   endloop
  endfacet
facet normal 0.000000 0.000000 1.000000
   outer loop
     vertex -515.602536 -210.805008 60.000000
     vertex -529.324823 -210.328759 60.000000
     vertex -530.000000 -280.000000 60.000000
   endloop
  endfacet
facet normal -0.000000 -0.000000 1.000000
   outer loop
     vertex -530.000000 -140.000000 60.000000
     vertex -502.655222 -140.287489 60.000000
     vertex -515.787611 -70.143744 60.000000
   endloop
  endfacet
facet normal -0.000000 -0.000000 1.000000
   outer loop
     vertex -515.787611 70.143744 60.000000
     vertex -489.807611 70.143744 60.000000
     vertex -502.655222 140.287489 60.000000
   endloop
  endfacet
facet normal 0.000000 0.000000 1.000000
   outer loop
     vertex -489.807611 -70.143744 60.000000
     vertex -515.787611 -70.143744 60.000000
     vertex -502.655222 -140.287489 60.000000
   endloop
  endfacet
facet normal -0.000000 -0.000000 1.000000
   outer loop
     vertex -502.655222 0.000000 60.000000
     vertex -476.960000 -0.000000 60.000000
     vertex -489.807611 70.143744 60.000000
   endloop
  endfacet
facet normal 0.000349 -0.002271 0.999997
   outer loop
     vertex -461.334699 -269.437062 60.000000
     vertex -530.000000 -280.000000 60.000000
     vertex -499.976308 -309.241316 59.923097
   endloop
  endfacet
facet normal -0.001300 -0.000670 0.999999
   outer loop
     vertex -499.976308 -309.241316 59.923097
     vertex -446.482191 -298.251159 60.000000
     vertex -461.334699 -269.437062 60.000000
   endloop
  endfacet
facet normal 0.000000 -0.000000 1.000000
   outer loop
     vertex -515.602536 -210.805008 60.000000
     vertex -475.938321 -170.293251 60.000000
     vertex -502.655222 -140.287489 60.000000
   endloop
  endfacet
facet normal 0.233671 -0.238446 0.942625
   outer loop
     vertex -446.482191 -298.251159 60.000000
     vertex -472.693044 -338.441693 56.330905
     vertex -453.108305 -367.817916 44.044969
   endloop
  endfacet
facet normal 0.495505 -0.238737 0.835152
   outer loop
     vertex -453.108305 -367.817916 44.044969
     vertex -441.966312 -393.824661 30.000000
     vertex -446.482191 -298.251159 60.000000
   endloop
  endfacet
facet normal 0.983051 -0.149748 0.105762
   outer loop
     vertex -461.334699 -269.437062 60.000000
     vertex -447.297758 -198.476777 30.000000
     vertex -450.827323 -200.459400 60.000000
   endloop
  endfacet
facet normal 0.000000 0.000000 1.000000
   outer loop
     vertex -463.325999 -100.126463 60.000000
     vertex -502.655222 -140.287489 60.000000
     vertex -475.938321 -170.293251 60.000000
   endloop
  endfacet
facet normal 0.000000 -0.000000 1.000000
   outer loop
     vertex -475.938321 -170.293251 60.000000
     vertex -449.297462 -100.015953 60.000000
     vertex -463.325999 -100.126463 60.000000
   endloop
  endfacet
facet normal 0.000000 0.000000 1.000000
   outer loop
     vertex -449.297462 -100.015953 60.000000
     vertex -489.807611 -70.143744 60.000000
     vertex -463.325999 -100.126463 60.000000
   endloop
  endfacet
facet normal 0.997615 0.027227 0.063431
   outer loop
     vertex -441.966312 -393.824661 30.000000
     vertex -447.297758 -198.476777 30.000000
     vertex -446.482191 -298.251159 60.000000
   endloop
  endfacet
facet normal 0.998849 0.005778 0.047616
   outer loop
     vertex -447.297758 -198.476777 30.000000
     vertex -448.445891 0.000000 30.000000
     vertex -449.297462 -100.015953 60.000000
   endloop
  endfacet
facet normal 0.493136 0.254192 0.831988
   outer loop
     vertex -447.297758 -198.476777 30.000000
     vertex -461.334699 -269.437062 60.000000
     vertex -446.482191 -298.251159 60.000000
   endloop
  endfacet
facet normal 0.998849 -0.005778 0.047616
   outer loop
     vertex -448.445891 0.000000 30.000000
     vertex -447.297758 198.476777 30.000000
     vertex -449.297462 100.015953 60.000000
   endloop
  endfacet
facet normal 0.997615 -0.027227 0.063431
   outer loop
     vertex -447.297758 198.476777 30.000000
     vertex -441.966312 393.824661 30.000000
     vertex -446.482191 298.251159 60.000000
   endloop
  endfacet
facet normal 0.761886 -0.634211 0.131551
   outer loop
     vertex -475.938321 170.293251 60.000000
     vertex -447.297758 198.476777 30.000000
     vertex -450.827323 200.459400 60.000000
   endloop
  endfacet
facet normal 0.591112 -0.224080 0.774838
   outer loop
     vertex -475.938321 -170.293251 60.000000
     vertex -447.297758 -198.476777 30.000000
     vertex -449.297462 -100.015953 60.000000
   endloop
  endfacet
facet normal 0.000000 0.000000 1.000000
   outer loop
     vertex -449.297462 100.015953 60.000000
     vertex -475.938321 170.293251 60.000000
     vertex -463.325999 100.126463 60.000000
   endloop
  endfacet
facet normal 0.000000 -0.000000 1.000000
   outer loop
     vertex -489.807611 -70.143744 60.000000
     vertex -451.445475 0.000000 60.000000
     vertex -476.960000 -0.000000 60.000000
   endloop
  endfacet
facet normal 1.000000 -0.000000 0.000000
   outer loop
     vertex -530.000000 -280.000000 432.280759
     vertex -530.000000 -280.000000 345.319935
     vertex -530.000000 -210.000000 393.160793
   endloop
  endfacet
facet normal 1.000000 -0.000000 0.000000
   outer loop
     vertex -530.000000 -280.000000 345.319935
     vertex -530.000000 -280.000000 251.360993
     vertex -530.000000 -210.000000 299.203483
   endloop
  endfacet
facet normal 1.000000 -0.000000 0.000000
   outer loop
     vertex -530.000000 -210.000000 393.160793
     vertex -530.000000 -210.000000 299.203483
     vertex -530.000000 -140.000000 347.046000
   endloop
  endfacet
facet normal 1.000000 -0.000000 0.000000
   outer loop
     vertex -530.000000 -280.000000 251.360993
     vertex -530.000000 -280.000000 155.680970
     vertex -530.000000 -210.000000 203.521483
   endloop
  endfacet
facet normal 1.000000 -0.000000 0.000000
   outer loop
     vertex -530.000000 -280.000000 155.680970
     vertex -530.000000 -280.000000 60.000000
     vertex -530.000000 -210.000000 107.841000
   endloop
  endfacet
facet normal 1.000000 -0.000000 0.000000
   outer loop
     vertex -530.000000 -210.000000 203.521483
     vertex -530.000000 -210.000000 107.841000
     vertex -530.000000 -140.000000 155.682000
   endloop
  endfacet
facet normal 1.000000 -0.000000 0.000000
   outer loop
     vertex -530.000000 -140.000000 347.046000
     vertex -530.000000 -140.000000 251.364000
     vertex -530.000000 -70.000000 299.205000
   endloop
  endfacet
facet normal 1.000000 -0.000000 0.000000
   outer loop
     vertex -530.000000 -140.000000 251.364000
     vertex -530.000000 -140.000000 155.682000
     vertex -530.000000 -70.000000 203.523000
   endloop
  endfacet
facet normal 1.000000 -0.000000 0.000000
   outer loop
     vertex -530.000000 -70.000000 299.205000
     vertex -530.000000 -70.000000 203.523000
     vertex -530.000000 0.000000 251.364000
   endloop
  endfacet
facet normal 1.000000 0.000000 -0.000000
   outer loop
     vertex -530.000000 -280.000000 60.000000
     vertex -530.000000 -140.000000 60.000000
     vertex -530.000000 -210.000000 107.841000
   endloop
  endfacet
facet normal 1.000000 0.000000 -0.000000
   outer loop
     vertex -530.000000 -140.000000 60.000000
     vertex -530.000000 0.000000 60.000000
     vertex -530.000000 -70.000000 107.841000
   endloop
  endfacet
facet normal 1.000000 0.000000 -0.000000
   outer loop
     vertex -530.000000 -140.000000 60.000000
     vertex -530.000000 -140.000000 155.682000
     vertex -530.000000 -210.000000 107.841000
   endloop
  endfacet
facet normal 1.000000 0.000000 -0.000000
   outer loop
     vertex -530.000000 0.000000 60.000000
     vertex -530.000000 140.000000 60.000000
     vertex -530.000000 70.000000 107.841000
   endloop
  endfacet
facet normal 1.000000 0.000000 -0.000000
   outer loop
     vertex -530.000000 140.000000 60.000000
     vertex -530.000000 280.000000 60.000000
     vertex -530.000000 210.000000 107.841000
   endloop
  endfacet
facet normal 1.000000 0.000000 -0.000000
   outer loop
     vertex -530.000000 140.000000 60.000000
     vertex -530.000000 140.000000 155.682000
     vertex -530.000000 70.000000 107.841000
   endloop
  endfacet
facet normal 1.000000 0.000000 -0.000000
   outer loop
     vertex -530.000000 -70.000000 107.841000
     vertex -530.000000 -70.000000 203.523000
     vertex -530.000000 -140.000000 155.682000
   endloop
  endfacet
facet normal 1.000000 -0.000000 0.000000
   outer loop
     vertex -530.000000 70.000000 203.523000
     vertex -530.000000 70.000000 107.841000
     vertex -530.000000 140.000000 155.682000
   endloop
  endfacet
facet normal 1.000000 0.000000 -0.000000
   outer loop
     vertex -530.000000 0.000000 155.682000
     vertex -530.000000 0.000000 251.364000
     vertex -530.000000 -70.000000 203.523000
   endloop
  endfacet
facet normal 1.000000 0.000000 -0.000000
   outer loop
     vertex -530.000000 280.000000 60.000000
     vertex -530.000000 280.000000 155.680970
     vertex -530.000000 210.000000 107.841000
   endloop
  endfacet
facet normal 1.000000 0.000000 -0.000000
   outer loop
     vertex -530.000000 280.000000 155.680970
     vertex -530.000000 280.000000 251.360993
     vertex -530.000000 210.000000 203.521483
   endloop
  endfacet
facet normal 1.000000 0.000000 -0.000000
   outer loop
     vertex -530.000000 210.000000 107.841000
     vertex -530.000000 210.000000 203.521483
     vertex -530.000000 140.000000 155.682000
   endloop
  endfacet
facet normal 1.000000 0.000000 -0.000000
   outer loop
     vertex -530.000000 280.000000 251.360993
     vertex -530.000000 280.000000 345.319935
     vertex -530.000000 210.000000 299.203483
   endloop
  endfacet
facet normal 1.000000 0.000000 -0.000000
   outer loop
     vertex -530.000000 280.000000 345.319935
     vertex -530.000000 280.000000 432.280759
     vertex -530.000000 210.000000 393.160793
   endloop
  endfacet
facet normal 1.000000 0.000000 -0.000000
   outer loop
     vertex -530.000000 210.000000 299.203483
     vertex -530.000000 210.000000 393.160793
     vertex -530.000000 140.000000 347.046000
   endloop
  endfacet
facet normal 1.000000 0.000000 -0.000000
   outer loop
     vertex -530.000000 140.000000 155.682000
     vertex -530.000000 140.000000 251.364000
     vertex -530.000000 70.000000 203.523000
   endloop
  endfacet
facet normal 1.000000 0.000000 -0.000000
   outer loop
     vertex -530.000000 140.000000 251.364000
     vertex -530.000000 140.000000 347.046000
     vertex -530.000000 70.000000 299.205000
   endloop
  endfacet
facet normal 1.000000 0.000000 -0.000000
   outer loop
     vertex -530.000000 70.000000 203.523000
     vertex -530.000000 70.000000 299.205000
     vertex -530.000000 0.000000 251.364000
   endloop
  endfacet
facet normal -0.000000 -0.000000 1.000000
   outer loop
     vertex -529.324823 -210.328759 60.000000
     vertex -515.602536 -210.805008 60.000000
     vertex -530.000000 -140.000000 60.000000
   endloop
  endfacet
facet normal 0.000000 -0.000000 1.000000
   outer loop
     vertex -530.000000 -140.000000 60.000000
     vertex -515.787611 -70.143744 60.000000
     vertex -529.561250 -70.000000 60.000000
   endloop
  endfacet
facet normal 0.000000 0.000000 1.000000
   outer loop
     vertex -515.787611 70.143744 60.000000
     vertex -529.358750 70.000000 60.000000
     vertex -530.000000 0.000000 60.000000
   endloop
  endfacet
facet normal 0.000000 -0.000000 1.000000
   outer loop
     vertex -529.572873 210.164380 60.000000
     vertex -515.602536 210.805008 60.000000
     vertex -530.000000 280.000000 60.000000
   endloop
  endfacet
facet normal 0.000000 0.000000 1.000000
   outer loop
     vertex -515.787611 70.143744 60.000000
     vertex -530.000000 140.000000 60.000000
     vertex -529.358750 70.000000 60.000000
   endloop
  endfacet
endsolid
