<?xml version='1.0' encoding='utf8'?>
<X3D xmlns:xsi="http://www.w3.org/2001/XMLSchema-instance" profile="Immersive" version="3.3" xsi:noNamespaceSchemaLocation="http://www.web3d.org/specifications/x3d-3.3.xsd">
<head>
    <meta name="generator" content="pythonocc-7.7.0 X3D exporter (www.pythonocc.org)" />
    <meta name="creator" content="pythonocc-7.7.0 generator" />
    <meta name="identifier" content="http://www.pythonocc.org" />
    <meta name="description" content="pythonocc-7.7.0 x3dom based shape rendering" />
</head>
<Scene>
<Switch whichChoice="0" id="swBRP"><Transform scale="1 1 1"><Shape DEF="shape8" onclick="select(this);"><Appearance>
<Material id="color" diffuseColor="0.709804 0.698039 0.741176" shininess="0.9" specularColor="0.2 0.2 0.2" transparency="0">
</Material>
</Appearance>
<TriangleSet solid="false">
<Coordinate point="1280 4090 2000 1280 4110 2020 1280 4110 -2020 1280 4090 2000 1280 4110 -2020 1280 4090 -2000 1280 90 -2000 1280 4110 -2020 1280 70 -2020 1280 90 -2000 1280 4090 -2000 1280 4110 -2020 1280 70 2020 1280 4090 2000 1280 90 2000 1280 70 2020 1280 4110 2020 1280 4090 2000 1280 70 2020 1280 90 -2000 1280 70 -2020 1280 70 2020 1280 90 2000 1280 90 -2000 1281.34 65 2020 1280 70 2020 1280 70 -2020 1281.34 65 2020 1280 70 -2020 1281.34 65 -2020 1285 61.3397 2020 1281.34 65 -2020 1285 61.3397 -2020 1285 61.3397 2020 1281.34 65 2020 1281.34 65 -2020 1290 60 2020 1285 61.3397 -2020 1290 60 -2020 1290 60 2020 1285 61.3397 2020 1285 61.3397 -2020 1281.34 4110 -2025 1285 70 -2028.66 1281.34 70 -2025 1281.34 4110 -2025 1281.34 70 -2025 1280 70 -2020 1281.34 4110 -2025 1280 70 -2020 1280 4110 -2020 1285 4110 -2028.66 1285 70 -2028.66 1281.34 4110 -2025 1290 4110 -2030 1290 70 -2030 1285 70 -2028.66 1290 4110 -2030 1285 70 -2028.66 1285 4110 -2028.66 1280 4110 2020 1280 70 2020 1281.34 70 2025 1281.34 4110 2025 1281.34 70 2025 1285 70 2028.66 1281.34 4110 2025 1280 4110 2020 1281.34 70 2025 1285 4110 2028.66 1285 70 2028.66 1290 70 2030 1285 4110 2028.66 1281.34 4110 2025 1285 70 2028.66 1290 4110 2030 1285 4110 2028.66 1290 70 2030 1281.34 4115 2020 1280 4110 -2020 1280 4110 2020 1281.34 4115 2020 1281.34 4115 -2020 1280 4110 -2020 1285 4118.66 2020 1285 4118.66 -2020 1281.34 4115 -2020 1285 4118.66 2020 1281.34 4115 -2020 1281.34 4115 2020 1290 4120 2020 1290 4120 -2020 1285 4118.66 -2020 1290 4120 2020 1285 4118.66 -2020 1285 4118.66 2020 1310 4090 -2000 1280 4090 -2000 1280 90 -2000 1310 4090 -2000 1280 90 -2000 1310 90 -2000 1310 4090 2000 1280 4090 -2000 1310 4090 -2000 1310 4090 2000 1280 4090 2000 1280 4090 -2000 1310 4090 2000 1280 90 2000 1280 4090 2000 1310 4090 2000 1310 90 2000 1280 90 2000 1310 90 2000 1310 90 -2000 1280 90 -2000 1310 90 2000 1280 90 -2000 1280 90 2000 1281.34 65 -2020 1280 70 -2020 1281.34 70 -2025 1290 60 -2020 1285 61.3397 -2020 1290 61.3397 -2025 1285.17 68.7059 -2028.66 1285 70 -2028.66 1290 70 -2030 1285.17 68.7059 -2028.66 1281.34 70 -2025 1285 70 -2028.66 1286.46 66.4645 -2028.66 1290 70 -2030 1290 70 -2030 1286.46 66.4645 -2028.66 1285.17 68.7059 -2028.66 1290 70 -2030 1288.71 65.1704 -2028.66 1290 70 -2030 1290 65 -2028.66 1288.71 65.1704 -2028.66 1290 65 -2028.66 1290 61.3397 -2025 1288.71 65.1704 -2028.66 1286.46 66.4645 -2028.66 1290 70 -2030 1282.5 65.6699 -2025 1281.34 70 -2025 1285.17 68.7059 -2028.66 1282.5 65.6699 -2025 1285.17 68.7059 -2028.66 1286.46 66.4645 -2028.66 1282.5 65.6699 -2025 1281.34 65 -2020 1281.34 70 -2025 1285.67 62.5 -2025 1285 61.3397 -2020 1281.34 65 -2020 1285.67 62.5 -2025 1282.5 65.6699 -2025 1286.46 66.4645 -2028.66 1285.67 62.5 -2025 1281.34 65 -2020 1282.5 65.6699 -2025 1285.67 62.5 -2025 1288.71 65.1704 -2028.66 1290 61.3397 -2025 1285.67 62.5 -2025 1290 61.3397 -2025 1285 61.3397 -2020 1285.67 62.5 -2025 1286.46 66.4645 -2028.66 1288.71 65.1704 -2028.66 1281.34 65 2020 1281.34 70 2025 1280 70 2020 1290 60 2020 1290 61.3397 2025 1285 61.3397 2020 1285.17 68.7059 2028.66 1290 70 2030 1285 70 2028.66 1285.17 68.7059 2028.66 1285 70 2028.66 1281.34 70 2025 1286.46 66.4645 2028.66 1290 70 2030 1290 70 2030 1286.46 66.4645 2028.66 1290 70 2030 1285.17 68.7059 2028.66 1288.71 65.1704 2028.66 1290 65 2028.66 1290 70 2030 1288.71 65.1704 2028.66 1290 61.3397 2025 1290 65 2028.66 1288.71 65.1704 2028.66 1290 70 2030 1286.46 66.4645 2028.66 1282.5 65.6699 2025 1285.17 68.7059 2028.66 1281.34 70 2025 1282.5 65.6699 2025 1286.46 66.4645 2028.66 1285.17 68.7059 2028.66 1282.5 65.6699 2025 1281.34 70 2025 1281.34 65 2020 1285.67 62.5 2025 1281.34 65 2020 1285 61.3397 2020 1285.67 62.5 2025 1286.46 66.4645 2028.66 1282.5 65.6699 2025 1285.67 62.5 2025 1282.5 65.6699 2025 1281.34 65 2020 1285.67 62.5 2025 1290 61.3397 2025 1288.71 65.1704 2028.66 1285.67 62.5 2025 1285 61.3397 2020 1290 61.3397 2025 1285.67 62.5 2025 1288.71 65.1704 2028.66 1286.46 66.4645 2028.66 1290 60 2020 1290 60 -2020 1820 60 -2020 1820 60 2020 1290 60 2020 1820 60 -2020 1290 4110 -2030 1820 70 -2030 1290 70 -2030 1820 4110 -2030 1820 70 -2030 1290 4110 -2030 1281.34 4115 -2020 1281.34 4110 -2025 1280 4110 -2020 1285.17 4111.29 -2028.66 1290 4110 -2030 1285 4110 -2028.66 1285.17 4111.29 -2028.66 1285 4110 -2028.66 1281.34 4110 -2025 1286.46 4113.54 -2028.66 1290 4110 -2030 1290 4110 -2030 1286.46 4113.54 -2028.66 1290 4110 -2030 1285.17 4111.29 -2028.66 1288.71 4114.83 -2028.66 1290 4115 -2028.66 1290 4110 -2030 1288.71 4114.83 -2028.66 1290 4118.66 -2025 1290 4115 -2028.66 1288.71 4114.83 -2028.66 1290 4110 -2030 1286.46 4113.54 -2028.66 1282.5 4114.33 -2025 1285.17 4111.29 -2028.66 1281.34 4110 -2025 1282.5 4114.33 -2025 1286.46 4113.54 -2028.66 1285.17 4111.29 -2028.66 1282.5 4114.33 -2025 1281.34 4110 -2025 1281.34 4115 -2020 1285.67 4117.5 -2025 1290 4120 -2020 1290 4118.66 -2025 1285.67 4117.5 -2025 1281.34 4115 -2020 1285 4118.66 -2020 1285.67 4117.5 -2025 1285 4118.66 -2020 1290 4120 -2020 1285.67 4117.5 -2025 1282.5 4114.33 -2025 1281.34 4115 -2020 1285.67 4117.5 -2025 1286.46 4113.54 -2028.66 1282.5 4114.33 -2025 1285.67 4117.5 -2025 1290 4118.66 -2025 1288.71 4114.83 -2028.66 1285.67 4117.5 -2025 1288.71 4114.83 -2028.66 1286.46 4113.54 -2028.66 1290 4110 2030 1290 70 2030 1820 70 2030 1820 4110 2030 1290 4110 2030 1820 70 2030 1281.34 4110 2025 1281.34 4115 2020 1280 4110 2020 1290 4110 2030 1290 4115 2028.66 1285 4110 2028.66 1285.17 4118.66 2021.29 1290 4120 2020 1285 4118.66 2020 1285.17 4118.66 2021.29 1285 4118.66 2020 1281.34 4115 2020 1286.46 4118.66 2023.54 1290 4120 2020 1290 4120 2020 1286.46 4118.66 2023.54 1290 4120 2020 1285.17 4118.66 2021.29 1288.71 4118.66 2024.83 1290 4118.66 2025 1290 4120 2020 1288.71 4118.66 2024.83 1290 4115 2028.66 1290 4118.66 2025 1288.71 4118.66 2024.83 1290 4120 2020 1286.46 4118.66 2023.54 1282.5 4115 2024.33 1285.17 4118.66 2021.29 1281.34 4115 2020 1282.5 4115 2024.33 1286.46 4118.66 2023.54 1285.17 4118.66 2021.29 1282.5 4115 2024.33 1281.34 4115 2020 1281.34 4110 2025 1285.67 4115 2027.5 1281.34 4110 2025 1285 4110 2028.66 1285.67 4115 2027.5 1286.46 4118.66 2023.54 1282.5 4115 2024.33 1285.67 4115 2027.5 1282.5 4115 2024.33 1281.34 4110 2025 1285.67 4115 2027.5 1290 4115 2028.66 1288.71 4118.66 2024.83 1285.67 4115 2027.5 1285 4110 2028.66 1290 4115 2028.66 1285.67 4115 2027.5 1288.71 4118.66 2024.83 1286.46 4118.66 2023.54 1290 4120 2020 1820 4120 -2020 1290 4120 -2020 1820 4120 2020 1820 4120 -2020 1290 4120 2020 1310 90 -2000 1310 70 -2020 1310 4110 -2020 1310 90 -2000 1310 4110 -2020 1310 4090 -2000 1310 4110 2020 1310 4090 2000 1310 4090 -2000 1310 4110 2020 1310 4090 -2000 1310 4110 -2020 1310 70 2020 1310 90 2000 1310 4090 2000 1310 70 2020 1310 4090 2000 1310 4110 2020 1310 70 2020 1310 70 -2020 1310 90 -2000 1310 70 2020 1310 90 -2000 1310 90 2000 1820 61.3397 -2025 1290 60 -2020 1290 61.3397 -2025 1820 61.3397 -2025 1820 60 -2020 1290 60 -2020 1820 65 -2028.66 1290 61.3397 -2025 1290 65 -2028.66 1820 65 -2028.66 1820 61.3397 -2025 1290 61.3397 -2025 1820 70 -2030 1290 65 -2028.66 1290 70 -2030 1820 70 -2030 1820 65 -2028.66 1290 65 -2028.66 1820 61.3397 2025 1290 61.3397 2025 1290 60 2020 1820 61.3397 2025 1290 60 2020 1820 60 2020 1820 65 2028.66 1290 65 2028.66 1290 61.3397 2025 1820 65 2028.66 1290 61.3397 2025 1820 61.3397 2025 1820 70 2030 1290 70 2030 1290 65 2028.66 1820 70 2030 1290 65 2028.66 1820 65 2028.66 1828.66 65 2020 1830 70 -2020 1830 70 2020 1828.66 65 2020 1828.66 65 -2020 1830 70 -2020 1825 61.3397 2020 1825 61.3397 -2020 1828.66 65 -2020 1825 61.3397 2020 1828.66 65 -2020 1828.66 65 2020 1820 60 2020 1820 60 -2020 1825 61.3397 -2020 1820 60 2020 1825 61.3397 -2020 1825 61.3397 2020 1820 4118.66 -2025 1290 4118.66 -2025 1290 4120 -2020 1820 4118.66 -2025 1290 4120 -2020 1820 4120 -2020 1820 4115 -2028.66 1290 4115 -2028.66 1290 4118.66 -2025 1820 4115 -2028.66 1290 4118.66 -2025 1820 4118.66 -2025 1820 4110 -2030 1290 4110 -2030 1290 4115 -2028.66 1820 4110 -2030 1290 4115 -2028.66 1820 4115 -2028.66 1828.66 4110 -2025 1828.66 70 -2025 1825 70 -2028.66 1828.66 4110 -2025 1830 70 -2020 1828.66 70 -2025 1828.66 4110 -2025 1830 4110 -2020 1830 70 -2020 1825 4110 -2028.66 1828.66 4110 -2025 1825 70 -2028.66 1820 4110 -2030 1825 70 -2028.66 1820 70 -2030 1820 4110 -2030 1825 4110 -2028.66 1825 70 -2028.66 1820 4118.66 2025 1290 4120 2020 1290 4118.66 2025 1820 4118.66 2025 1820 4120 2020 1290 4120 2020 1820 4115 2028.66 1290 4118.66 2025 1290 4115 2028.66 1820 4115 2028.66 1290 4115 2028.66 1290 4110 2030 1820 4115 2028.66 1820 4118.66 2025 1290 4118.66 2025 1820 4110 2030 1820 4115 2028.66 1290 4110 2030 1830 4110 2020 1828.66 70 2025 1830 70 2020 1828.66 4110 2025 1825 70 2028.66 1828.66 70 2025 1828.66 4110 2025 1828.66 70 2025 1830 4110 2020 1825 4110 2028.66 1820 70 2030 1825 70 2028.66 1825 4110 2028.66 1825 70 2028.66 1828.66 4110 2025 1820 4110 2030 1820 70 2030 1825 4110 2028.66 1828.66 4115 2020 1830 4110 2020 1830 4110 -2020 1828.66 4115 2020 1830 4110 -2020 1828.66 4115 -2020 1825 4118.66 2020 1828.66 4115 -2020 1825 4118.66 -2020 1825 4118.66 2020 1828.66 4115 2020 1828.66 4115 -2020 1820 4120 2020 1825 4118.66 -2020 1820 4120 -2020 1820 4120 2020 1825 4118.66 2020 1825 4118.66 -2020 1310 70 2020 1820 70 -2020 1310 70 -2020 1820 70 2020 1820 70 -2020 1310 70 2020 1310 4110 2020 1820 70 2020 1310 70 2020 1820 4110 2020 1820 70 2020 1310 4110 2020 1310 4110 -2020 1310 70 -2020 1820 70 -2020 1820 4110 -2020 1310 4110 -2020 1820 70 -2020 1310 4110 2020 1310 4110 -2020 1820 4110 -2020 1820 4110 2020 1310 4110 2020 1820 4110 -2020 1828.66 65 -2020 1828.66 70 -2025 1830 70 -2020 1820 60 -2020 1820 61.3397 -2025 1825 61.3397 -2020 1824.83 68.7059 -2028.66 1820 70 -2030 1825 70 -2028.66 1824.83 68.7059 -2028.66 1825 70 -2028.66 1828.66 70 -2025 1823.54 66.4645 -2028.66 1820 70 -2030 1820 70 -2030 1823.54 66.4645 -2028.66 1820 70 -2030 1824.83 68.7059 -2028.66 1821.29 65.1704 -2028.66 1820 65 -2028.66 1820 70 -2030 1821.29 65.1704 -2028.66 1820 61.3397 -2025 1820 65 -2028.66 1821.29 65.1704 -2028.66 1820 70 -2030 1823.54 66.4645 -2028.66 1827.5 65.6699 -2025 1824.83 68.7059 -2028.66 1828.66 70 -2025 1827.5 65.6699 -2025 1823.54 66.4645 -2028.66 1824.83 68.7059 -2028.66 1827.5 65.6699 -2025 1828.66 70 -2025 1828.66 65 -2020 1824.33 62.5 -2025 1828.66 65 -2020 1825 61.3397 -2020 1824.33 62.5 -2025 1823.54 66.4645 -2028.66 1827.5 65.6699 -2025 1824.33 62.5 -2025 1827.5 65.6699 -2025 1828.66 65 -2020 1824.33 62.5 -2025 1820 61.3397 -2025 1821.29 65.1704 -2028.66 1824.33 62.5 -2025 1825 61.3397 -2020 1820 61.3397 -2025 1824.33 62.5 -2025 1821.29 65.1704 -2028.66 1823.54 66.4645 -2028.66 1828.66 65 2020 1830 70 2020 1828.66 70 2025 1820 60 2020 1825 61.3397 2020 1820 61.3397 2025 1824.83 68.7059 2028.66 1825 70 2028.66 1820 70 2030 1824.83 68.7059 2028.66 1828.66 70 2025 1825 70 2028.66 1823.54 66.4645 2028.66 1820 70 2030 1820 70 2030 1823.54 66.4645 2028.66 1824.83 68.7059 2028.66 1820 70 2030 1821.29 65.1704 2028.66 1820 70 2030 1820 65 2028.66 1821.29 65.1704 2028.66 1820 65 2028.66 1820 61.3397 2025 1821.29 65.1704 2028.66 1823.54 66.4645 2028.66 1820 70 2030 1827.5 65.6699 2025 1828.66 70 2025 1824.83 68.7059 2028.66 1827.5 65.6699 2025 1824.83 68.7059 2028.66 1823.54 66.4645 2028.66 1827.5 65.6699 2025 1828.66 65 2020 1828.66 70 2025 1824.33 62.5 2025 1825 61.3397 2020 1828.66 65 2020 1824.33 62.5 2025 1827.5 65.6699 2025 1823.54 66.4645 2028.66 1824.33 62.5 2025 1828.66 65 2020 1827.5 65.6699 2025 1824.33 62.5 2025 1821.29 65.1704 2028.66 1820 61.3397 2025 1824.33 62.5 2025 1820 61.3397 2025 1825 61.3397 2020 1824.33 62.5 2025 1823.54 66.4645 2028.66 1821.29 65.1704 2028.66 1830 4110 2020 1830 70 -2020 1830 4110 -2020 1830 70 2020 1830 70 -2020 1830 4110 2020 1828.66 4115 -2020 1830 4110 -2020 1828.66 4110 -2025 1824.83 4111.29 -2028.66 1825 4110 -2028.66 1820 4110 -2030 1824.83 4111.29 -2028.66 1828.66 4110 -2025 1825 4110 -2028.66 1823.54 4113.54 -2028.66 1820 4110 -2030 1820 4110 -2030 1823.54 4113.54 -2028.66 1824.83 4111.29 -2028.66 1820 4110 -2030 1821.29 4114.83 -2028.66 1820 4110 -2030 1820 4115 -2028.66 1821.29 4114.83 -2028.66 1820 4115 -2028.66 1820 4118.66 -2025 1821.29 4114.83 -2028.66 1823.54 4113.54 -2028.66 1820 4110 -2030 1827.5 4114.33 -2025 1828.66 4110 -2025 1824.83 4111.29 -2028.66 1827.5 4114.33 -2025 1824.83 4111.29 -2028.66 1823.54 4113.54 -2028.66 1827.5 4114.33 -2025 1828.66 4115 -2020 1828.66 4110 -2025 1824.33 4117.5 -2025 1820 4118.66 -2025 1820 4120 -2020 1824.33 4117.5 -2025 1825 4118.66 -2020 1828.66 4115 -2020 1824.33 4117.5 -2025 1820 4120 -2020 1825 4118.66 -2020 1824.33 4117.5 -2025 1828.66 4115 -2020 1827.5 4114.33 -2025 1824.33 4117.5 -2025 1827.5 4114.33 -2025 1823.54 4113.54 -2028.66 1824.33 4117.5 -2025 1821.29 4114.83 -2028.66 1820 4118.66 -2025 1824.33 4117.5 -2025 1823.54 4113.54 -2028.66 1821.29 4114.83 -2028.66 1828.66 4110 2025 1830 4110 2020 1828.66 4115 2020 1820 4110 2030 1825 4110 2028.66 1820 4115 2028.66 1824.83 4118.66 2021.29 1825 4118.66 2020 1820 4120 2020 1824.83 4118.66 2021.29 1828.66 4115 2020 1825 4118.66 2020 1823.54 4118.66 2023.54 1820 4120 2020 1820 4120 2020 1823.54 4118.66 2023.54 1824.83 4118.66 2021.29 1820 4120 2020 1821.29 4118.66 2024.83 1820 4120 2020 1820 4118.66 2025 1821.29 4118.66 2024.83 1820 4118.66 2025 1820 4115 2028.66 1821.29 4118.66 2024.83 1823.54 4118.66 2023.54 1820 4120 2020 1827.5 4115 2024.33 1828.66 4115 2020 1824.83 4118.66 2021.29 1827.5 4115 2024.33 1824.83 4118.66 2021.29 1823.54 4118.66 2023.54 1827.5 4115 2024.33 1828.66 4110 2025 1828.66 4115 2020 1824.33 4115 2027.5 1825 4110 2028.66 1828.66 4110 2025 1824.33 4115 2027.5 1827.5 4115 2024.33 1823.54 4118.66 2023.54 1824.33 4115 2027.5 1828.66 4110 2025 1827.5 4115 2024.33 1824.33 4115 2027.5 1821.29 4118.66 2024.83 1820 4115 2028.66 1824.33 4115 2027.5 1820 4115 2028.66 1825 4110 2028.66 1824.33 4115 2027.5 1823.54 4118.66 2023.54 1821.29 4118.66 2024.83 1820 4110 2020 1820 4110 -2020 1820 70 -2020 1820 70 2020 1820 4110 2020 1820 70 -2020 " />
<Normal vector="-1 0 0 -1 0 0 -1 0 0 -1 0 0 -1 0 0 -1 0 0 -1 0 0 -1 0 0 -1 0 0 -1 0 0 -1 0 0 -1 0 0 -1 0 0 -1 0 0 -1 0 0 -1 0 0 -1 0 0 -1 0 0 -1 0 0 -1 0 0 -1 0 0 -1 0 0 -1 0 0 -1 0 0 -0.866025 -0.5 0 -1 0 0 -1 0 0 -0.866025 -0.5 0 -1 0 0 -0.866025 -0.5 0 -0.5 -0.866025 0 -0.866025 -0.5 0 -0.5 -0.866025 0 -0.5 -0.866025 0 -0.866025 -0.5 0 -0.866025 -0.5 0 0 -1 0 -0.5 -0.866025 0 0 -1 0 0 -1 0 -0.5 -0.866025 0 -0.5 -0.866025 0 -0.866025 0 -0.5 -0.5 0 -0.866025 -0.866025 0 -0.5 -0.866025 0 -0.5 -0.866025 0 -0.5 -1 0 0 -0.866025 0 -0.5 -1 0 0 -1 0 0 -0.5 0 -0.866025 -0.5 0 -0.866025 -0.866025 0 -0.5 0 0 -1 0 0 -1 -0.5 0 -0.866025 0 0 -1 -0.5 0 -0.866025 -0.5 0 -0.866025 -1 0 0 -1 0 0 -0.866025 0 0.5 -0.866025 0 0.5 -0.866025 0 0.5 -0.5 0 0.866025 -0.866025 0 0.5 -1 0 0 -0.866025 0 0.5 -0.5 0 0.866025 -0.5 0 0.866025 0 0 1 -0.5 0 0.866025 -0.866025 0 0.5 -0.5 0 0.866025 0 0 1 -0.5 0 0.866025 0 0 1 -0.866025 0.5 0 -1 0 0 -1 0 0 -0.866025 0.5 0 -0.866025 0.5 0 -1 0 0 -0.5 0.866025 0 -0.5 0.866025 0 -0.866025 0.5 0 -0.5 0.866025 0 -0.866025 0.5 0 -0.866025 0.5 0 0 1 0 0 1 0 -0.5 0.866025 0 0 1 0 -0.5 0.866025 0 -0.5 0.866025 0 0 0 1 0 0 1 0 0 1 0 0 1 0 0 1 0 0 1 0 -1 0 0 -1 0 0 -1 0 0 -1 0 0 -1 0 0 -1 0 0 0 -1 0 0 -1 0 0 -1 0 0 -1 0 0 -1 0 0 -1 0 1 0 0 1 0 0 1 0 0 1 0 0 1 0 0 1 0 -0.866025 -0.5 0 -1 0 0 -0.866025 0 -0.5 0 -1 0 -0.5 -0.866025 0 0 -0.866025 -0.5 -0.482963 -0.12941 -0.866025 -0.5 0 -0.866025 0 0 -1 -0.482963 -0.12941 -0.866025 -0.866025 0 -0.5 -0.5 0 -0.866025 -0.353553 -0.353553 -0.866025 0 0 -1 0 0 -1 -0.353553 -0.353553 -0.866025 -0.482963 -0.12941 -0.866025 0 0 -1 -0.12941 -0.482963 -0.866025 0 0 -1 0 -0.5 -0.866025 -0.12941 -0.482963 -0.866025 0 -0.5 -0.866025 0 -0.866025 -0.5 -0.12941 -0.482963 -0.866025 -0.353553 -0.353553 -0.866025 0 0 -1 -0.75 -0.433013 -0.5 -0.866025 0 -0.5 -0.482963 -0.12941 -0.866025 -0.75 -0.433013 -0.5 -0.482963 -0.12941 -0.866025 -0.353553 -0.353553 -0.866025 -0.75 -0.433013 -0.5 -0.866025 -0.5 0 -0.866025 0 -0.5 -0.433013 -0.75 -0.5 -0.5 -0.866025 0 -0.866025 -0.5 0 -0.433013 -0.75 -0.5 -0.75 -0.433013 -0.5 -0.353553 -0.353553 -0.866025 -0.433013 -0.75 -0.5 -0.866025 -0.5 0 -0.75 -0.433013 -0.5 -0.433013 -0.75 -0.5 -0.12941 -0.482963 -0.866025 0 -0.866025 -0.5 -0.433013 -0.75 -0.5 0 -0.866025 -0.5 -0.5 -0.866025 0 -0.433013 -0.75 -0.5 -0.353553 -0.353553 -0.866025 -0.12941 -0.482963 -0.866025 -0.866025 -0.5 0 -0.866025 0 0.5 -1 0 0 0 -1 0 0 -0.866025 0.5 -0.5 -0.866025 0 -0.482963 -0.12941 0.866025 0 0 1 -0.5 0 0.866025 -0.482963 -0.12941 0.866025 -0.5 0 0.866025 -0.866025 0 0.5 -0.353553 -0.353553 0.866025 0 0 1 0 0 1 -0.353553 -0.353553 0.866025 0 0 1 -0.482963 -0.12941 0.866025 -0.12941 -0.482963 0.866025 0 -0.5 0.866025 0 0 1 -0.12941 -0.482963 0.866025 0 -0.866025 0.5 0 -0.5 0.866025 -0.12941 -0.482963 0.866025 0 0 1 -0.353553 -0.353553 0.866025 -0.75 -0.433013 0.5 -0.482963 -0.12941 0.866025 -0.866025 0 0.5 -0.75 -0.433013 0.5 -0.353553 -0.353553 0.866025 -0.482963 -0.12941 0.866025 -0.75 -0.433013 0.5 -0.866025 0 0.5 -0.866025 -0.5 0 -0.433013 -0.75 0.5 -0.866025 -0.5 0 -0.5 -0.866025 0 -0.433013 -0.75 0.5 -0.353553 -0.353553 0.866025 -0.75 -0.433013 0.5 -0.433013 -0.75 0.5 -0.75 -0.433013 0.5 -0.866025 -0.5 0 -0.433013 -0.75 0.5 0 -0.866025 0.5 -0.12941 -0.482963 0.866025 -0.433013 -0.75 0.5 -0.5 -0.866025 0 0 -0.866025 0.5 -0.433013 -0.75 0.5 -0.12941 -0.482963 0.866025 -0.353553 -0.353553 0.866025 0 -1 0 0 -1 0 0 -1 0 0 -1 0 0 -1 0 0 -1 0 0 0 -1 0 0 -1 0 0 -1 0 0 -1 0 0 -1 0 0 -1 -0.866025 0.5 0 -0.866025 0 -0.5 -1 0 0 -0.482963 0.12941 -0.866025 0 0 -1 -0.5 0 -0.866025 -0.482963 0.12941 -0.866025 -0.5 0 -0.866025 -0.866025 0 -0.5 -0.353553 0.353553 -0.866025 0 0 -1 0 0 -1 -0.353553 0.353553 -0.866025 0 0 -1 -0.482963 0.12941 -0.866025 -0.12941 0.482963 -0.866025 0 0.5 -0.866025 0 0 -1 -0.12941 0.482963 -0.866025 0 0.866025 -0.5 0 0.5 -0.866025 -0.12941 0.482963 -0.866025 0 0 -1 -0.353553 0.353553 -0.866025 -0.75 0.433013 -0.5 -0.482963 0.12941 -0.866025 -0.866025 0 -0.5 -0.75 0.433013 -0.5 -0.353553 0.353553 -0.866025 -0.482963 0.12941 -0.866025 -0.75 0.433013 -0.5 -0.866025 0 -0.5 -0.866025 0.5 0 -0.433013 0.75 -0.5 0 1 0 0 0.866025 -0.5 -0.433013 0.75 -0.5 -0.866025 0.5 0 -0.5 0.866025 0 -0.433013 0.75 -0.5 -0.5 0.866025 0 0 1 0 -0.433013 0.75 -0.5 -0.75 0.433013 -0.5 -0.866025 0.5 0 -0.433013 0.75 -0.5 -0.353553 0.353553 -0.866025 -0.75 0.433013 -0.5 -0.433013 0.75 -0.5 0 0.866025 -0.5 -0.12941 0.482963 -0.866025 -0.433013 0.75 -0.5 -0.12941 0.482963 -0.866025 -0.353553 0.353553 -0.866025 0 0 1 0 0 1 0 0 1 0 0 1 0 0 1 0 0 1 -0.866025 0 0.5 -0.866025 0.5 0 -1 0 0 0 0 1 0 0.5 0.866025 -0.5 0 0.866025 -0.482963 0.866025 0.12941 0 1 0 -0.5 0.866025 0 -0.482963 0.866025 0.12941 -0.5 0.866025 0 -0.866025 0.5 0 -0.353553 0.866025 0.353553 0 1 0 0 1 0 -0.353553 0.866025 0.353553 0 1 0 -0.482963 0.866025 0.12941 -0.12941 0.866025 0.482963 0 0.866025 0.5 0 1 0 -0.12941 0.866025 0.482963 0 0.5 0.866025 0 0.866025 0.5 -0.12941 0.866025 0.482963 0 1 0 -0.353553 0.866025 0.353553 -0.75 0.5 0.433013 -0.482963 0.866025 0.12941 -0.866025 0.5 0 -0.75 0.5 0.433013 -0.353553 0.866025 0.353553 -0.482963 0.866025 0.12941 -0.75 0.5 0.433013 -0.866025 0.5 0 -0.866025 0 0.5 -0.433013 0.5 0.75 -0.866025 0 0.5 -0.5 0 0.866025 -0.433013 0.5 0.75 -0.353553 0.866025 0.353553 -0.75 0.5 0.433013 -0.433013 0.5 0.75 -0.75 0.5 0.433013 -0.866025 0 0.5 -0.433013 0.5 0.75 0 0.5 0.866025 -0.12941 0.866025 0.482963 -0.433013 0.5 0.75 -0.5 0 0.866025 0 0.5 0.866025 -0.433013 0.5 0.75 -0.12941 0.866025 0.482963 -0.353553 0.866025 0.353553 0 1 0 0 1 0 0 1 0 0 1 0 0 1 0 0 1 0 1 0 0 1 0 0 1 0 0 1 0 0 1 0 0 1 0 0 1 0 0 1 0 0 1 0 0 1 0 0 1 0 0 1 0 0 1 0 0 1 0 0 1 0 0 1 0 0 1 0 0 1 0 0 1 0 0 1 0 0 1 0 0 1 0 0 1 0 0 1 0 0 0 -0.866025 -0.5 0 -1 0 0 -0.866025 -0.5 0 -0.866025 -0.5 0 -1 0 0 -1 0 0 -0.5 -0.866025 0 -0.866025 -0.5 0 -0.5 -0.866025 0 -0.5 -0.866025 0 -0.866025 -0.5 0 -0.866025 -0.5 0 0 -1 0 -0.5 -0.866025 0 0 -1 0 0 -1 0 -0.5 -0.866025 0 -0.5 -0.866025 0 -0.866025 0.5 0 -0.866025 0.5 0 -1 0 0 -0.866025 0.5 0 -1 0 0 -1 0 0 -0.5 0.866025 0 -0.5 0.866025 0 -0.866025 0.5 0 -0.5 0.866025 0 -0.866025 0.5 0 -0.866025 0.5 0 0 1 0 0 1 0 -0.5 0.866025 0 0 1 0 -0.5 0.866025 0 -0.5 0.866025 0.866025 -0.5 0 1 0 0 1 0 0 0.866025 -0.5 0 0.866025 -0.5 0 1 0 0 0.5 -0.866025 0 0.5 -0.866025 0 0.866025 -0.5 0 0.5 -0.866025 0 0.866025 -0.5 0 0.866025 -0.5 0 0 -1 0 0 -1 0 0.5 -0.866025 0 0 -1 0 0.5 -0.866025 0 0.5 -0.866025 0 0 0.866025 -0.5 0 0.866025 -0.5 0 1 0 0 0.866025 -0.5 0 1 0 0 1 0 0 0.5 -0.866025 0 0.5 -0.866025 0 0.866025 -0.5 0 0.5 -0.866025 0 0.866025 -0.5 0 0.866025 -0.5 0 0 -1 0 0 -1 0 0.5 -0.866025 0 0 -1 0 0.5 -0.866025 0 0.5 -0.866025 0.866025 0 -0.5 0.866025 0 -0.5 0.5 0 -0.866025 0.866025 0 -0.5 1 0 0 0.866025 0 -0.5 0.866025 0 -0.5 1 0 0 1 0 0 0.5 0 -0.866025 0.866025 0 -0.5 0.5 0 -0.866025 0 0 -1 0.5 0 -0.866025 0 0 -1 0 0 -1 0.5 0 -0.866025 0.5 0 -0.866025 0 0.866025 0.5 0 1 0 0 0.866025 0.5 0 0.866025 0.5 0 1 0 0 1 0 0 0.5 0.866025 0 0.866025 0.5 0 0.5 0.866025 0 0.5 0.866025 0 0.5 0.866025 0 0 1 0 0.5 0.866025 0 0.866025 0.5 0 0.866025 0.5 0 0 1 0 0.5 0.866025 0 0 1 1 0 0 0.866025 0 0.5 1 0 0 0.866025 0 0.5 0.5 0 0.866025 0.866025 0 0.5 0.866025 0 0.5 0.866025 0 0.5 1 0 0 0.5 0 0.866025 0 0 1 0.5 0 0.866025 0.5 0 0.866025 0.5 0 0.866025 0.866025 0 0.5 0 0 1 0 0 1 0.5 0 0.866025 0.866025 0.5 0 1 0 0 1 0 0 0.866025 0.5 0 1 0 0 0.866025 0.5 0 0.5 0.866025 0 0.866025 0.5 0 0.5 0.866025 0 0.5 0.866025 0 0.866025 0.5 0 0.866025 0.5 0 0 1 0 0.5 0.866025 0 0 1 0 0 1 0 0.5 0.866025 0 0.5 0.866025 0 0 1 0 0 1 0 0 1 0 0 1 0 0 1 0 0 1 0 0 0 -1 0 0 -1 0 0 -1 0 0 -1 0 0 -1 0 0 -1 0 0 1 0 0 1 0 0 1 0 0 1 0 0 1 0 0 1 0 -1 0 0 -1 0 0 -1 0 0 -1 0 0 -1 0 0 -1 0 0.866025 -0.5 0 0.866025 0 -0.5 1 0 0 0 -1 0 0 -0.866025 -0.5 0.5 -0.866025 0 0.482963 -0.12941 -0.866025 0 0 -1 0.5 0 -0.866025 0.482963 -0.12941 -0.866025 0.5 0 -0.866025 0.866025 0 -0.5 0.353553 -0.353553 -0.866025 0 0 -1 0 0 -1 0.353553 -0.353553 -0.866025 0 0 -1 0.482963 -0.12941 -0.866025 0.12941 -0.482963 -0.866025 0 -0.5 -0.866025 0 0 -1 0.12941 -0.482963 -0.866025 0 -0.866025 -0.5 0 -0.5 -0.866025 0.12941 -0.482963 -0.866025 0 0 -1 0.353553 -0.353553 -0.866025 0.75 -0.433013 -0.5 0.482963 -0.12941 -0.866025 0.866025 0 -0.5 0.75 -0.433013 -0.5 0.353553 -0.353553 -0.866025 0.482963 -0.12941 -0.866025 0.75 -0.433013 -0.5 0.866025 0 -0.5 0.866025 -0.5 0 0.433013 -0.75 -0.5 0.866025 -0.5 0 0.5 -0.866025 0 0.433013 -0.75 -0.5 0.353553 -0.353553 -0.866025 0.75 -0.433013 -0.5 0.433013 -0.75 -0.5 0.75 -0.433013 -0.5 0.866025 -0.5 0 0.433013 -0.75 -0.5 0 -0.866025 -0.5 0.12941 -0.482963 -0.866025 0.433013 -0.75 -0.5 0.5 -0.866025 0 0 -0.866025 -0.5 0.433013 -0.75 -0.5 0.12941 -0.482963 -0.866025 0.353553 -0.353553 -0.866025 0.866025 -0.5 0 1 0 0 0.866025 0 0.5 0 -1 0 0.5 -0.866025 0 0 -0.866025 0.5 0.482963 -0.12941 0.866025 0.5 0 0.866025 0 0 1 0.482963 -0.12941 0.866025 0.866025 0 0.5 0.5 0 0.866025 0.353553 -0.353553 0.866025 0 0 1 0 0 1 0.353553 -0.353553 0.866025 0.482963 -0.12941 0.866025 0 0 1 0.12941 -0.482963 0.866025 0 0 1 0 -0.5 0.866025 0.12941 -0.482963 0.866025 0 -0.5 0.866025 0 -0.866025 0.5 0.12941 -0.482963 0.866025 0.353553 -0.353553 0.866025 0 0 1 0.75 -0.433013 0.5 0.866025 0 0.5 0.482963 -0.12941 0.866025 0.75 -0.433013 0.5 0.482963 -0.12941 0.866025 0.353553 -0.353553 0.866025 0.75 -0.433013 0.5 0.866025 -0.5 0 0.866025 0 0.5 0.433013 -0.75 0.5 0.5 -0.866025 0 0.866025 -0.5 0 0.433013 -0.75 0.5 0.75 -0.433013 0.5 0.353553 -0.353553 0.866025 0.433013 -0.75 0.5 0.866025 -0.5 0 0.75 -0.433013 0.5 0.433013 -0.75 0.5 0.12941 -0.482963 0.866025 0 -0.866025 0.5 0.433013 -0.75 0.5 0 -0.866025 0.5 0.5 -0.866025 0 0.433013 -0.75 0.5 0.353553 -0.353553 0.866025 0.12941 -0.482963 0.866025 1 0 0 1 0 0 1 0 0 1 0 0 1 0 0 1 0 0 0.866025 0.5 0 1 0 0 0.866025 0 -0.5 0.482963 0.12941 -0.866025 0.5 0 -0.866025 0 0 -1 0.482963 0.12941 -0.866025 0.866025 0 -0.5 0.5 0 -0.866025 0.353553 0.353553 -0.866025 0 0 -1 0 0 -1 0.353553 0.353553 -0.866025 0.482963 0.12941 -0.866025 0 0 -1 0.12941 0.482963 -0.866025 0 0 -1 0 0.5 -0.866025 0.12941 0.482963 -0.866025 0 0.5 -0.866025 0 0.866025 -0.5 0.12941 0.482963 -0.866025 0.353553 0.353553 -0.866025 0 0 -1 0.75 0.433013 -0.5 0.866025 0 -0.5 0.482963 0.12941 -0.866025 0.75 0.433013 -0.5 0.482963 0.12941 -0.866025 0.353553 0.353553 -0.866025 0.75 0.433013 -0.5 0.866025 0.5 0 0.866025 0 -0.5 0.433013 0.75 -0.5 0 0.866025 -0.5 0 1 0 0.433013 0.75 -0.5 0.5 0.866025 0 0.866025 0.5 0 0.433013 0.75 -0.5 0 1 0 0.5 0.866025 0 0.433013 0.75 -0.5 0.866025 0.5 0 0.75 0.433013 -0.5 0.433013 0.75 -0.5 0.75 0.433013 -0.5 0.353553 0.353553 -0.866025 0.433013 0.75 -0.5 0.12941 0.482963 -0.866025 0 0.866025 -0.5 0.433013 0.75 -0.5 0.353553 0.353553 -0.866025 0.12941 0.482963 -0.866025 0.866025 0 0.5 1 0 0 0.866025 0.5 0 0 0 1 0.5 0 0.866025 0 0.5 0.866025 0.482963 0.866025 0.12941 0.5 0.866025 0 0 1 0 0.482963 0.866025 0.12941 0.866025 0.5 0 0.5 0.866025 0 0.353553 0.866025 0.353553 0 1 0 0 1 0 0.353553 0.866025 0.353553 0.482963 0.866025 0.12941 0 1 0 0.12941 0.866025 0.482963 0 1 0 0 0.866025 0.5 0.12941 0.866025 0.482963 0 0.866025 0.5 0 0.5 0.866025 0.12941 0.866025 0.482963 0.353553 0.866025 0.353553 0 1 0 0.75 0.5 0.433013 0.866025 0.5 0 0.482963 0.866025 0.12941 0.75 0.5 0.433013 0.482963 0.866025 0.12941 0.353553 0.866025 0.353553 0.75 0.5 0.433013 0.866025 0 0.5 0.866025 0.5 0 0.433013 0.5 0.75 0.5 0 0.866025 0.866025 0 0.5 0.433013 0.5 0.75 0.75 0.5 0.433013 0.353553 0.866025 0.353553 0.433013 0.5 0.75 0.866025 0 0.5 0.75 0.5 0.433013 0.433013 0.5 0.75 0.12941 0.866025 0.482963 0 0.5 0.866025 0.433013 0.5 0.75 0 0.5 0.866025 0.5 0 0.866025 0.433013 0.5 0.75 0.353553 0.866025 0.353553 0.12941 0.866025 0.482963 -1 0 0 -1 0 0 -1 0 0 -1 0 0 -1 0 0 -1 0 0 " />
</TriangleSet>
</Shape></Transform></Switch>
<Switch whichChoice="0" id="swBRP">
	<Group>
		<Transform scale="1 1 1"><Shape DEF="edg0">
			<Appearance><Material emissiveColor="0 0 0" /></Appearance>
			<LineSet vertexCount="2"><Coordinate point="1280 70 -2020 1280 70 2020 " /></LineSet>
		</Shape></Transform>
		<Transform scale="1 1 1"><Shape DEF="edg1">
			<Appearance><Material emissiveColor="0 0 0" /></Appearance>
			<LineSet vertexCount="2"><Coordinate point="1280 70 -2020 1280 4110 -2020 " /></LineSet>
		</Shape></Transform>
		<Transform scale="1 1 1"><Shape DEF="edg2">
			<Appearance><Material emissiveColor="0 0 0" /></Appearance>
			<LineSet vertexCount="2"><Coordinate point="1280 70 2020 1280 4110 2020 " /></LineSet>
		</Shape></Transform>
		<Transform scale="1 1 1"><Shape DEF="edg3">
			<Appearance><Material emissiveColor="0 0 0" /></Appearance>
			<LineSet vertexCount="2"><Coordinate point="1280 4110 -2020 1280 4110 2020 " /></LineSet>
		</Shape></Transform>
		<Transform scale="1 1 1"><Shape DEF="edg4">
			<Appearance><Material emissiveColor="0 0 0" /></Appearance>
			<LineSet vertexCount="2"><Coordinate point="1280 4090 -2000 1280 90 -2000 " /></LineSet>
		</Shape></Transform>
		<Transform scale="1 1 1"><Shape DEF="edg5">
			<Appearance><Material emissiveColor="0 0 0" /></Appearance>
			<LineSet vertexCount="2"><Coordinate point="1280 4090 -2000 1280 4090 2000 " /></LineSet>
		</Shape></Transform>
		<Transform scale="1 1 1"><Shape DEF="edg6">
			<Appearance><Material emissiveColor="0 0 0" /></Appearance>
			<LineSet vertexCount="2"><Coordinate point="1280 4090 2000 1280 90 2000 " /></LineSet>
		</Shape></Transform>
		<Transform scale="1 1 1"><Shape DEF="edg7">
			<Appearance><Material emissiveColor="0 0 0" /></Appearance>
			<LineSet vertexCount="2"><Coordinate point="1280 90 -2000 1280 90 2000 " /></LineSet>
		</Shape></Transform>
		<Transform scale="1 1 1"><Shape DEF="edg8">
			<Appearance><Material emissiveColor="0 0 0" /></Appearance>
			<LineSet vertexCount="4"><Coordinate point="1280 70 -2020 1281.34 65 -2020 1285 61.3397 -2020 1290 60 -2020 " /></LineSet>
		</Shape></Transform>
		<Transform scale="1 1 1"><Shape DEF="edg9">
			<Appearance><Material emissiveColor="0 0 0" /></Appearance>
			<LineSet vertexCount="4"><Coordinate point="1280 70 2020 1281.34 65 2020 1285 61.3397 2020 1290 60 2020 " /></LineSet>
		</Shape></Transform>
		<Transform scale="1 1 1"><Shape DEF="edg10">
			<Appearance><Material emissiveColor="0 0 0" /></Appearance>
			<LineSet vertexCount="2"><Coordinate point="1290 60 -2020 1290 60 2020 " /></LineSet>
		</Shape></Transform>
		<Transform scale="1 1 1"><Shape DEF="edg11">
			<Appearance><Material emissiveColor="0 0 0" /></Appearance>
			<LineSet vertexCount="4"><Coordinate point="1290 70 -2030 1285 70 -2028.66 1281.34 70 -2025 1280 70 -2020 " /></LineSet>
		</Shape></Transform>
		<Transform scale="1 1 1"><Shape DEF="edg12">
			<Appearance><Material emissiveColor="0 0 0" /></Appearance>
			<LineSet vertexCount="2"><Coordinate point="1290 70 -2030 1290 4110 -2030 " /></LineSet>
		</Shape></Transform>
		<Transform scale="1 1 1"><Shape DEF="edg13">
			<Appearance><Material emissiveColor="0 0 0" /></Appearance>
			<LineSet vertexCount="4"><Coordinate point="1290 4110 -2030 1285 4110 -2028.66 1281.34 4110 -2025 1280 4110 -2020 " /></LineSet>
		</Shape></Transform>
		<Transform scale="1 1 1"><Shape DEF="edg14">
			<Appearance><Material emissiveColor="0 0 0" /></Appearance>
			<LineSet vertexCount="4"><Coordinate point="1290 70 2030 1285 70 2028.66 1281.34 70 2025 1280 70 2020 " /></LineSet>
		</Shape></Transform>
		<Transform scale="1 1 1"><Shape DEF="edg15">
			<Appearance><Material emissiveColor="0 0 0" /></Appearance>
			<LineSet vertexCount="2"><Coordinate point="1290 70 2030 1290 4110 2030 " /></LineSet>
		</Shape></Transform>
		<Transform scale="1 1 1"><Shape DEF="edg16">
			<Appearance><Material emissiveColor="0 0 0" /></Appearance>
			<LineSet vertexCount="4"><Coordinate point="1280 4110 2020 1281.34 4110 2025 1285 4110 2028.66 1290 4110 2030 " /></LineSet>
		</Shape></Transform>
		<Transform scale="1 1 1"><Shape DEF="edg17">
			<Appearance><Material emissiveColor="0 0 0" /></Appearance>
			<LineSet vertexCount="4"><Coordinate point="1280 4110 -2020 1281.34 4115 -2020 1285 4118.66 -2020 1290 4120 -2020 " /></LineSet>
		</Shape></Transform>
		<Transform scale="1 1 1"><Shape DEF="edg18">
			<Appearance><Material emissiveColor="0 0 0" /></Appearance>
			<LineSet vertexCount="4"><Coordinate point="1290 4120 2020 1285 4118.66 2020 1281.34 4115 2020 1280 4110 2020 " /></LineSet>
		</Shape></Transform>
		<Transform scale="1 1 1"><Shape DEF="edg19">
			<Appearance><Material emissiveColor="0 0 0" /></Appearance>
			<LineSet vertexCount="2"><Coordinate point="1290 4120 -2020 1290 4120 2020 " /></LineSet>
		</Shape></Transform>
		<Transform scale="1 1 1"><Shape DEF="edg20">
			<Appearance><Material emissiveColor="0 0 0" /></Appearance>
			<LineSet vertexCount="2"><Coordinate point="1280 4090 -2000 1310 4090 -2000 " /></LineSet>
		</Shape></Transform>
		<Transform scale="1 1 1"><Shape DEF="edg21">
			<Appearance><Material emissiveColor="0 0 0" /></Appearance>
			<LineSet vertexCount="2"><Coordinate point="1310 90 -2000 1310 4090 -2000 " /></LineSet>
		</Shape></Transform>
		<Transform scale="1 1 1"><Shape DEF="edg22">
			<Appearance><Material emissiveColor="0 0 0" /></Appearance>
			<LineSet vertexCount="2"><Coordinate point="1280 90 -2000 1310 90 -2000 " /></LineSet>
		</Shape></Transform>
		<Transform scale="1 1 1"><Shape DEF="edg23">
			<Appearance><Material emissiveColor="0 0 0" /></Appearance>
			<LineSet vertexCount="2"><Coordinate point="1310 4090 2000 1310 4090 -2000 " /></LineSet>
		</Shape></Transform>
		<Transform scale="1 1 1"><Shape DEF="edg24">
			<Appearance><Material emissiveColor="0 0 0" /></Appearance>
			<LineSet vertexCount="2"><Coordinate point="1280 4090 2000 1310 4090 2000 " /></LineSet>
		</Shape></Transform>
		<Transform scale="1 1 1"><Shape DEF="edg25">
			<Appearance><Material emissiveColor="0 0 0" /></Appearance>
			<LineSet vertexCount="2"><Coordinate point="1310 90 2000 1310 4090 2000 " /></LineSet>
		</Shape></Transform>
		<Transform scale="1 1 1"><Shape DEF="edg26">
			<Appearance><Material emissiveColor="0 0 0" /></Appearance>
			<LineSet vertexCount="2"><Coordinate point="1280 90 2000 1310 90 2000 " /></LineSet>
		</Shape></Transform>
		<Transform scale="1 1 1"><Shape DEF="edg27">
			<Appearance><Material emissiveColor="0 0 0" /></Appearance>
			<LineSet vertexCount="2"><Coordinate point="1310 90 2000 1310 90 -2000 " /></LineSet>
		</Shape></Transform>
		<Transform scale="1 1 1"><Shape DEF="edg28">
			<Appearance><Material emissiveColor="0 0 0" /></Appearance>
			<LineSet vertexCount="2"><Coordinate point="1290 70 -2030 1290 70 -2030 " /></LineSet>
		</Shape></Transform>
		<Transform scale="1 1 1"><Shape DEF="edg29">
			<Appearance><Material emissiveColor="0 0 0" /></Appearance>
			<LineSet vertexCount="4"><Coordinate point="1290 70 -2030 1290 65 -2028.66 1290 61.3397 -2025 1290 60 -2020 " /></LineSet>
		</Shape></Transform>
		<Transform scale="1 1 1"><Shape DEF="edg30">
			<Appearance><Material emissiveColor="0 0 0" /></Appearance>
			<LineSet vertexCount="2"><Coordinate point="1290 70 2030 1290 70 2030 " /></LineSet>
		</Shape></Transform>
		<Transform scale="1 1 1"><Shape DEF="edg31">
			<Appearance><Material emissiveColor="0 0 0" /></Appearance>
			<LineSet vertexCount="4"><Coordinate point="1290 70 2030 1290 65 2028.66 1290 61.3397 2025 1290 60 2020 " /></LineSet>
		</Shape></Transform>
		<Transform scale="1 1 1"><Shape DEF="edg32">
			<Appearance><Material emissiveColor="0 0 0" /></Appearance>
			<LineSet vertexCount="2"><Coordinate point="1290 60 -2020 1820 60 -2020 " /></LineSet>
		</Shape></Transform>
		<Transform scale="1 1 1"><Shape DEF="edg33">
			<Appearance><Material emissiveColor="0 0 0" /></Appearance>
			<LineSet vertexCount="2"><Coordinate point="1290 60 2020 1820 60 2020 " /></LineSet>
		</Shape></Transform>
		<Transform scale="1 1 1"><Shape DEF="edg34">
			<Appearance><Material emissiveColor="0 0 0" /></Appearance>
			<LineSet vertexCount="2"><Coordinate point="1820 60 -2020 1820 60 2020 " /></LineSet>
		</Shape></Transform>
		<Transform scale="1 1 1"><Shape DEF="edg35">
			<Appearance><Material emissiveColor="0 0 0" /></Appearance>
			<LineSet vertexCount="2"><Coordinate point="1290 70 -2030 1820 70 -2030 " /></LineSet>
		</Shape></Transform>
		<Transform scale="1 1 1"><Shape DEF="edg36">
			<Appearance><Material emissiveColor="0 0 0" /></Appearance>
			<LineSet vertexCount="2"><Coordinate point="1290 4110 -2030 1820 4110 -2030 " /></LineSet>
		</Shape></Transform>
		<Transform scale="1 1 1"><Shape DEF="edg37">
			<Appearance><Material emissiveColor="0 0 0" /></Appearance>
			<LineSet vertexCount="2"><Coordinate point="1820 70 -2030 1820 4110 -2030 " /></LineSet>
		</Shape></Transform>
		<Transform scale="1 1 1"><Shape DEF="edg38">
			<Appearance><Material emissiveColor="0 0 0" /></Appearance>
			<LineSet vertexCount="2"><Coordinate point="1290 4110 -2030 1290 4110 -2030 " /></LineSet>
		</Shape></Transform>
		<Transform scale="1 1 1"><Shape DEF="edg39">
			<Appearance><Material emissiveColor="0 0 0" /></Appearance>
			<LineSet vertexCount="4"><Coordinate point="1290 4110 -2030 1290 4115 -2028.66 1290 4118.66 -2025 1290 4120 -2020 " /></LineSet>
		</Shape></Transform>
		<Transform scale="1 1 1"><Shape DEF="edg40">
			<Appearance><Material emissiveColor="0 0 0" /></Appearance>
			<LineSet vertexCount="2"><Coordinate point="1290 70 2030 1820 70 2030 " /></LineSet>
		</Shape></Transform>
		<Transform scale="1 1 1"><Shape DEF="edg41">
			<Appearance><Material emissiveColor="0 0 0" /></Appearance>
			<LineSet vertexCount="2"><Coordinate point="1290 4110 2030 1820 4110 2030 " /></LineSet>
		</Shape></Transform>
		<Transform scale="1 1 1"><Shape DEF="edg42">
			<Appearance><Material emissiveColor="0 0 0" /></Appearance>
			<LineSet vertexCount="2"><Coordinate point="1820 70 2030 1820 4110 2030 " /></LineSet>
		</Shape></Transform>
		<Transform scale="1 1 1"><Shape DEF="edg43">
			<Appearance><Material emissiveColor="0 0 0" /></Appearance>
			<LineSet vertexCount="2"><Coordinate point="1290 4120 2020 1290 4120 2020 " /></LineSet>
		</Shape></Transform>
		<Transform scale="1 1 1"><Shape DEF="edg44">
			<Appearance><Material emissiveColor="0 0 0" /></Appearance>
			<LineSet vertexCount="4"><Coordinate point="1290 4120 2020 1290 4118.66 2025 1290 4115 2028.66 1290 4110 2030 " /></LineSet>
		</Shape></Transform>
		<Transform scale="1 1 1"><Shape DEF="edg45">
			<Appearance><Material emissiveColor="0 0 0" /></Appearance>
			<LineSet vertexCount="2"><Coordinate point="1290 4120 -2020 1820 4120 -2020 " /></LineSet>
		</Shape></Transform>
		<Transform scale="1 1 1"><Shape DEF="edg46">
			<Appearance><Material emissiveColor="0 0 0" /></Appearance>
			<LineSet vertexCount="2"><Coordinate point="1290 4120 2020 1820 4120 2020 " /></LineSet>
		</Shape></Transform>
		<Transform scale="1 1 1"><Shape DEF="edg47">
			<Appearance><Material emissiveColor="0 0 0" /></Appearance>
			<LineSet vertexCount="2"><Coordinate point="1820 4120 -2020 1820 4120 2020 " /></LineSet>
		</Shape></Transform>
		<Transform scale="1 1 1"><Shape DEF="edg48">
			<Appearance><Material emissiveColor="0 0 0" /></Appearance>
			<LineSet vertexCount="2"><Coordinate point="1310 70 -2020 1310 70 2020 " /></LineSet>
		</Shape></Transform>
		<Transform scale="1 1 1"><Shape DEF="edg49">
			<Appearance><Material emissiveColor="0 0 0" /></Appearance>
			<LineSet vertexCount="2"><Coordinate point="1310 70 2020 1310 4110 2020 " /></LineSet>
		</Shape></Transform>
		<Transform scale="1 1 1"><Shape DEF="edg50">
			<Appearance><Material emissiveColor="0 0 0" /></Appearance>
			<LineSet vertexCount="2"><Coordinate point="1310 70 -2020 1310 4110 -2020 " /></LineSet>
		</Shape></Transform>
		<Transform scale="1 1 1"><Shape DEF="edg51">
			<Appearance><Material emissiveColor="0 0 0" /></Appearance>
			<LineSet vertexCount="2"><Coordinate point="1310 4110 -2020 1310 4110 2020 " /></LineSet>
		</Shape></Transform>
		<Transform scale="1 1 1"><Shape DEF="edg52">
			<Appearance><Material emissiveColor="0 0 0" /></Appearance>
			<LineSet vertexCount="4"><Coordinate point="1820 70 -2030 1820 65 -2028.66 1820 61.3397 -2025 1820 60 -2020 " /></LineSet>
		</Shape></Transform>
		<Transform scale="1 1 1"><Shape DEF="edg53">
			<Appearance><Material emissiveColor="0 0 0" /></Appearance>
			<LineSet vertexCount="4"><Coordinate point="1820 70 2030 1820 65 2028.66 1820 61.3397 2025 1820 60 2020 " /></LineSet>
		</Shape></Transform>
		<Transform scale="1 1 1"><Shape DEF="edg54">
			<Appearance><Material emissiveColor="0 0 0" /></Appearance>
			<LineSet vertexCount="2"><Coordinate point="1830 70 -2020 1830 70 2020 " /></LineSet>
		</Shape></Transform>
		<Transform scale="1 1 1"><Shape DEF="edg55">
			<Appearance><Material emissiveColor="0 0 0" /></Appearance>
			<LineSet vertexCount="4"><Coordinate point="1830 70 -2020 1828.66 65 -2020 1825 61.3397 -2020 1820 60 -2020 " /></LineSet>
		</Shape></Transform>
		<Transform scale="1 1 1"><Shape DEF="edg56">
			<Appearance><Material emissiveColor="0 0 0" /></Appearance>
			<LineSet vertexCount="4"><Coordinate point="1830 70 2020 1828.66 65 2020 1825 61.3397 2020 1820 60 2020 " /></LineSet>
		</Shape></Transform>
		<Transform scale="1 1 1"><Shape DEF="edg57">
			<Appearance><Material emissiveColor="0 0 0" /></Appearance>
			<LineSet vertexCount="4"><Coordinate point="1820 4110 -2030 1820 4115 -2028.66 1820 4118.66 -2025 1820 4120 -2020 " /></LineSet>
		</Shape></Transform>
		<Transform scale="1 1 1"><Shape DEF="edg58">
			<Appearance><Material emissiveColor="0 0 0" /></Appearance>
			<LineSet vertexCount="4"><Coordinate point="1820 70 -2030 1825 70 -2028.66 1828.66 70 -2025 1830 70 -2020 " /></LineSet>
		</Shape></Transform>
		<Transform scale="1 1 1"><Shape DEF="edg59">
			<Appearance><Material emissiveColor="0 0 0" /></Appearance>
			<LineSet vertexCount="2"><Coordinate point="1830 70 -2020 1830 4110 -2020 " /></LineSet>
		</Shape></Transform>
		<Transform scale="1 1 1"><Shape DEF="edg60">
			<Appearance><Material emissiveColor="0 0 0" /></Appearance>
			<LineSet vertexCount="4"><Coordinate point="1820 4110 -2030 1825 4110 -2028.66 1828.66 4110 -2025 1830 4110 -2020 " /></LineSet>
		</Shape></Transform>
		<Transform scale="1 1 1"><Shape DEF="edg61">
			<Appearance><Material emissiveColor="0 0 0" /></Appearance>
			<LineSet vertexCount="4"><Coordinate point="1820 4120 2020 1820 4118.66 2025 1820 4115 2028.66 1820 4110 2030 " /></LineSet>
		</Shape></Transform>
		<Transform scale="1 1 1"><Shape DEF="edg62">
			<Appearance><Material emissiveColor="0 0 0" /></Appearance>
			<LineSet vertexCount="4"><Coordinate point="1820 70 2030 1825 70 2028.66 1828.66 70 2025 1830 70 2020 " /></LineSet>
		</Shape></Transform>
		<Transform scale="1 1 1"><Shape DEF="edg63">
			<Appearance><Material emissiveColor="0 0 0" /></Appearance>
			<LineSet vertexCount="2"><Coordinate point="1830 70 2020 1830 4110 2020 " /></LineSet>
		</Shape></Transform>
		<Transform scale="1 1 1"><Shape DEF="edg64">
			<Appearance><Material emissiveColor="0 0 0" /></Appearance>
			<LineSet vertexCount="4"><Coordinate point="1830 4110 2020 1828.66 4110 2025 1825 4110 2028.66 1820 4110 2030 " /></LineSet>
		</Shape></Transform>
		<Transform scale="1 1 1"><Shape DEF="edg65">
			<Appearance><Material emissiveColor="0 0 0" /></Appearance>
			<LineSet vertexCount="2"><Coordinate point="1830 4110 -2020 1830 4110 2020 " /></LineSet>
		</Shape></Transform>
		<Transform scale="1 1 1"><Shape DEF="edg66">
			<Appearance><Material emissiveColor="0 0 0" /></Appearance>
			<LineSet vertexCount="4"><Coordinate point="1830 4110 -2020 1828.66 4115 -2020 1825 4118.66 -2020 1820 4120 -2020 " /></LineSet>
		</Shape></Transform>
		<Transform scale="1 1 1"><Shape DEF="edg67">
			<Appearance><Material emissiveColor="0 0 0" /></Appearance>
			<LineSet vertexCount="4"><Coordinate point="1820 4120 2020 1825 4118.66 2020 1828.66 4115 2020 1830 4110 2020 " /></LineSet>
		</Shape></Transform>
		<Transform scale="1 1 1"><Shape DEF="edg68">
			<Appearance><Material emissiveColor="0 0 0" /></Appearance>
			<LineSet vertexCount="2"><Coordinate point="1310 70 -2020 1820 70 -2020 " /></LineSet>
		</Shape></Transform>
		<Transform scale="1 1 1"><Shape DEF="edg69">
			<Appearance><Material emissiveColor="0 0 0" /></Appearance>
			<LineSet vertexCount="2"><Coordinate point="1820 70 -2020 1820 70 2020 " /></LineSet>
		</Shape></Transform>
		<Transform scale="1 1 1"><Shape DEF="edg70">
			<Appearance><Material emissiveColor="0 0 0" /></Appearance>
			<LineSet vertexCount="2"><Coordinate point="1310 70 2020 1820 70 2020 " /></LineSet>
		</Shape></Transform>
		<Transform scale="1 1 1"><Shape DEF="edg71">
			<Appearance><Material emissiveColor="0 0 0" /></Appearance>
			<LineSet vertexCount="2"><Coordinate point="1310 4110 2020 1820 4110 2020 " /></LineSet>
		</Shape></Transform>
		<Transform scale="1 1 1"><Shape DEF="edg72">
			<Appearance><Material emissiveColor="0 0 0" /></Appearance>
			<LineSet vertexCount="2"><Coordinate point="1820 70 2020 1820 4110 2020 " /></LineSet>
		</Shape></Transform>
		<Transform scale="1 1 1"><Shape DEF="edg73">
			<Appearance><Material emissiveColor="0 0 0" /></Appearance>
			<LineSet vertexCount="2"><Coordinate point="1310 4110 -2020 1820 4110 -2020 " /></LineSet>
		</Shape></Transform>
		<Transform scale="1 1 1"><Shape DEF="edg74">
			<Appearance><Material emissiveColor="0 0 0" /></Appearance>
			<LineSet vertexCount="2"><Coordinate point="1820 70 -2020 1820 4110 -2020 " /></LineSet>
		</Shape></Transform>
		<Transform scale="1 1 1"><Shape DEF="edg75">
			<Appearance><Material emissiveColor="0 0 0" /></Appearance>
			<LineSet vertexCount="2"><Coordinate point="1820 4110 -2020 1820 4110 2020 " /></LineSet>
		</Shape></Transform>
		<Transform scale="1 1 1"><Shape DEF="edg76">
			<Appearance><Material emissiveColor="0 0 0" /></Appearance>
			<LineSet vertexCount="2"><Coordinate point="1820 70 -2030 1820 70 -2030 " /></LineSet>
		</Shape></Transform>
		<Transform scale="1 1 1"><Shape DEF="edg77">
			<Appearance><Material emissiveColor="0 0 0" /></Appearance>
			<LineSet vertexCount="2"><Coordinate point="1820 70 2030 1820 70 2030 " /></LineSet>
		</Shape></Transform>
		<Transform scale="1 1 1"><Shape DEF="edg78">
			<Appearance><Material emissiveColor="0 0 0" /></Appearance>
			<LineSet vertexCount="2"><Coordinate point="1820 4110 -2030 1820 4110 -2030 " /></LineSet>
		</Shape></Transform>
		<Transform scale="1 1 1"><Shape DEF="edg79">
			<Appearance><Material emissiveColor="0 0 0" /></Appearance>
			<LineSet vertexCount="2"><Coordinate point="1820 4120 2020 1820 4120 2020 " /></LineSet>
		</Shape></Transform>
	</Group>
</Switch>
</Scene>
</X3D>