solid 
facet normal -0.000000 -0.000000 -1.000000
   outer loop
     vertex -575.000000 -200.000000 30.000000
     vertex -537.482457 -296.583980 30.000000
     vertex -612.482457 -296.583980 30.000000
   endloop
  endfacet
facet normal -0.892318 0.070772 0.445826
   outer loop
     vertex -635.286373 170.115801 240.022420
     vertex -605.905760 236.345235 288.314035
     vertex -655.082871 266.353938 185.122694
   endloop
  endfacet
facet normal 0.911196 -0.410902 0.029687
   outer loop
     vertex -530.000000 -280.000000 251.360548
     vertex -541.139128 -308.681291 196.276740
     vertex -534.286476 -294.931494 176.257823
   endloop
  endfacet
facet normal -0.001683 0.937994 0.346647
   outer loop
     vertex -574.943320 391.020999 30.000000
     vertex -564.713493 370.961719 84.328149
     vertex -532.985964 381.386568 56.273564
   endloop
  endfacet
facet normal 0.364542 -0.129201 0.922180
   outer loop
     vertex -516.208639 210.379493 57.288246
     vertex -451.590945 197.927243 30.000000
     vertex -489.607593 239.683787 50.878373
   endloop
  endfacet
facet normal 1.000000 -0.000000 0.000000
   outer loop
     vertex -530.000000 -0.000000 418.627124
     vertex -530.000000 0.000000 347.046000
     vertex -530.000000 70.000000 385.847468
   endloop
  endfacet
facet normal 0.000000 -0.000000 -1.000000
   outer loop
     vertex -704.615304 -0.000000 30.000000
     vertex -650.000000 0.000000 30.000000
     vertex -679.814665 -100.000000 30.000000
   endloop
  endfacet
facet normal 0.000000 -0.000000 -1.000000
   outer loop
     vertex -612.482457 296.583980 30.000000
     vertex -537.482457 296.583980 30.000000
     vertex -575.000000 200.000000 30.000000
   endloop
  endfacet
facet normal -0.000000 0.000000 -1.000000
   outer loop
     vertex -456.061106 0.000000 30.000000
     vertex -500.000000 0.000000 30.000000
     vertex -475.839589 100.000000 30.000000
   endloop
  endfacet
facet normal -0.981365 -0.035707 0.188805
   outer loop
     vertex -704.615304 -0.000000 30.000000
     vertex -684.108280 0.000000 136.590595
     vertex -697.961871 100.031215 83.500976
   endloop
  endfacet
facet normal -0.892318 -0.070772 0.445826
   outer loop
     vertex -655.082871 -266.353938 185.122694
     vertex -605.905760 -236.345235 288.314035
     vertex -635.286373 -170.115801 240.022420
   endloop
  endfacet
facet normal -0.806021 0.034711 0.590868
   outer loop
     vertex -530.000000 -0.000000 418.627124
     vertex -585.490582 0.000000 342.930741
     vertex -558.265274 -70.031354 384.183711
   endloop
  endfacet
facet normal 0.175778 -0.921061 0.347489
   outer loop
     vertex -549.709586 -322.165519 215.260519
     vertex -622.984222 -330.040152 231.454100
     vertex -591.103300 -340.036448 188.830602
   endloop
  endfacet
facet normal 0.065225 -0.940029 0.334800
   outer loop
     vertex -574.943320 -391.020999 30.000000
     vertex -564.713493 -370.961719 84.328149
     vertex -606.688626 -383.173095 58.219419
   endloop
  endfacet
facet normal 0.699273 0.372657 0.610036
   outer loop
     vertex -483.443196 -354.137755 64.939208
     vertex -507.361807 -324.642933 74.338934
     vertex -514.759584 -339.368555 91.814406
   endloop
  endfacet
facet normal 0.089562 0.952698 0.290421
   outer loop
     vertex -622.984222 330.040152 231.454100
     vertex -591.103300 340.036448 188.830602
     vertex -631.402026 352.744211 159.571540
   endloop
  endfacet
facet normal 0.881304 0.467994 0.065458
   outer loop
     vertex -549.709586 322.165519 215.260519
     vertex -530.000000 280.000000 251.360548
     vertex -541.139128 308.681291 196.276740
   endloop
  endfacet
facet normal 0.699273 -0.372657 0.610036
   outer loop
     vertex -507.361807 324.642933 74.338934
     vertex -483.443196 354.137755 64.939208
     vertex -514.759584 339.368555 91.814406
   endloop
  endfacet
facet normal 0.213915 -0.004506 0.976842
   outer loop
     vertex -530.000000 -0.000000 60.000000
     vertex -503.271469 0.000000 54.146821
     vertex -515.958341 69.999557 57.247962
   endloop
  endfacet
facet normal 0.406109 0.085189 0.909845
   outer loop
     vertex -451.590945 -197.927243 30.000000
     vertex -489.607593 -239.683787 50.878373
     vertex -463.973090 -269.682247 42.245192
   endloop
  endfacet
facet normal 1.000000 -0.000000 0.000000
   outer loop
     vertex -530.000000 -210.000000 299.203872
     vertex -530.000000 -210.000000 203.521872
     vertex -530.000000 -140.000000 251.364000
   endloop
  endfacet
facet normal 1.000000 0.000000 -0.000000
   outer loop
     vertex -530.000000 -0.000000 60.000000
     vertex -530.000000 0.000000 155.682000
     vertex -530.000000 -70.000000 107.841000
   endloop
  endfacet
facet normal 1.000000 0.000000 -0.000000
   outer loop
     vertex -530.000000 210.000000 203.521872
     vertex -530.000000 210.000000 299.203872
     vertex -530.000000 140.000000 251.364000
   endloop
  endfacet
facet normal 0.000000 0.000000 -1.000000
   outer loop
     vertex -575.000000 -200.000000 30.000000
     vertex -612.500000 -100.000000 30.000000
     vertex -537.500000 -100.000000 30.000000
   endloop
  endfacet
facet normal 0.000000 0.000000 -1.000000
   outer loop
     vertex -507.232569 -392.105659 30.000000
     vertex -537.482457 -296.583980 30.000000
     vertex -469.795272 -297.738558 30.000000
   endloop
  endfacet
facet normal 0.000000 0.000000 -1.000000
   outer loop
     vertex -644.460514 -391.010869 30.000000
     vertex -681.980482 -296.512334 30.000000
     vertex -612.482457 -296.583980 30.000000
   endloop
  endfacet
facet normal -0.902004 -0.005289 0.431696
   outer loop
     vertex -635.286373 170.115801 240.022420
     vertex -659.612155 100.032416 188.336437
     vertex -610.134515 70.030953 291.349652
   endloop
  endfacet
facet normal -0.883403 0.109625 0.455611
   outer loop
     vertex -575.806398 303.612024 330.489770
     vertex -605.905760 236.345235 288.314035
     vertex -558.184123 210.076342 387.163957
   endloop
  endfacet
facet normal -0.894304 0.129562 0.428292
   outer loop
     vertex -667.786590 360.515752 130.111719
     vertex -699.413508 296.584989 83.412085
     vertex -655.082871 266.353938 185.122694
   endloop
  endfacet
facet normal 0.537863 -0.782717 -0.313141
   outer loop
     vertex -591.103300 -340.036448 188.830602
     vertex -541.139128 -308.681291 196.276740
     vertex -549.709586 -322.165519 215.260519
   endloop
  endfacet
facet normal 0.920982 -0.382833 0.072329
   outer loop
     vertex -530.000000 -280.000000 155.676727
     vertex -545.683273 -324.366556 120.545803
     vertex -538.152942 -309.872628 101.375967
   endloop
  endfacet
facet normal 0.364487 -0.863776 0.347908
   outer loop
     vertex -530.000000 -280.000000 341.123893
     vertex -575.806398 -303.612024 330.489770
     vertex -544.603382 -306.258023 291.230432
   endloop
  endfacet
facet normal 0.067405 0.861835 0.502689
   outer loop
     vertex -554.544197 338.294383 138.971034
     vertex -564.713493 370.961719 84.328149
     vertex -596.082649 356.603438 113.150973
   endloop
  endfacet
facet normal 0.038180 0.911586 0.409333
   outer loop
     vertex -491.750519 368.451516 81.233713
     vertex -507.232569 392.105659 30.000000
     vertex -532.985964 381.386568 56.273564
   endloop
  endfacet
facet normal 0.033233 0.953319 0.300131
   outer loop
     vertex -638.392334 373.044692 86.394840
     vertex -644.460514 391.010869 30.000000
     vertex -676.183283 383.224071 58.246130
   endloop
  endfacet
facet normal 0.309629 -0.000298 0.950857
   outer loop
     vertex -503.275214 139.999286 54.126252
     vertex -464.592981 99.997640 41.517557
     vertex -477.545836 169.995841 45.757349
   endloop
  endfacet
facet normal 0.463100 -0.023394 0.885997
   outer loop
     vertex -475.674003 339.243826 47.962096
     vertex -447.668121 297.783289 32.229030
     vertex -457.449228 367.349506 39.178351
   endloop
  endfacet
facet normal 0.266533 0.049254 0.962566
   outer loop
     vertex -463.973090 269.682247 42.245192
     vertex -530.000000 280.000000 60.000000
     vertex -489.607593 239.683787 50.878373
   endloop
  endfacet
facet normal 1.000000 0.000000 -0.000000
   outer loop
     vertex -530.000000 0.000000 251.364000
     vertex -530.000000 0.000000 347.046000
     vertex -530.000000 -70.000000 299.205000
   endloop
  endfacet
facet normal 1.000000 0.000000 -0.000000
   outer loop
     vertex -530.000000 140.000000 347.046000
     vertex -530.000000 140.155222 421.718888
     vertex -530.000000 70.000000 385.847468
   endloop
  endfacet
facet normal 1.000000 0.000000 0.000000
   outer loop
     vertex -530.000000 -140.000000 347.046000
     vertex -530.000000 -140.155222 421.718888
     vertex -530.000000 -210.000000 388.967899
   endloop
  endfacet
facet normal 0.000000 0.000000 -1.000000
   outer loop
     vertex -650.000000 -200.000000 30.000000
     vertex -706.709577 -196.576721 30.000000
     vertex -679.814665 -100.000000 30.000000
   endloop
  endfacet
facet normal -0.000000 0.000000 -1.000000
   outer loop
     vertex -650.000000 200.000000 30.000000
     vertex -706.709577 196.576721 30.000000
     vertex -681.980482 296.512334 30.000000
   endloop
  endfacet
facet normal 0.000000 0.000000 -1.000000
   outer loop
     vertex -575.000000 0.000000 30.000000
     vertex -650.000000 0.000000 30.000000
     vertex -612.500000 100.000000 30.000000
   endloop
  endfacet
facet normal -0.000000 0.000000 -1.000000
   outer loop
     vertex -612.482457 296.583980 30.000000
     vertex -681.980482 296.512334 30.000000
     vertex -644.460514 391.010869 30.000000
   endloop
  endfacet
facet normal -0.000000 0.000000 -1.000000
   outer loop
     vertex -469.795272 297.738558 30.000000
     vertex -537.482457 296.583980 30.000000
     vertex -507.232569 392.105659 30.000000
   endloop
  endfacet
facet normal 0.000000 0.000000 -1.000000
   outer loop
     vertex -537.500000 100.000000 30.000000
     vertex -612.500000 100.000000 30.000000
     vertex -575.000000 200.000000 30.000000
   endloop
  endfacet
facet normal 0.000000 -0.000000 -1.000000
   outer loop
     vertex -500.000000 200.000000 30.000000
     vertex -451.590945 197.927243 30.000000
     vertex -475.839589 100.000000 30.000000
   endloop
  endfacet
facet normal 0.000000 -0.000000 -1.000000
   outer loop
     vertex -500.000000 -200.000000 30.000000
     vertex -451.590945 -197.927243 30.000000
     vertex -469.795272 -297.738558 30.000000
   endloop
  endfacet
facet normal 0.000000 -0.000000 -1.000000
   outer loop
     vertex -575.000000 0.000000 30.000000
     vertex -500.000000 0.000000 30.000000
     vertex -537.500000 -100.000000 30.000000
   endloop
  endfacet
facet normal -0.978017 0.026036 0.206894
   outer loop
     vertex -684.064042 200.094581 136.605758
     vertex -706.709577 196.576721 30.000000
     vertex -697.961871 100.031215 83.500976
   endloop
  endfacet
facet normal -0.977109 0.040279 0.208890
   outer loop
     vertex -684.064042 -200.094581 136.605758
     vertex -706.709577 -196.576721 30.000000
     vertex -699.413508 -296.584989 83.412085
   endloop
  endfacet
facet normal -0.898190 0.007422 0.439545
   outer loop
     vertex -633.812591 0.000000 239.367656
     vertex -684.108280 0.000000 136.590595
     vertex -659.612155 -100.032416 188.336437
   endloop
  endfacet
facet normal -0.894304 -0.129562 0.428292
   outer loop
     vertex -655.082871 -266.353938 185.122694
     vertex -699.413508 -296.584989 83.412085
     vertex -667.786590 -360.515752 130.111719
   endloop
  endfacet
facet normal -0.883403 -0.109625 0.455611
   outer loop
     vertex -558.184123 -210.076342 387.163957
     vertex -605.905760 -236.345235 288.314035
     vertex -575.806398 -303.612024 330.489770
   endloop
  endfacet
facet normal -0.902004 0.005289 0.431696
   outer loop
     vertex -610.134515 -70.030953 291.349652
     vertex -659.612155 -100.032416 188.336437
     vertex -635.286373 -170.115801 240.022420
   endloop
  endfacet
facet normal -0.816417 -0.020169 0.577110
   outer loop
     vertex -585.648161 -140.097303 342.997499
     vertex -530.000000 -140.155222 421.718888
     vertex -558.265274 -70.031354 384.183711
   endloop
  endfacet
facet normal -0.815777 -0.043820 0.576705
   outer loop
     vertex -585.648161 140.097303 342.997499
     vertex -530.000000 140.155222 421.718888
     vertex -558.184123 210.076342 387.163957
   endloop
  endfacet
facet normal -0.906183 -0.007459 0.422820
   outer loop
     vertex -633.812591 0.000000 239.367656
     vertex -585.490582 0.000000 342.930741
     vertex -610.134515 70.030953 291.349652
   endloop
  endfacet
facet normal 0.183988 -0.960028 0.210936
   outer loop
     vertex -544.603382 -306.258023 291.230432
     vertex -575.806398 -303.612024 330.489770
     vertex -584.050734 -320.207083 262.152251
   endloop
  endfacet
facet normal 0.035531 -0.954113 0.297332
   outer loop
     vertex -638.392334 -373.044692 86.394840
     vertex -667.786590 -360.515752 130.111719
     vertex -676.183283 -383.224071 58.246130
   endloop
  endfacet
facet normal 0.297530 -0.936530 0.185439
   outer loop
     vertex -554.544197 -338.294383 138.971034
     vertex -591.103300 -340.036448 188.830602
     vertex -596.082649 -356.603438 113.150973
   endloop
  endfacet
facet normal -0.031561 -0.951355 0.306477
   outer loop
     vertex -638.392334 -373.044692 86.394840
     vertex -644.460514 -391.010869 30.000000
     vertex -606.688626 -383.173095 58.219419
   endloop
  endfacet
facet normal -0.034280 -0.903391 0.427446
   outer loop
     vertex -491.750519 -368.451516 81.233713
     vertex -507.232569 -392.105659 30.000000
     vertex -465.969169 -381.726644 55.244861
   endloop
  endfacet
facet normal 0.054923 -0.861485 0.504803
   outer loop
     vertex -554.544197 -338.294383 138.971034
     vertex -564.713493 -370.961719 84.328149
     vertex -523.318680 -353.425673 109.750991
   endloop
  endfacet
facet normal 0.742829 0.252633 0.619985
   outer loop
     vertex -483.443196 -354.137755 64.939208
     vertex -465.969169 -381.726644 55.244861
     vertex -457.449228 -367.349506 39.178351
   endloop
  endfacet
facet normal 0.684788 0.482998 0.545691
   outer loop
     vertex -533.257770 -295.240528 80.811366
     vertex -507.361807 -324.642933 74.338934
     vertex -502.117908 -309.800714 54.621312
   endloop
  endfacet
facet normal 0.723454 0.331915 0.605348
   outer loop
     vertex -545.683273 -324.366556 120.545803
     vertex -523.318680 -353.425673 109.750991
     vertex -514.759584 -339.368555 91.814406
   endloop
  endfacet
facet normal 0.134568 0.924917 0.355555
   outer loop
     vertex -667.786590 360.515752 130.111719
     vertex -596.082649 356.603438 113.150973
     vertex -638.392334 373.044692 86.394840
   endloop
  endfacet
facet normal 0.364487 0.863776 0.347908
   outer loop
     vertex -575.806398 303.612024 330.489770
     vertex -530.000000 280.000000 341.123893
     vertex -544.603382 306.258023 291.230432
   endloop
  endfacet
facet normal 0.537863 0.782717 -0.313141
   outer loop
     vertex -541.139128 308.681291 196.276740
     vertex -591.103300 340.036448 188.830602
     vertex -549.709586 322.165519 215.260519
   endloop
  endfacet
facet normal 0.857490 0.514127 0.019596
   outer loop
     vertex -544.603382 306.258023 291.230432
     vertex -530.000000 280.000000 341.123893
     vertex -536.634218 293.723551 271.370390
   endloop
  endfacet
facet normal 0.955623 0.294025 0.018271
   outer loop
     vertex -538.152942 309.872628 101.375967
     vertex -530.000000 280.000000 155.676727
     vertex -533.257770 295.240528 80.811366
   endloop
  endfacet
facet normal 0.901893 0.431788 0.012157
   outer loop
     vertex -534.286476 294.931494 176.257823
     vertex -554.544197 338.294383 138.971034
     vertex -541.139128 308.681291 196.276740
   endloop
  endfacet
facet normal 0.684788 -0.482998 0.545691
   outer loop
     vertex -507.361807 324.642933 74.338934
     vertex -533.257770 295.240528 80.811366
     vertex -502.117908 309.800714 54.621312
   endloop
  endfacet
facet normal 0.742829 -0.252633 0.619985
   outer loop
     vertex -465.969169 381.726644 55.244861
     vertex -483.443196 354.137755 64.939208
     vertex -457.449228 367.349506 39.178351
   endloop
  endfacet
facet normal 0.723454 -0.331915 0.605348
   outer loop
     vertex -523.318680 353.425673 109.750991
     vertex -545.683273 324.366556 120.545803
     vertex -514.759584 339.368555 91.814406
   endloop
  endfacet
facet normal 0.214661 0.004662 0.976678
   outer loop
     vertex -503.275214 139.999286 54.126252
     vertex -530.000000 140.000007 60.000000
     vertex -515.958341 69.999557 57.247962
   endloop
  endfacet
facet normal 0.214661 0.004432 0.976679
   outer loop
     vertex -503.275214 -139.999286 54.126252
     vertex -530.000000 -140.000007 60.000000
     vertex -516.208639 -210.379493 57.288246
   endloop
  endfacet
facet normal 0.285555 0.002010 0.958360
   outer loop
     vertex -477.086828 0.000000 46.344799
     vertex -503.271469 0.000000 54.146821
     vertex -490.135034 -70.000257 50.379447
   endloop
  endfacet
facet normal 0.226936 -0.007021 0.973884
   outer loop
     vertex -530.000000 -280.000000 60.000000
     vertex -489.607593 -239.683787 50.878373
     vertex -516.208639 -210.379493 57.288246
   endloop
  endfacet
facet normal 0.356975 0.110834 0.927515
   outer loop
     vertex -447.668121 -297.783289 32.229030
     vertex -502.117908 -309.800714 54.621312
     vertex -475.674003 -339.243826 47.962096
   endloop
  endfacet
facet normal 0.318308 -0.009012 0.947945
   outer loop
     vertex -503.275214 -139.999286 54.126252
     vertex -464.592981 -99.997640 41.517557
     vertex -490.135034 -70.000257 50.379447
   endloop
  endfacet
facet normal 1.000000 0.000000 -0.000000
   outer loop
     vertex -530.000000 -210.000000 299.203872
     vertex -530.000000 -210.000000 388.967899
     vertex -530.000000 -280.000000 341.123893
   endloop
  endfacet
facet normal 1.000000 0.000000 -0.000000
   outer loop
     vertex -530.000000 -210.000000 107.841000
     vertex -530.000000 -210.000000 203.521872
     vertex -530.000000 -280.000000 155.676727
   endloop
  endfacet
facet normal 1.000000 0.000000 -0.000000
   outer loop
     vertex -530.000000 -70.000000 203.523000
     vertex -530.000000 -70.000000 299.205000
     vertex -530.000000 -140.000000 251.364000
   endloop
  endfacet
facet normal 1.000000 -0.000000 0.000000
   outer loop
     vertex -530.000000 -140.000000 155.682000
     vertex -530.000000 -140.000007 60.000000
     vertex -530.000000 -70.000000 107.841000
   endloop
  endfacet
facet normal 1.000000 -0.000000 0.000000
   outer loop
     vertex -530.000000 140.000000 155.682000
     vertex -530.000000 140.000007 60.000000
     vertex -530.000000 210.000000 107.841000
   endloop
  endfacet
facet normal 1.000000 -0.000000 0.000000
   outer loop
     vertex -530.000000 0.000000 251.364000
     vertex -530.000000 0.000000 155.682000
     vertex -530.000000 70.000000 203.523000
   endloop
  endfacet
facet normal 1.000000 -0.000000 0.000000
   outer loop
     vertex -530.000000 210.000000 203.521872
     vertex -530.000000 210.000000 107.841000
     vertex -530.000000 280.000000 155.676727
   endloop
  endfacet
facet normal 1.000000 -0.000000 0.000000
   outer loop
     vertex -530.000000 210.000000 388.967899
     vertex -530.000000 210.000000 299.203872
     vertex -530.000000 280.000000 341.123893
   endloop
  endfacet
facet normal 1.000000 -0.000000 0.000000
   outer loop
     vertex -530.000000 70.000000 299.205000
     vertex -530.000000 70.000000 203.523000
     vertex -530.000000 140.000000 251.364000
   endloop
  endfacet
facet normal 0.000000 0.000000 -1.000000
   outer loop
     vertex -574.943320 -391.020999 30.000000
     vertex -612.482457 -296.583980 30.000000
     vertex -537.482457 -296.583980 30.000000
   endloop
  endfacet
facet normal 0.000000 0.000000 -1.000000
   outer loop
     vertex -612.482457 -296.583980 30.000000
     vertex -650.000000 -200.000000 30.000000
     vertex -575.000000 -200.000000 30.000000
   endloop
  endfacet
facet normal 0.000000 0.000000 -1.000000
   outer loop
     vertex -537.482457 -296.583980 30.000000
     vertex -575.000000 -200.000000 30.000000
     vertex -500.000000 -200.000000 30.000000
   endloop
  endfacet
facet normal -0.883405 0.114706 0.454355
   outer loop
     vertex -622.984222 330.040152 231.454100
     vertex -655.082871 266.353938 185.122694
     vertex -605.905760 236.345235 288.314035
   endloop
  endfacet
facet normal -0.894617 0.067913 0.441643
   outer loop
     vertex -655.082871 266.353938 185.122694
     vertex -684.064042 200.094581 136.605758
     vertex -635.286373 170.115801 240.022420
   endloop
  endfacet
facet normal -0.890877 0.067693 0.449172
   outer loop
     vertex -605.905760 236.345235 288.314035
     vertex -635.286373 170.115801 240.022420
     vertex -585.648161 140.097303 342.997499
   endloop
  endfacet
facet normal 0.903838 -0.427829 0.006243
   outer loop
     vertex -549.709586 -322.165519 215.260519
     vertex -530.000000 -280.000000 251.360548
     vertex -536.634218 -293.723551 271.370390
   endloop
  endfacet
facet normal 0.881304 -0.467994 0.065458
   outer loop
     vertex -530.000000 -280.000000 251.360548
     vertex -549.709586 -322.165519 215.260519
     vertex -541.139128 -308.681291 196.276740
   endloop
  endfacet
facet normal 0.901893 -0.431788 0.012157
   outer loop
     vertex -554.544197 -338.294383 138.971034
     vertex -534.286476 -294.931494 176.257823
     vertex -541.139128 -308.681291 196.276740
   endloop
  endfacet
facet normal 0.065225 0.940029 0.334800
   outer loop
     vertex -564.713493 370.961719 84.328149
     vertex -574.943320 391.020999 30.000000
     vertex -606.688626 383.173095 58.219419
   endloop
  endfacet
facet normal -0.010156 0.899408 0.436992
   outer loop
     vertex -606.688626 383.173095 58.219419
     vertex -596.082649 356.603438 113.150973
     vertex -564.713493 370.961719 84.328149
   endloop
  endfacet
facet normal 0.102518 0.889000 0.446285
   outer loop
     vertex -523.318680 353.425673 109.750991
     vertex -532.985964 381.386568 56.273564
     vertex -564.713493 370.961719 84.328149
   endloop
  endfacet
facet normal 0.250466 -0.059940 0.966268
   outer loop
     vertex -530.000000 280.000000 60.000000
     vertex -463.973090 269.682247 42.245192
     vertex -502.117908 309.800714 54.621312
   endloop
  endfacet
facet normal 0.407071 0.131642 0.903860
   outer loop
     vertex -451.590945 197.927243 30.000000
     vertex -516.208639 210.379493 57.288246
     vertex -477.545836 169.995841 45.757349
   endloop
  endfacet
facet normal 0.406109 -0.085189 0.909845
   outer loop
     vertex -489.607593 239.683787 50.878373
     vertex -451.590945 197.927243 30.000000
     vertex -463.973090 269.682247 42.245192
   endloop
  endfacet
facet normal 1.000000 0.000000 0.000000
   outer loop
     vertex -530.000000 0.000000 347.046000
     vertex -530.000000 -0.000000 418.627124
     vertex -530.000000 -70.000000 385.847468
   endloop
  endfacet
facet normal 1.000000 -0.000000 0.000000
   outer loop
     vertex -530.000000 -70.000000 385.847468
     vertex -530.000000 -70.000000 299.205000
     vertex -530.000000 0.000000 347.046000
   endloop
  endfacet
facet normal 1.000000 0.000000 -0.000000
   outer loop
     vertex -530.000000 70.000000 299.205000
     vertex -530.000000 70.000000 385.847468
     vertex -530.000000 0.000000 347.046000
   endloop
  endfacet
facet normal 0.000000 -0.000000 -1.000000
   outer loop
     vertex -679.814665 100.000000 30.000000
     vertex -612.500000 100.000000 30.000000
     vertex -650.000000 0.000000 30.000000
   endloop
  endfacet
facet normal 0.000000 0.000000 -1.000000
   outer loop
     vertex -612.500000 -100.000000 30.000000
     vertex -679.814665 -100.000000 30.000000
     vertex -650.000000 0.000000 30.000000
   endloop
  endfacet
facet normal -0.000000 0.000000 -1.000000
   outer loop
     vertex -650.000000 0.000000 30.000000
     vertex -704.615304 -0.000000 30.000000
     vertex -679.814665 100.000000 30.000000
   endloop
  endfacet
facet normal 0.000000 0.000000 -1.000000
   outer loop
     vertex -500.000000 200.000000 30.000000
     vertex -575.000000 200.000000 30.000000
     vertex -537.482457 296.583980 30.000000
   endloop
  endfacet
facet normal 0.000000 0.000000 -1.000000
   outer loop
     vertex -575.000000 200.000000 30.000000
     vertex -650.000000 200.000000 30.000000
     vertex -612.482457 296.583980 30.000000
   endloop
  endfacet
facet normal 0.000000 0.000000 -1.000000
   outer loop
     vertex -537.482457 296.583980 30.000000
     vertex -612.482457 296.583980 30.000000
     vertex -574.943320 391.020999 30.000000
   endloop
  endfacet
facet normal 0.000000 0.000000 -1.000000
   outer loop
     vertex -475.839589 -100.000000 30.000000
     vertex -537.500000 -100.000000 30.000000
     vertex -500.000000 0.000000 30.000000
   endloop
  endfacet
facet normal 0.000000 -0.000000 -1.000000
   outer loop
     vertex -537.500000 100.000000 30.000000
     vertex -475.839589 100.000000 30.000000
     vertex -500.000000 0.000000 30.000000
   endloop
  endfacet
facet normal 0.000000 -0.000000 -1.000000
   outer loop
     vertex -500.000000 0.000000 30.000000
     vertex -456.061106 0.000000 30.000000
     vertex -475.839589 -100.000000 30.000000
   endloop
  endfacet
facet normal -0.937857 -0.052194 0.343075
   outer loop
     vertex -697.961871 -100.031215 83.500976
     vertex -659.612155 -100.032416 188.336437
     vertex -684.108280 0.000000 136.590595
   endloop
  endfacet
facet normal -0.937857 0.052194 0.343075
   outer loop
     vertex -659.612155 100.032416 188.336437
     vertex -697.961871 100.031215 83.500976
     vertex -684.108280 0.000000 136.590595
   endloop
  endfacet
facet normal -0.981365 0.035707 0.188805
   outer loop
     vertex -684.108280 0.000000 136.590595
     vertex -704.615304 -0.000000 30.000000
     vertex -697.961871 -100.031215 83.500976
   endloop
  endfacet
facet normal -0.890877 -0.067693 0.449172
   outer loop
     vertex -585.648161 -140.097303 342.997499
     vertex -635.286373 -170.115801 240.022420
     vertex -605.905760 -236.345235 288.314035
   endloop
  endfacet
facet normal -0.894617 -0.067913 0.441643
   outer loop
     vertex -635.286373 -170.115801 240.022420
     vertex -684.064042 -200.094581 136.605758
     vertex -655.082871 -266.353938 185.122694
   endloop
  endfacet
facet normal -0.883405 -0.114706 0.454355
   outer loop
     vertex -605.905760 -236.345235 288.314035
     vertex -655.082871 -266.353938 185.122694
     vertex -622.984222 -330.040152 231.454100
   endloop
  endfacet
facet normal -0.871798 0.051986 0.487100
   outer loop
     vertex -558.265274 70.031354 384.183711
     vertex -610.134515 70.030953 291.349652
     vertex -585.490582 0.000000 342.930741
   endloop
  endfacet
facet normal -0.871798 -0.051986 0.487100
   outer loop
     vertex -610.134515 -70.030953 291.349652
     vertex -558.265274 -70.031354 384.183711
     vertex -585.490582 0.000000 342.930741
   endloop
  endfacet
facet normal -0.806021 -0.034711 0.590868
   outer loop
     vertex -585.490582 0.000000 342.930741
     vertex -530.000000 -0.000000 418.627124
     vertex -558.265274 70.031354 384.183711
   endloop
  endfacet
facet normal 0.158761 -0.966609 0.201154
   outer loop
     vertex -631.402026 -352.744211 159.571540
     vertex -596.082649 -356.603438 113.150973
     vertex -591.103300 -340.036448 188.830602
   endloop
  endfacet
facet normal 0.136525 -0.980560 0.140937
   outer loop
     vertex -622.984222 -330.040152 231.454100
     vertex -549.709586 -322.165519 215.260519
     vertex -584.050734 -320.207083 262.152251
   endloop
  endfacet
facet normal 0.089562 -0.952698 0.290421
   outer loop
     vertex -591.103300 -340.036448 188.830602
     vertex -622.984222 -330.040152 231.454100
     vertex -631.402026 -352.744211 159.571540
   endloop
  endfacet
facet normal 0.102518 -0.889000 0.446285
   outer loop
     vertex -532.985964 -381.386568 56.273564
     vertex -523.318680 -353.425673 109.750991
     vertex -564.713493 -370.961719 84.328149
   endloop
  endfacet
facet normal -0.010156 -0.899408 0.436992
   outer loop
     vertex -596.082649 -356.603438 113.150973
     vertex -606.688626 -383.173095 58.219419
     vertex -564.713493 -370.961719 84.328149
   endloop
  endfacet
facet normal -0.001683 -0.937994 0.346647
   outer loop
     vertex -564.713493 -370.961719 84.328149
     vertex -574.943320 -391.020999 30.000000
     vertex -532.985964 -381.386568 56.273564
   endloop
  endfacet
facet normal 0.707008 0.364222 0.606203
   outer loop
     vertex -538.152942 -309.872628 101.375967
     vertex -514.759584 -339.368555 91.814406
     vertex -507.361807 -324.642933 74.338934
   endloop
  endfacet
facet normal 0.699409 0.321020 0.638572
   outer loop
     vertex -514.759584 -339.368555 91.814406
     vertex -491.750519 -368.451516 81.233713
     vertex -483.443196 -354.137755 64.939208
   endloop
  endfacet
facet normal 0.689265 0.358265 0.629730
   outer loop
     vertex -507.361807 -324.642933 74.338934
     vertex -483.443196 -354.137755 64.939208
     vertex -475.674003 -339.243826 47.962096
   endloop
  endfacet
facet normal 0.175778 0.921061 0.347489
   outer loop
     vertex -622.984222 330.040152 231.454100
     vertex -549.709586 322.165519 215.260519
     vertex -591.103300 340.036448 188.830602
   endloop
  endfacet
facet normal 0.158761 0.966609 0.201154
   outer loop
     vertex -596.082649 356.603438 113.150973
     vertex -631.402026 352.744211 159.571540
     vertex -591.103300 340.036448 188.830602
   endloop
  endfacet
facet normal 0.136525 0.980560 0.140937
   outer loop
     vertex -549.709586 322.165519 215.260519
     vertex -622.984222 330.040152 231.454100
     vertex -584.050734 320.207083 262.152251
   endloop
  endfacet
facet normal 0.880146 0.469784 0.068159
   outer loop
     vertex -554.544197 338.294383 138.971034
     vertex -534.286476 294.931494 176.257823
     vertex -545.683273 324.366556 120.545803
   endloop
  endfacet
facet normal 0.903838 0.427829 0.006243
   outer loop
     vertex -530.000000 280.000000 251.360548
     vertex -549.709586 322.165519 215.260519
     vertex -536.634218 293.723551 271.370390
   endloop
  endfacet
facet normal 0.911196 0.410902 0.029687
   outer loop
     vertex -541.139128 308.681291 196.276740
     vertex -530.000000 280.000000 251.360548
     vertex -534.286476 294.931494 176.257823
   endloop
  endfacet
facet normal 0.699409 -0.321020 0.638572
   outer loop
     vertex -491.750519 368.451516 81.233713
     vertex -514.759584 339.368555 91.814406
     vertex -483.443196 354.137755 64.939208
   endloop
  endfacet
facet normal 0.707008 -0.364222 0.606203
   outer loop
     vertex -514.759584 339.368555 91.814406
     vertex -538.152942 309.872628 101.375967
     vertex -507.361807 324.642933 74.338934
   endloop
  endfacet
facet normal 0.689265 -0.358265 0.629730
   outer loop
     vertex -483.443196 354.137755 64.939208
     vertex -507.361807 324.642933 74.338934
     vertex -475.674003 339.243826 47.962096
   endloop
  endfacet
facet normal 0.257042 -0.003773 0.966393
   outer loop
     vertex -515.958341 -69.999557 57.247962
     vertex -490.135034 -70.000257 50.379447
     vertex -503.271469 0.000000 54.146821
   endloop
  endfacet
facet normal 0.257042 0.003773 0.966393
   outer loop
     vertex -490.135034 70.000257 50.379447
     vertex -515.958341 69.999557 57.247962
     vertex -503.271469 0.000000 54.146821
   endloop
  endfacet
facet normal 0.213915 0.004506 0.976842
   outer loop
     vertex -503.271469 0.000000 54.146821
     vertex -530.000000 -0.000000 60.000000
     vertex -515.958341 -69.999557 57.247962
   endloop
  endfacet
facet normal 0.407071 -0.131642 0.903860
   outer loop
     vertex -516.208639 -210.379493 57.288246
     vertex -451.590945 -197.927243 30.000000
     vertex -477.545836 -169.995841 45.757349
   endloop
  endfacet
facet normal 0.364542 0.129201 0.922180
   outer loop
     vertex -451.590945 -197.927243 30.000000
     vertex -516.208639 -210.379493 57.288246
     vertex -489.607593 -239.683787 50.878373
   endloop
  endfacet
facet normal 0.266533 -0.049254 0.962566
   outer loop
     vertex -530.000000 -280.000000 60.000000
     vertex -463.973090 -269.682247 42.245192
     vertex -489.607593 -239.683787 50.878373
   endloop
  endfacet
facet normal 0.580295 -0.266790 0.769468
   outer loop
     vertex -490.135034 70.000257 50.379447
     vertex -453.606292 100.013727 33.237504
     vertex -464.592981 99.997640 41.517557
   endloop
  endfacet
facet normal 0.451185 0.039934 0.891537
   outer loop
     vertex -456.061106 0.000000 30.000000
     vertex -490.135034 -70.000257 50.379447
     vertex -453.606292 -100.013727 33.237504
   endloop
  endfacet
facet normal 0.451185 -0.039934 0.891537
   outer loop
     vertex -490.135034 70.000257 50.379447
     vertex -456.061106 0.000000 30.000000
     vertex -453.606292 100.013727 33.237504
   endloop
  endfacet
facet normal 1.000000 0.000000 -0.000000
   outer loop
     vertex -530.000000 -140.000000 155.682000
     vertex -530.000000 -140.000000 251.364000
     vertex -530.000000 -210.000000 203.521872
   endloop
  endfacet
facet normal 1.000000 0.000000 -0.000000
   outer loop
     vertex -530.000000 -140.000000 251.364000
     vertex -530.000000 -140.000000 347.046000
     vertex -530.000000 -210.000000 299.203872
   endloop
  endfacet
facet normal 1.000000 0.000000 -0.000000
   outer loop
     vertex -530.000000 -210.000000 203.521872
     vertex -530.000000 -210.000000 299.203872
     vertex -530.000000 -280.000000 251.360548
   endloop
  endfacet
facet normal 1.000000 0.000000 -0.000000
   outer loop
     vertex -530.000000 70.000000 107.841000
     vertex -530.000000 70.000000 203.523000
     vertex -530.000000 0.000000 155.682000
   endloop
  endfacet
facet normal 1.000000 -0.000000 0.000000
   outer loop
     vertex -530.000000 -70.000000 203.523000
     vertex -530.000000 -70.000000 107.841000
     vertex -530.000000 0.000000 155.682000
   endloop
  endfacet
facet normal 1.000000 -0.000000 0.000000
   outer loop
     vertex -530.000000 0.000000 155.682000
     vertex -530.000000 -0.000000 60.000000
     vertex -530.000000 70.000000 107.841000
   endloop
  endfacet
facet normal 1.000000 -0.000000 0.000000
   outer loop
     vertex -530.000000 140.000000 347.046000
     vertex -530.000000 140.000000 251.364000
     vertex -530.000000 210.000000 299.203872
   endloop
  endfacet
facet normal 1.000000 -0.000000 0.000000
   outer loop
     vertex -530.000000 140.000000 251.364000
     vertex -530.000000 140.000000 155.682000
     vertex -530.000000 210.000000 203.521872
   endloop
  endfacet
facet normal 1.000000 -0.000000 0.000000
   outer loop
     vertex -530.000000 210.000000 299.203872
     vertex -530.000000 210.000000 203.521872
     vertex -530.000000 280.000000 251.360548
   endloop
  endfacet
facet normal -0.000000 -0.000000 -1.000000
   outer loop
     vertex -575.000000 0.000000 30.000000
     vertex -537.500000 -100.000000 30.000000
     vertex -612.500000 -100.000000 30.000000
   endloop
  endfacet
facet normal -0.000000 -0.000000 -1.000000
   outer loop
     vertex -537.500000 -100.000000 30.000000
     vertex -500.000000 -200.000000 30.000000
     vertex -575.000000 -200.000000 30.000000
   endloop
  endfacet
facet normal -0.000000 -0.000000 -1.000000
   outer loop
     vertex -612.500000 -100.000000 30.000000
     vertex -575.000000 -200.000000 30.000000
     vertex -650.000000 -200.000000 30.000000
   endloop
  endfacet
facet normal -0.000000 -0.000000 -1.000000
   outer loop
     vertex -500.000000 -200.000000 30.000000
     vertex -469.795272 -297.738558 30.000000
     vertex -537.482457 -296.583980 30.000000
   endloop
  endfacet
facet normal -0.000000 -0.000000 -1.000000
   outer loop
     vertex -469.795272 -297.738558 30.000000
     vertex -443.706122 -394.148527 30.000000
     vertex -507.232569 -392.105659 30.000000
   endloop
  endfacet
facet normal -0.000000 -0.000000 -1.000000
   outer loop
     vertex -537.482457 -296.583980 30.000000
     vertex -507.232569 -392.105659 30.000000
     vertex -574.943320 -391.020999 30.000000
   endloop
  endfacet
facet normal -0.000000 -0.000000 -1.000000
   outer loop
     vertex -650.000000 -200.000000 30.000000
     vertex -612.482457 -296.583980 30.000000
     vertex -681.980482 -296.512334 30.000000
   endloop
  endfacet
facet normal -0.000000 -0.000000 -1.000000
   outer loop
     vertex -612.482457 -296.583980 30.000000
     vertex -574.943320 -391.020999 30.000000
     vertex -644.460514 -391.010869 30.000000
   endloop
  endfacet
facet normal -0.000000 -0.000000 -1.000000
   outer loop
     vertex -681.980482 -296.512334 30.000000
     vertex -644.460514 -391.010869 30.000000
     vertex -710.133565 -390.866519 30.000000
   endloop
  endfacet
facet normal -0.902879 -0.013665 0.429677
   outer loop
     vertex -633.812591 0.000000 239.367656
     vertex -610.134515 70.030953 291.349652
     vertex -659.612155 100.032416 188.336437
   endloop
  endfacet
facet normal -0.901291 -0.004341 0.433193
   outer loop
     vertex -610.134515 70.030953 291.349652
     vertex -585.648161 140.097303 342.997499
     vertex -635.286373 170.115801 240.022420
   endloop
  endfacet
facet normal -0.904507 -0.000558 0.426459
   outer loop
     vertex -659.612155 100.032416 188.336437
     vertex -635.286373 170.115801 240.022420
     vertex -684.064042 200.094581 136.605758
   endloop
  endfacet
facet normal -0.891437 0.067001 0.448163
   outer loop
     vertex -585.648161 140.097303 342.997499
     vertex -558.184123 210.076342 387.163957
     vertex -605.905760 236.345235 288.314035
   endloop
  endfacet
facet normal -0.888293 0.103733 0.447409
   outer loop
     vertex -558.184123 210.076342 387.163957
     vertex -530.000000 280.000000 426.909145
     vertex -575.806398 303.612024 330.489770
   endloop
  endfacet
facet normal -0.885012 0.112800 0.451696
   outer loop
     vertex -605.905760 236.345235 288.314035
     vertex -575.806398 303.612024 330.489770
     vertex -622.984222 330.040152 231.454100
   endloop
  endfacet
facet normal -0.903364 0.087728 0.419807
   outer loop
     vertex -684.064042 200.094581 136.605758
     vertex -655.082871 266.353938 185.122694
     vertex -699.413508 296.584989 83.412085
   endloop
  endfacet
facet normal -0.890992 0.133341 0.433996
   outer loop
     vertex -655.082871 266.353938 185.122694
     vertex -622.984222 330.040152 231.454100
     vertex -667.786590 360.515752 130.111719
   endloop
  endfacet
facet normal -0.896882 0.136368 0.420721
   outer loop
     vertex -699.413508 296.584989 83.412085
     vertex -667.786590 360.515752 130.111719
     vertex -710.133565 390.866519 30.000000
   endloop
  endfacet
facet normal 0.880146 -0.469784 0.068159
   outer loop
     vertex -534.286476 -294.931494 176.257823
     vertex -554.544197 -338.294383 138.971034
     vertex -545.683273 -324.366556 120.545803
   endloop
  endfacet
facet normal 0.949437 -0.312611 -0.029057
   outer loop
     vertex -545.683273 -324.366556 120.545803
     vertex -530.000000 -280.000000 155.676727
     vertex -534.286476 -294.931494 176.257823
   endloop
  endfacet
facet normal 0.408982 -0.848840 0.334969
   outer loop
     vertex -536.634218 -293.723551 271.370390
     vertex -584.050734 -320.207083 262.152251
     vertex -549.709586 -322.165519 215.260519
   endloop
  endfacet
facet normal 0.955623 -0.294025 0.018271
   outer loop
     vertex -530.000000 -280.000000 155.676727
     vertex -538.152942 -309.872628 101.375967
     vertex -533.257770 -295.240528 80.811366
   endloop
  endfacet
facet normal 0.977908 -0.209035 0.000000
   outer loop
     vertex -533.257770 -295.240528 80.811366
     vertex -530.000000 -280.000000 60.000000
     vertex -530.000000 -280.000000 155.676727
   endloop
  endfacet
facet normal 0.961177 -0.275931 0.000000
   outer loop
     vertex -534.286476 -294.931494 176.257823
     vertex -530.000000 -280.000000 155.676727
     vertex -530.000000 -280.000000 251.360548
   endloop
  endfacet
facet normal 0.857490 -0.514127 0.019596
   outer loop
     vertex -530.000000 -280.000000 341.123893
     vertex -544.603382 -306.258023 291.230432
     vertex -536.634218 -293.723551 271.370390
   endloop
  endfacet
facet normal 0.900319 -0.435231 0.000000
   outer loop
     vertex -536.634218 -293.723551 271.370390
     vertex -530.000000 -280.000000 251.360548
     vertex -530.000000 -280.000000 341.123893
   endloop
  endfacet
facet normal 0.854124 -0.520069 0.000000
   outer loop
     vertex -537.683830 -292.619362 361.013440
     vertex -530.000000 -280.000000 341.123893
     vertex -530.000000 -280.000000 426.909145
   endloop
  endfacet
facet normal 0.054923 0.861485 0.504803
   outer loop
     vertex -564.713493 370.961719 84.328149
     vertex -554.544197 338.294383 138.971034
     vertex -523.318680 353.425673 109.750991
   endloop
  endfacet
facet normal -0.002786 0.885969 0.463736
   outer loop
     vertex -532.985964 381.386568 56.273564
     vertex -523.318680 353.425673 109.750991
     vertex -491.750519 368.451516 81.233713
   endloop
  endfacet
facet normal 0.085109 0.903300 0.420482
   outer loop
     vertex -596.082649 356.603438 113.150973
     vertex -606.688626 383.173095 58.219419
     vertex -638.392334 373.044692 86.394840
   endloop
  endfacet
facet normal -0.034280 0.903391 0.427446
   outer loop
     vertex -507.232569 392.105659 30.000000
     vertex -491.750519 368.451516 81.233713
     vertex -465.969169 381.726644 55.244861
   endloop
  endfacet
facet normal -0.029162 0.906827 0.420493
   outer loop
     vertex -465.969169 381.726644 55.244861
     vertex -443.706122 394.148527 30.000000
     vertex -507.232569 392.105659 30.000000
   endloop
  endfacet
facet normal -0.014911 0.930831 0.365145
   outer loop
     vertex -532.985964 381.386568 56.273564
     vertex -507.232569 392.105659 30.000000
     vertex -574.943320 391.020999 30.000000
   endloop
  endfacet
facet normal -0.031561 0.951355 0.306477
   outer loop
     vertex -644.460514 391.010869 30.000000
     vertex -638.392334 373.044692 86.394840
     vertex -606.688626 383.173095 58.219419
   endloop
  endfacet
facet normal -0.000140 0.963478 0.267788
   outer loop
     vertex -606.688626 383.173095 58.219419
     vertex -574.943320 391.020999 30.000000
     vertex -644.460514 391.010869 30.000000
   endloop
  endfacet
facet normal -0.002120 0.964644 0.263548
   outer loop
     vertex -676.183283 383.224071 58.246130
     vertex -644.460514 391.010869 30.000000
     vertex -710.133565 390.866519 30.000000
   endloop
  endfacet
facet normal 0.612289 0.068734 0.787640
   outer loop
     vertex -456.061106 0.000000 30.000000
     vertex -490.135034 70.000257 50.379447
     vertex -477.086828 0.000000 46.344799
   endloop
  endfacet
facet normal 0.504519 0.018157 0.863210
   outer loop
     vertex -451.590945 197.927243 30.000000
     vertex -477.545836 169.995841 45.757349
     vertex -453.606292 100.013727 33.237504
   endloop
  endfacet
facet normal 0.318308 0.009012 0.947945
   outer loop
     vertex -464.592981 99.997640 41.517557
     vertex -503.275214 139.999286 54.126252
     vertex -490.135034 70.000257 50.379447
   endloop
  endfacet
facet normal 0.573084 -0.040784 0.818481
   outer loop
     vertex -463.973090 269.682247 42.245192
     vertex -451.590945 197.927243 30.000000
     vertex -447.668121 297.783289 32.229030
   endloop
  endfacet
facet normal 0.560620 -0.003896 0.828064
   outer loop
     vertex -447.668121 297.783289 32.229030
     vertex -443.706122 394.148527 30.000000
     vertex -457.449228 367.349506 39.178351
   endloop
  endfacet
facet normal 0.356975 -0.110834 0.927515
   outer loop
     vertex -502.117908 309.800714 54.621312
     vertex -447.668121 297.783289 32.229030
     vertex -475.674003 339.243826 47.962096
   endloop
  endfacet
facet normal 0.296961 0.011674 0.954818
   outer loop
     vertex -477.545836 169.995841 45.757349
     vertex -516.208639 210.379493 57.288246
     vertex -503.275214 139.999286 54.126252
   endloop
  endfacet
facet normal 0.396537 0.095362 0.913053
   outer loop
     vertex -447.668121 297.783289 32.229030
     vertex -502.117908 309.800714 54.621312
     vertex -463.973090 269.682247 42.245192
   endloop
  endfacet
facet normal 0.226936 0.007021 0.973884
   outer loop
     vertex -489.607593 239.683787 50.878373
     vertex -530.000000 280.000000 60.000000
     vertex -516.208639 210.379493 57.288246
   endloop
  endfacet
facet normal 1.000000 -0.000000 0.000000
   outer loop
     vertex -530.000000 0.000000 347.046000
     vertex -530.000000 0.000000 251.364000
     vertex -530.000000 70.000000 299.205000
   endloop
  endfacet
facet normal 1.000000 -0.000000 0.000000
   outer loop
     vertex -530.000000 70.000000 385.847468
     vertex -530.000000 70.000000 299.205000
     vertex -530.000000 140.000000 347.046000
   endloop
  endfacet
facet normal 1.000000 0.000000 -0.000000
   outer loop
     vertex -530.000000 -70.000000 299.205000
     vertex -530.000000 -70.000000 385.847468
     vertex -530.000000 -140.000000 347.046000
   endloop
  endfacet
facet normal 1.000000 -0.000000 0.000000
   outer loop
     vertex -530.000000 140.155222 421.718888
     vertex -530.000000 140.000000 347.046000
     vertex -530.000000 210.000000 388.967899
   endloop
  endfacet
facet normal 1.000000 0.000000 -0.000000
   outer loop
     vertex -530.000000 210.000000 388.967899
     vertex -530.000000 280.000000 426.909145
     vertex -530.000000 140.155222 421.718888
   endloop
  endfacet
facet normal 1.000000 0.000000 -0.000000
   outer loop
     vertex -530.000000 70.000000 385.847468
     vertex -530.000000 140.155222 421.718888
     vertex -530.000000 -0.000000 418.627124
   endloop
  endfacet
facet normal 1.000000 -0.000000 0.000000
   outer loop
     vertex -530.000000 -140.155222 421.718888
     vertex -530.000000 -140.000000 347.046000
     vertex -530.000000 -70.000000 385.847468
   endloop
  endfacet
facet normal 1.000000 0.000000 -0.000000
   outer loop
     vertex -530.000000 -70.000000 385.847468
     vertex -530.000000 -0.000000 418.627124
     vertex -530.000000 -140.155222 421.718888
   endloop
  endfacet
facet normal 1.000000 0.000000 -0.000000
   outer loop
     vertex -530.000000 -210.000000 388.967899
     vertex -530.000000 -140.155222 421.718888
     vertex -530.000000 -280.000000 426.909145
   endloop
  endfacet
facet normal 0.000000 0.000000 -1.000000
   outer loop
     vertex -710.133565 -390.866519 30.000000
     vertex -706.709577 -196.576721 30.000000
     vertex -681.980482 -296.512334 30.000000
   endloop
  endfacet
facet normal 0.000000 0.000000 -1.000000
   outer loop
     vertex -706.709577 -196.576721 30.000000
     vertex -704.615304 -0.000000 30.000000
     vertex -679.814665 -100.000000 30.000000
   endloop
  endfacet
facet normal 0.000000 -0.000000 -1.000000
   outer loop
     vertex -706.709577 -196.576721 30.000000
     vertex -650.000000 -200.000000 30.000000
     vertex -681.980482 -296.512334 30.000000
   endloop
  endfacet
facet normal 0.000000 0.000000 -1.000000
   outer loop
     vertex -704.615304 -0.000000 30.000000
     vertex -706.709577 196.576721 30.000000
     vertex -679.814665 100.000000 30.000000
   endloop
  endfacet
facet normal 0.000000 0.000000 -1.000000
   outer loop
     vertex -706.709577 196.576721 30.000000
     vertex -710.133565 390.866519 30.000000
     vertex -681.980482 296.512334 30.000000
   endloop
  endfacet
facet normal 0.000000 -0.000000 -1.000000
   outer loop
     vertex -706.709577 196.576721 30.000000
     vertex -650.000000 200.000000 30.000000
     vertex -679.814665 100.000000 30.000000
   endloop
  endfacet
facet normal 0.000000 -0.000000 -1.000000
   outer loop
     vertex -679.814665 -100.000000 30.000000
     vertex -612.500000 -100.000000 30.000000
     vertex -650.000000 -200.000000 30.000000
   endloop
  endfacet
facet normal 0.000000 0.000000 -1.000000
   outer loop
     vertex -612.500000 100.000000 30.000000
     vertex -679.814665 100.000000 30.000000
     vertex -650.000000 200.000000 30.000000
   endloop
  endfacet
facet normal 0.000000 -0.000000 -1.000000
   outer loop
     vertex -650.000000 0.000000 30.000000
     vertex -575.000000 0.000000 30.000000
     vertex -612.500000 -100.000000 30.000000
   endloop
  endfacet
facet normal 0.000000 -0.000000 -1.000000
   outer loop
     vertex -710.133565 390.866519 30.000000
     vertex -644.460514 391.010869 30.000000
     vertex -681.980482 296.512334 30.000000
   endloop
  endfacet
facet normal 0.000000 -0.000000 -1.000000
   outer loop
     vertex -644.460514 391.010869 30.000000
     vertex -574.943320 391.020999 30.000000
     vertex -612.482457 296.583980 30.000000
   endloop
  endfacet
facet normal 0.000000 -0.000000 -1.000000
   outer loop
     vertex -681.980482 296.512334 30.000000
     vertex -612.482457 296.583980 30.000000
     vertex -650.000000 200.000000 30.000000
   endloop
  endfacet
facet normal 0.000000 -0.000000 -1.000000
   outer loop
     vertex -574.943320 391.020999 30.000000
     vertex -507.232569 392.105659 30.000000
     vertex -537.482457 296.583980 30.000000
   endloop
  endfacet
facet normal 0.000000 -0.000000 -1.000000
   outer loop
     vertex -507.232569 392.105659 30.000000
     vertex -443.706122 394.148527 30.000000
     vertex -469.795272 297.738558 30.000000
   endloop
  endfacet
facet normal 0.000000 -0.000000 -1.000000
   outer loop
     vertex -537.482457 296.583980 30.000000
     vertex -469.795272 297.738558 30.000000
     vertex -500.000000 200.000000 30.000000
   endloop
  endfacet
facet normal 0.000000 -0.000000 -1.000000
   outer loop
     vertex -650.000000 200.000000 30.000000
     vertex -575.000000 200.000000 30.000000
     vertex -612.500000 100.000000 30.000000
   endloop
  endfacet
facet normal 0.000000 -0.000000 -1.000000
   outer loop
     vertex -575.000000 200.000000 30.000000
     vertex -500.000000 200.000000 30.000000
     vertex -537.500000 100.000000 30.000000
   endloop
  endfacet
facet normal 0.000000 -0.000000 -1.000000
   outer loop
     vertex -612.500000 100.000000 30.000000
     vertex -537.500000 100.000000 30.000000
     vertex -575.000000 0.000000 30.000000
   endloop
  endfacet
facet normal -0.000000 0.000000 -1.000000
   outer loop
     vertex -443.706122 394.148527 30.000000
     vertex -451.590945 197.927243 30.000000
     vertex -469.795272 297.738558 30.000000
   endloop
  endfacet
facet normal -0.000000 0.000000 -1.000000
   outer loop
     vertex -451.590945 197.927243 30.000000
     vertex -456.061106 0.000000 30.000000
     vertex -475.839589 100.000000 30.000000
   endloop
  endfacet
facet normal 0.000000 0.000000 -1.000000
   outer loop
     vertex -451.590945 197.927243 30.000000
     vertex -500.000000 200.000000 30.000000
     vertex -469.795272 297.738558 30.000000
   endloop
  endfacet
facet normal -0.000000 -0.000000 -1.000000
   outer loop
     vertex -456.061106 0.000000 30.000000
     vertex -451.590945 -197.927243 30.000000
     vertex -475.839589 -100.000000 30.000000
   endloop
  endfacet
facet normal -0.000000 -0.000000 -1.000000
   outer loop
     vertex -451.590945 -197.927243 30.000000
     vertex -443.706122 -394.148527 30.000000
     vertex -469.795272 -297.738558 30.000000
   endloop
  endfacet
facet normal -0.000000 0.000000 -1.000000
   outer loop
     vertex -451.590945 -197.927243 30.000000
     vertex -500.000000 -200.000000 30.000000
     vertex -475.839589 -100.000000 30.000000
   endloop
  endfacet
facet normal 0.000000 0.000000 -1.000000
   outer loop
     vertex -475.839589 100.000000 30.000000
     vertex -537.500000 100.000000 30.000000
     vertex -500.000000 200.000000 30.000000
   endloop
  endfacet
facet normal 0.000000 -0.000000 -1.000000
   outer loop
     vertex -537.500000 -100.000000 30.000000
     vertex -475.839589 -100.000000 30.000000
     vertex -500.000000 -200.000000 30.000000
   endloop
  endfacet
facet normal 0.000000 0.000000 -1.000000
   outer loop
     vertex -500.000000 0.000000 30.000000
     vertex -575.000000 0.000000 30.000000
     vertex -537.500000 100.000000 30.000000
   endloop
  endfacet
facet normal -0.985773 -0.017372 0.167184
   outer loop
     vertex -710.133565 390.866519 30.000000
     vertex -706.709577 196.576721 30.000000
     vertex -699.413508 296.584989 83.412085
   endloop
  endfacet
facet normal -0.989696 -0.010544 0.142794
   outer loop
     vertex -706.709577 196.576721 30.000000
     vertex -704.615304 -0.000000 30.000000
     vertex -697.961871 100.031215 83.500976
   endloop
  endfacet
facet normal -0.977109 -0.040279 0.208890
   outer loop
     vertex -706.709577 196.576721 30.000000
     vertex -684.064042 200.094581 136.605758
     vertex -699.413508 296.584989 83.412085
   endloop
  endfacet
facet normal -0.989696 0.010544 0.142794
   outer loop
     vertex -704.615304 -0.000000 30.000000
     vertex -706.709577 -196.576721 30.000000
     vertex -697.961871 -100.031215 83.500976
   endloop
  endfacet
facet normal -0.985773 0.017372 0.167184
   outer loop
     vertex -706.709577 -196.576721 30.000000
     vertex -710.133565 -390.866519 30.000000
     vertex -699.413508 -296.584989 83.412085
   endloop
  endfacet
facet normal -0.978017 -0.026036 0.206894
   outer loop
     vertex -706.709577 -196.576721 30.000000
     vertex -684.064042 -200.094581 136.605758
     vertex -697.961871 -100.031215 83.500976
   endloop
  endfacet
facet normal -0.937875 -0.051817 0.343083
   outer loop
     vertex -697.961871 100.031215 83.500976
     vertex -659.612155 100.032416 188.336437
     vertex -684.064042 200.094581 136.605758
   endloop
  endfacet
facet normal -0.937875 0.051817 0.343083
   outer loop
     vertex -659.612155 -100.032416 188.336437
     vertex -697.961871 -100.031215 83.500976
     vertex -684.064042 -200.094581 136.605758
   endloop
  endfacet
facet normal -0.898190 -0.007422 0.439545
   outer loop
     vertex -684.108280 0.000000 136.590595
     vertex -633.812591 0.000000 239.367656
     vertex -659.612155 100.032416 188.336437
   endloop
  endfacet
facet normal -0.896882 -0.136368 0.420721
   outer loop
     vertex -710.133565 -390.866519 30.000000
     vertex -667.786590 -360.515752 130.111719
     vertex -699.413508 -296.584989 83.412085
   endloop
  endfacet
facet normal -0.890992 -0.133341 0.433996
   outer loop
     vertex -667.786590 -360.515752 130.111719
     vertex -622.984222 -330.040152 231.454100
     vertex -655.082871 -266.353938 185.122694
   endloop
  endfacet
facet normal -0.903364 -0.087728 0.419807
   outer loop
     vertex -699.413508 -296.584989 83.412085
     vertex -655.082871 -266.353938 185.122694
     vertex -684.064042 -200.094581 136.605758
   endloop
  endfacet
facet normal -0.885012 -0.112800 0.451696
   outer loop
     vertex -622.984222 -330.040152 231.454100
     vertex -575.806398 -303.612024 330.489770
     vertex -605.905760 -236.345235 288.314035
   endloop
  endfacet
facet normal -0.888293 -0.103733 0.447409
   outer loop
     vertex -575.806398 -303.612024 330.489770
     vertex -530.000000 -280.000000 426.909145
     vertex -558.184123 -210.076342 387.163957
   endloop
  endfacet
facet normal -0.891437 -0.067001 0.448163
   outer loop
     vertex -605.905760 -236.345235 288.314035
     vertex -558.184123 -210.076342 387.163957
     vertex -585.648161 -140.097303 342.997499
   endloop
  endfacet
facet normal -0.904507 0.000558 0.426459
   outer loop
     vertex -684.064042 -200.094581 136.605758
     vertex -635.286373 -170.115801 240.022420
     vertex -659.612155 -100.032416 188.336437
   endloop
  endfacet
facet normal -0.901291 0.004341 0.433193
   outer loop
     vertex -635.286373 -170.115801 240.022420
     vertex -585.648161 -140.097303 342.997499
     vertex -610.134515 -70.030953 291.349652
   endloop
  endfacet
facet normal -0.902879 0.013665 0.429677
   outer loop
     vertex -659.612155 -100.032416 188.336437
     vertex -610.134515 -70.030953 291.349652
     vertex -633.812591 0.000000 239.367656
   endloop
  endfacet
facet normal -0.796477 0.022426 0.604253
   outer loop
     vertex -530.000000 -280.000000 426.909145
     vertex -530.000000 -140.155222 421.718888
     vertex -558.184123 -210.076342 387.163957
   endloop
  endfacet
facet normal -0.786365 0.013624 0.617613
   outer loop
     vertex -530.000000 -140.155222 421.718888
     vertex -530.000000 -0.000000 418.627124
     vertex -558.265274 -70.031354 384.183711
   endloop
  endfacet
facet normal -0.815777 0.043820 0.576705
   outer loop
     vertex -530.000000 -140.155222 421.718888
     vertex -585.648161 -140.097303 342.997499
     vertex -558.184123 -210.076342 387.163957
   endloop
  endfacet
facet normal -0.786365 -0.013624 0.617613
   outer loop
     vertex -530.000000 -0.000000 418.627124
     vertex -530.000000 140.155222 421.718888
     vertex -558.265274 70.031354 384.183711
   endloop
  endfacet
facet normal -0.796477 -0.022426 0.604253
   outer loop
     vertex -530.000000 140.155222 421.718888
     vertex -530.000000 280.000000 426.909145
     vertex -558.184123 210.076342 387.163957
   endloop
  endfacet
facet normal -0.816417 0.020169 0.577110
   outer loop
     vertex -530.000000 140.155222 421.718888
     vertex -585.648161 140.097303 342.997499
     vertex -558.265274 70.031354 384.183711
   endloop
  endfacet
facet normal -0.871686 0.054378 0.487038
   outer loop
     vertex -558.265274 -70.031354 384.183711
     vertex -610.134515 -70.030953 291.349652
     vertex -585.648161 -140.097303 342.997499
   endloop
  endfacet
facet normal -0.871686 -0.054378 0.487038
   outer loop
     vertex -610.134515 70.030953 291.349652
     vertex -558.265274 70.031354 384.183711
     vertex -585.648161 140.097303 342.997499
   endloop
  endfacet
facet normal -0.906183 0.007459 0.422820
   outer loop
     vertex -585.490582 0.000000 342.930741
     vertex -633.812591 0.000000 239.367656
     vertex -610.134515 -70.030953 291.349652
   endloop
  endfacet
facet normal 0.145160 -0.974739 0.169741
   outer loop
     vertex -530.000000 -280.000000 426.909145
     vertex -575.806398 -303.612024 330.489770
     vertex -537.683830 -292.619362 361.013440
   endloop
  endfacet
facet normal 0.065582 -0.971451 0.227995
   outer loop
     vertex -575.806398 -303.612024 330.489770
     vertex -622.984222 -330.040152 231.454100
     vertex -584.050734 -320.207083 262.152251
   endloop
  endfacet
facet normal 0.491792 -0.808575 -0.323027
   outer loop
     vertex -575.806398 -303.612024 330.489770
     vertex -530.000000 -280.000000 341.123893
     vertex -537.683830 -292.619362 361.013440
   endloop
  endfacet
facet normal -0.044281 -0.951130 0.305599
   outer loop
     vertex -622.984222 -330.040152 231.454100
     vertex -667.786590 -360.515752 130.111719
     vertex -631.402026 -352.744211 159.571540
   endloop
  endfacet
facet normal -0.039822 -0.951427 0.305288
   outer loop
     vertex -667.786590 -360.515752 130.111719
     vertex -710.133565 -390.866519 30.000000
     vertex -676.183283 -383.224071 58.246130
   endloop
  endfacet
facet normal 0.134568 -0.924917 0.355555
   outer loop
     vertex -596.082649 -356.603438 113.150973
     vertex -667.786590 -360.515752 130.111719
     vertex -638.392334 -373.044692 86.394840
   endloop
  endfacet
facet normal 0.508912 -0.805328 -0.304065
   outer loop
     vertex -584.050734 -320.207083 262.152251
     vertex -536.634218 -293.723551 271.370390
     vertex -544.603382 -306.258023 291.230432
   endloop
  endfacet
facet normal 0.089133 -0.984708 0.149683
   outer loop
     vertex -667.786590 -360.515752 130.111719
     vertex -596.082649 -356.603438 113.150973
     vertex -631.402026 -352.744211 159.571540
   endloop
  endfacet
facet normal 0.470109 -0.824136 0.315909
   outer loop
     vertex -541.139128 -308.681291 196.276740
     vertex -591.103300 -340.036448 188.830602
     vertex -554.544197 -338.294383 138.971034
   endloop
  endfacet
facet normal -0.002120 -0.964644 0.263548
   outer loop
     vertex -710.133565 -390.866519 30.000000
     vertex -644.460514 -391.010869 30.000000
     vertex -676.183283 -383.224071 58.246130
   endloop
  endfacet
facet normal -0.000140 -0.963478 0.267788
   outer loop
     vertex -644.460514 -391.010869 30.000000
     vertex -574.943320 -391.020999 30.000000
     vertex -606.688626 -383.173095 58.219419
   endloop
  endfacet
facet normal 0.033233 -0.953319 0.300131
   outer loop
     vertex -644.460514 -391.010869 30.000000
     vertex -638.392334 -373.044692 86.394840
     vertex -676.183283 -383.224071 58.246130
   endloop
  endfacet
facet normal -0.014911 -0.930831 0.365145
   outer loop
     vertex -574.943320 -391.020999 30.000000
     vertex -507.232569 -392.105659 30.000000
     vertex -532.985964 -381.386568 56.273564
   endloop
  endfacet
facet normal -0.029162 -0.906827 0.420493
   outer loop
     vertex -507.232569 -392.105659 30.000000
     vertex -443.706122 -394.148527 30.000000
     vertex -465.969169 -381.726644 55.244861
   endloop
  endfacet
facet normal 0.038180 -0.911586 0.409333
   outer loop
     vertex -507.232569 -392.105659 30.000000
     vertex -491.750519 -368.451516 81.233713
     vertex -532.985964 -381.386568 56.273564
   endloop
  endfacet
facet normal 0.085109 -0.903300 0.420482
   outer loop
     vertex -606.688626 -383.173095 58.219419
     vertex -596.082649 -356.603438 113.150973
     vertex -638.392334 -373.044692 86.394840
   endloop
  endfacet
facet normal -0.002786 -0.885969 0.463736
   outer loop
     vertex -523.318680 -353.425673 109.750991
     vertex -532.985964 -381.386568 56.273564
     vertex -491.750519 -368.451516 81.233713
   endloop
  endfacet
facet normal 0.067405 -0.861835 0.502689
   outer loop
     vertex -564.713493 -370.961719 84.328149
     vertex -554.544197 -338.294383 138.971034
     vertex -596.082649 -356.603438 113.150973
   endloop
  endfacet
facet normal 0.781457 0.198106 0.591675
   outer loop
     vertex -443.706122 -394.148527 30.000000
     vertex -457.449228 -367.349506 39.178351
     vertex -465.969169 -381.726644 55.244861
   endloop
  endfacet
facet normal 0.744043 0.295133 0.599413
   outer loop
     vertex -457.449228 -367.349506 39.178351
     vertex -475.674003 -339.243826 47.962096
     vertex -483.443196 -354.137755 64.939208
   endloop
  endfacet
facet normal 0.748640 0.259846 0.609933
   outer loop
     vertex -465.969169 -381.726644 55.244861
     vertex -483.443196 -354.137755 64.939208
     vertex -491.750519 -368.451516 81.233713
   endloop
  endfacet
facet normal 0.680298 0.487144 0.547617
   outer loop
     vertex -475.674003 -339.243826 47.962096
     vertex -502.117908 -309.800714 54.621312
     vertex -507.361807 -324.642933 74.338934
   endloop
  endfacet
facet normal 0.674966 0.540942 0.501799
   outer loop
     vertex -502.117908 -309.800714 54.621312
     vertex -530.000000 -280.000000 60.000000
     vertex -533.257770 -295.240528 80.811366
   endloop
  endfacet
facet normal 0.694743 0.497554 0.519395
   outer loop
     vertex -507.361807 -324.642933 74.338934
     vertex -533.257770 -295.240528 80.811366
     vertex -538.152942 -309.872628 101.375967
   endloop
  endfacet
facet normal 0.714310 0.343251 0.609869
   outer loop
     vertex -491.750519 -368.451516 81.233713
     vertex -514.759584 -339.368555 91.814406
     vertex -523.318680 -353.425673 109.750991
   endloop
  endfacet
facet normal 0.721445 0.385764 0.575068
   outer loop
     vertex -514.759584 -339.368555 91.814406
     vertex -538.152942 -309.872628 101.375967
     vertex -545.683273 -324.366556 120.545803
   endloop
  endfacet
facet normal 0.725229 0.334628 0.601720
   outer loop
     vertex -523.318680 -353.425673 109.750991
     vertex -545.683273 -324.366556 120.545803
     vertex -554.544197 -338.294383 138.971034
   endloop
  endfacet
facet normal -0.039822 0.951427 0.305288
   outer loop
     vertex -710.133565 390.866519 30.000000
     vertex -667.786590 360.515752 130.111719
     vertex -676.183283 383.224071 58.246130
   endloop
  endfacet
facet normal -0.044281 0.951130 0.305599
   outer loop
     vertex -667.786590 360.515752 130.111719
     vertex -622.984222 330.040152 231.454100
     vertex -631.402026 352.744211 159.571540
   endloop
  endfacet
facet normal 0.035531 0.954113 0.297332
   outer loop
     vertex -667.786590 360.515752 130.111719
     vertex -638.392334 373.044692 86.394840
     vertex -676.183283 383.224071 58.246130
   endloop
  endfacet
facet normal 0.065582 0.971451 0.227995
   outer loop
     vertex -622.984222 330.040152 231.454100
     vertex -575.806398 303.612024 330.489770
     vertex -584.050734 320.207083 262.152251
   endloop
  endfacet
facet normal 0.145160 0.974739 0.169741
   outer loop
     vertex -575.806398 303.612024 330.489770
     vertex -530.000000 280.000000 426.909145
     vertex -537.683830 292.619362 361.013440
   endloop
  endfacet
facet normal 0.183988 0.960028 0.210936
   outer loop
     vertex -575.806398 303.612024 330.489770
     vertex -544.603382 306.258023 291.230432
     vertex -584.050734 320.207083 262.152251
   endloop
  endfacet
facet normal 0.089133 0.984708 0.149683
   outer loop
     vertex -596.082649 356.603438 113.150973
     vertex -667.786590 360.515752 130.111719
     vertex -631.402026 352.744211 159.571540
   endloop
  endfacet
facet normal 0.408982 0.848840 0.334969
   outer loop
     vertex -584.050734 320.207083 262.152251
     vertex -536.634218 293.723551 271.370390
     vertex -549.709586 322.165519 215.260519
   endloop
  endfacet
facet normal 0.297530 0.936530 0.185439
   outer loop
     vertex -591.103300 340.036448 188.830602
     vertex -554.544197 338.294383 138.971034
     vertex -596.082649 356.603438 113.150973
   endloop
  endfacet
facet normal 0.854124 0.520069 0.000000
   outer loop
     vertex -530.000000 280.000000 426.909145
     vertex -530.000000 280.000000 341.123893
     vertex -537.683830 292.619362 361.013440
   endloop
  endfacet
facet normal 0.900319 0.435231 0.000000
   outer loop
     vertex -530.000000 280.000000 341.123893
     vertex -530.000000 280.000000 251.360548
     vertex -536.634218 293.723551 271.370390
   endloop
  endfacet
facet normal 0.491792 0.808575 -0.323027
   outer loop
     vertex -530.000000 280.000000 341.123893
     vertex -575.806398 303.612024 330.489770
     vertex -537.683830 292.619362 361.013440
   endloop
  endfacet
facet normal 0.961177 0.275931 0.000000
   outer loop
     vertex -530.000000 280.000000 251.360548
     vertex -530.000000 280.000000 155.676727
     vertex -534.286476 294.931494 176.257823
   endloop
  endfacet
facet normal 0.977908 0.209035 0.000000
   outer loop
     vertex -530.000000 280.000000 155.676727
     vertex -530.000000 280.000000 60.000000
     vertex -533.257770 295.240528 80.811366
   endloop
  endfacet
facet normal 0.920982 0.382833 0.072329
   outer loop
     vertex -545.683273 324.366556 120.545803
     vertex -530.000000 280.000000 155.676727
     vertex -538.152942 309.872628 101.375967
   endloop
  endfacet
facet normal 0.508912 0.805328 -0.304065
   outer loop
     vertex -536.634218 293.723551 271.370390
     vertex -584.050734 320.207083 262.152251
     vertex -544.603382 306.258023 291.230432
   endloop
  endfacet
facet normal 0.949437 0.312611 -0.029057
   outer loop
     vertex -530.000000 280.000000 155.676727
     vertex -545.683273 324.366556 120.545803
     vertex -534.286476 294.931494 176.257823
   endloop
  endfacet
facet normal 0.470109 0.824136 0.315909
   outer loop
     vertex -591.103300 340.036448 188.830602
     vertex -541.139128 308.681291 196.276740
     vertex -554.544197 338.294383 138.971034
   endloop
  endfacet
facet normal 0.674966 -0.540942 0.501799
   outer loop
     vertex -530.000000 280.000000 60.000000
     vertex -502.117908 309.800714 54.621312
     vertex -533.257770 295.240528 80.811366
   endloop
  endfacet
facet normal 0.680298 -0.487144 0.547617
   outer loop
     vertex -502.117908 309.800714 54.621312
     vertex -475.674003 339.243826 47.962096
     vertex -507.361807 324.642933 74.338934
   endloop
  endfacet
facet normal 0.694743 -0.497554 0.519395
   outer loop
     vertex -533.257770 295.240528 80.811366
     vertex -507.361807 324.642933 74.338934
     vertex -538.152942 309.872628 101.375967
   endloop
  endfacet
facet normal 0.744043 -0.295133 0.599413
   outer loop
     vertex -475.674003 339.243826 47.962096
     vertex -457.449228 367.349506 39.178351
     vertex -483.443196 354.137755 64.939208
   endloop
  endfacet
facet normal 0.781457 -0.198106 0.591675
   outer loop
     vertex -457.449228 367.349506 39.178351
     vertex -443.706122 394.148527 30.000000
     vertex -465.969169 381.726644 55.244861
   endloop
  endfacet
facet normal 0.748640 -0.259846 0.609933
   outer loop
     vertex -483.443196 354.137755 64.939208
     vertex -465.969169 381.726644 55.244861
     vertex -491.750519 368.451516 81.233713
   endloop
  endfacet
facet normal 0.721445 -0.385764 0.575068
   outer loop
     vertex -538.152942 309.872628 101.375967
     vertex -514.759584 339.368555 91.814406
     vertex -545.683273 324.366556 120.545803
   endloop
  endfacet
facet normal 0.714310 -0.343251 0.609869
   outer loop
     vertex -514.759584 339.368555 91.814406
     vertex -491.750519 368.451516 81.233713
     vertex -523.318680 353.425673 109.750991
   endloop
  endfacet
facet normal 0.725229 -0.334628 0.601720
   outer loop
     vertex -545.683273 324.366556 120.545803
     vertex -523.318680 353.425673 109.750991
     vertex -554.544197 338.294383 138.971034
   endloop
  endfacet
facet normal 0.192933 0.000000 0.981212
   outer loop
     vertex -530.000000 280.000000 60.000000
     vertex -530.000000 140.000007 60.000000
     vertex -516.208639 210.379493 57.288246
   endloop
  endfacet
facet normal 0.192332 0.000000 0.981330
   outer loop
     vertex -530.000000 140.000007 60.000000
     vertex -530.000000 -0.000000 60.000000
     vertex -515.958341 69.999557 57.247962
   endloop
  endfacet
facet normal 0.214661 -0.004432 0.976679
   outer loop
     vertex -530.000000 140.000007 60.000000
     vertex -503.275214 139.999286 54.126252
     vertex -516.208639 210.379493 57.288246
   endloop
  endfacet
facet normal 0.192332 0.000000 0.981330
   outer loop
     vertex -530.000000 -0.000000 60.000000
     vertex -530.000000 -140.000007 60.000000
     vertex -515.958341 -69.999557 57.247962
   endloop
  endfacet
facet normal 0.192933 0.000000 0.981212
   outer loop
     vertex -530.000000 -140.000007 60.000000
     vertex -530.000000 -280.000000 60.000000
     vertex -516.208639 -210.379493 57.288246
   endloop
  endfacet
facet normal 0.214661 -0.004662 0.976678
   outer loop
     vertex -530.000000 -140.000007 60.000000
     vertex -503.275214 -139.999286 54.126252
     vertex -515.958341 -69.999557 57.247962
   endloop
  endfacet
facet normal 0.257043 -0.003476 0.966394
   outer loop
     vertex -515.958341 69.999557 57.247962
     vertex -490.135034 70.000257 50.379447
     vertex -503.275214 139.999286 54.126252
   endloop
  endfacet
facet normal 0.257043 0.003476 0.966394
   outer loop
     vertex -490.135034 -70.000257 50.379447
     vertex -515.958341 -69.999557 57.247962
     vertex -503.275214 -139.999286 54.126252
   endloop
  endfacet
facet normal 0.285555 -0.002010 0.958360
   outer loop
     vertex -503.271469 0.000000 54.146821
     vertex -477.086828 0.000000 46.344799
     vertex -490.135034 70.000257 50.379447
   endloop
  endfacet
facet normal 0.250466 0.059940 0.966268
   outer loop
     vertex -463.973090 -269.682247 42.245192
     vertex -530.000000 -280.000000 60.000000
     vertex -502.117908 -309.800714 54.621312
   endloop
  endfacet
facet normal 0.396537 -0.095362 0.913053
   outer loop
     vertex -502.117908 -309.800714 54.621312
     vertex -447.668121 -297.783289 32.229030
     vertex -463.973090 -269.682247 42.245192
   endloop
  endfacet
facet normal 0.296961 -0.011674 0.954818
   outer loop
     vertex -516.208639 -210.379493 57.288246
     vertex -477.545836 -169.995841 45.757349
     vertex -503.275214 -139.999286 54.126252
   endloop
  endfacet
facet normal 0.463100 0.023394 0.885997
   outer loop
     vertex -447.668121 -297.783289 32.229030
     vertex -475.674003 -339.243826 47.962096
     vertex -457.449228 -367.349506 39.178351
   endloop
  endfacet
facet normal 0.560620 0.003896 0.828064
   outer loop
     vertex -457.449228 -367.349506 39.178351
     vertex -443.706122 -394.148527 30.000000
     vertex -447.668121 -297.783289 32.229030
   endloop
  endfacet
facet normal 0.309629 0.000298 0.950857
   outer loop
     vertex -464.592981 -99.997640 41.517557
     vertex -503.275214 -139.999286 54.126252
     vertex -477.545836 -169.995841 45.757349
   endloop
  endfacet
facet normal 0.600612 -0.062862 0.797066
   outer loop
     vertex -477.545836 -169.995841 45.757349
     vertex -453.606292 -100.013727 33.237504
     vertex -464.592981 -99.997640 41.517557
   endloop
  endfacet
facet normal 0.580295 0.266790 0.769468
   outer loop
     vertex -453.606292 -100.013727 33.237504
     vertex -490.135034 -70.000257 50.379447
     vertex -464.592981 -99.997640 41.517557
   endloop
  endfacet
facet normal 0.998386 0.040118 0.040188
   outer loop
     vertex -443.706122 -394.148527 30.000000
     vertex -451.590945 -197.927243 30.000000
     vertex -447.668121 -297.783289 32.229030
   endloop
  endfacet
facet normal 0.997919 0.022538 -0.060420
   outer loop
     vertex -451.590945 -197.927243 30.000000
     vertex -456.061106 0.000000 30.000000
     vertex -453.606292 -100.013727 33.237504
   endloop
  endfacet
facet normal 0.573084 0.040784 0.818481
   outer loop
     vertex -451.590945 -197.927243 30.000000
     vertex -463.973090 -269.682247 42.245192
     vertex -447.668121 -297.783289 32.229030
   endloop
  endfacet
facet normal 0.997919 -0.022538 -0.060420
   outer loop
     vertex -456.061106 0.000000 30.000000
     vertex -451.590945 197.927243 30.000000
     vertex -453.606292 100.013727 33.237504
   endloop
  endfacet
facet normal 0.998386 -0.040118 0.040188
   outer loop
     vertex -451.590945 197.927243 30.000000
     vertex -443.706122 394.148527 30.000000
     vertex -447.668121 297.783289 32.229030
   endloop
  endfacet
facet normal 0.504519 -0.018157 0.863210
   outer loop
     vertex -477.545836 -169.995841 45.757349
     vertex -451.590945 -197.927243 30.000000
     vertex -453.606292 -100.013727 33.237504
   endloop
  endfacet
facet normal 0.600612 0.062862 0.797066
   outer loop
     vertex -453.606292 100.013727 33.237504
     vertex -477.545836 169.995841 45.757349
     vertex -464.592981 99.997640 41.517557
   endloop
  endfacet
facet normal 0.612289 -0.068734 0.787640
   outer loop
     vertex -456.061106 0.000000 30.000000
     vertex -477.086828 0.000000 46.344799
     vertex -490.135034 -70.000257 50.379447
   endloop
  endfacet
facet normal 1.000000 -0.000000 0.000000
   outer loop
     vertex -530.000000 -280.000000 426.909145
     vertex -530.000000 -280.000000 341.123893
     vertex -530.000000 -210.000000 388.967899
   endloop
  endfacet
facet normal 1.000000 -0.000000 0.000000
   outer loop
     vertex -530.000000 -280.000000 341.123893
     vertex -530.000000 -280.000000 251.360548
     vertex -530.000000 -210.000000 299.203872
   endloop
  endfacet
facet normal 1.000000 -0.000000 0.000000
   outer loop
     vertex -530.000000 -210.000000 388.967899
     vertex -530.000000 -210.000000 299.203872
     vertex -530.000000 -140.000000 347.046000
   endloop
  endfacet
facet normal 1.000000 -0.000000 0.000000
   outer loop
     vertex -530.000000 -280.000000 251.360548
     vertex -530.000000 -280.000000 155.676727
     vertex -530.000000 -210.000000 203.521872
   endloop
  endfacet
facet normal 1.000000 -0.000000 0.000000
   outer loop
     vertex -530.000000 -280.000000 155.676727
     vertex -530.000000 -280.000000 60.000000
     vertex -530.000000 -210.000000 107.841000
   endloop
  endfacet
facet normal 1.000000 -0.000000 0.000000
   outer loop
     vertex -530.000000 -210.000000 203.521872
     vertex -530.000000 -210.000000 107.841000
     vertex -530.000000 -140.000000 155.682000
   endloop
  endfacet
facet normal 1.000000 -0.000000 0.000000
   outer loop
     vertex -530.000000 -140.000000 347.046000
     vertex -530.000000 -140.000000 251.364000
     vertex -530.000000 -70.000000 299.205000
   endloop
  endfacet
facet normal 1.000000 -0.000000 0.000000
   outer loop
     vertex -530.000000 -140.000000 251.364000
     vertex -530.000000 -140.000000 155.682000
     vertex -530.000000 -70.000000 203.523000
   endloop
  endfacet
facet normal 1.000000 -0.000000 0.000000
   outer loop
     vertex -530.000000 -70.000000 299.205000
     vertex -530.000000 -70.000000 203.523000
     vertex -530.000000 0.000000 251.364000
   endloop
  endfacet
facet normal 1.000000 0.000000 -0.000000
   outer loop
     vertex -530.000000 -280.000000 60.000000
     vertex -530.000000 -140.000007 60.000000
     vertex -530.000000 -210.000000 107.841000
   endloop
  endfacet
facet normal 1.000000 0.000000 -0.000000
   outer loop
     vertex -530.000000 -140.000007 60.000000
     vertex -530.000000 -0.000000 60.000000
     vertex -530.000000 -70.000000 107.841000
   endloop
  endfacet
facet normal 1.000000 0.000000 -0.000000
   outer loop
     vertex -530.000000 -140.000007 60.000000
     vertex -530.000000 -140.000000 155.682000
     vertex -530.000000 -210.000000 107.841000
   endloop
  endfacet
facet normal 1.000000 0.000000 -0.000000
   outer loop
     vertex -530.000000 -0.000000 60.000000
     vertex -530.000000 140.000007 60.000000
     vertex -530.000000 70.000000 107.841000
   endloop
  endfacet
facet normal 1.000000 0.000000 -0.000000
   outer loop
     vertex -530.000000 140.000007 60.000000
     vertex -530.000000 280.000000 60.000000
     vertex -530.000000 210.000000 107.841000
   endloop
  endfacet
facet normal 1.000000 0.000000 0.000000
   outer loop
     vertex -530.000000 140.000007 60.000000
     vertex -530.000000 140.000000 155.682000
     vertex -530.000000 70.000000 107.841000
   endloop
  endfacet
facet normal 1.000000 0.000000 -0.000000
   outer loop
     vertex -530.000000 -70.000000 107.841000
     vertex -530.000000 -70.000000 203.523000
     vertex -530.000000 -140.000000 155.682000
   endloop
  endfacet
facet normal 1.000000 -0.000000 0.000000
   outer loop
     vertex -530.000000 70.000000 203.523000
     vertex -530.000000 70.000000 107.841000
     vertex -530.000000 140.000000 155.682000
   endloop
  endfacet
facet normal 1.000000 0.000000 -0.000000
   outer loop
     vertex -530.000000 0.000000 155.682000
     vertex -530.000000 0.000000 251.364000
     vertex -530.000000 -70.000000 203.523000
   endloop
  endfacet
facet normal 1.000000 0.000000 -0.000000
   outer loop
     vertex -530.000000 280.000000 60.000000
     vertex -530.000000 280.000000 155.676727
     vertex -530.000000 210.000000 107.841000
   endloop
  endfacet
facet normal 1.000000 0.000000 -0.000000
   outer loop
     vertex -530.000000 280.000000 155.676727
     vertex -530.000000 280.000000 251.360548
     vertex -530.000000 210.000000 203.521872
   endloop
  endfacet
facet normal 1.000000 0.000000 -0.000000
   outer loop
     vertex -530.000000 210.000000 107.841000
     vertex -530.000000 210.000000 203.521872
     vertex -530.000000 140.000000 155.682000
   endloop
  endfacet
facet normal 1.000000 0.000000 -0.000000
   outer loop
     vertex -530.000000 280.000000 251.360548
     vertex -530.000000 280.000000 341.123893
     vertex -530.000000 210.000000 299.203872
   endloop
  endfacet
facet normal 1.000000 0.000000 -0.000000
   outer loop
     vertex -530.000000 280.000000 341.123893
     vertex -530.000000 280.000000 426.909145
     vertex -530.000000 210.000000 388.967899
   endloop
  endfacet
facet normal 1.000000 0.000000 -0.000000
   outer loop
     vertex -530.000000 210.000000 299.203872
     vertex -530.000000 210.000000 388.967899
     vertex -530.000000 140.000000 347.046000
   endloop
  endfacet
facet normal 1.000000 0.000000 -0.000000
   outer loop
     vertex -530.000000 140.000000 155.682000
     vertex -530.000000 140.000000 251.364000
     vertex -530.000000 70.000000 203.523000
   endloop
  endfacet
facet normal 1.000000 0.000000 -0.000000
   outer loop
     vertex -530.000000 140.000000 251.364000
     vertex -530.000000 140.000000 347.046000
     vertex -530.000000 70.000000 299.205000
   endloop
  endfacet
facet normal 1.000000 0.000000 -0.000000
   outer loop
     vertex -530.000000 70.000000 203.523000
     vertex -530.000000 70.000000 299.205000
     vertex -530.000000 0.000000 251.364000
   endloop
  endfacet
endsolid
