ISO-10303-21;
HEADER;
FILE_NAME('Open CASCADE Shape Model','2026-07-03T00:04:25',('Author'),(
    'Open CASCADE'),'Open CASCADE STEP processor 7.8','Open CASCADE 7.8'
  ,'Unknown');
FILE_DESCRIPTION(('Open CASCADE Model'),'2;1');
FILE_SCHEMA(('AUTOMOTIVE_DESIGN { 1 0 10303 214 1 1 1 1 }'));
ENDSEC;
DATA;
#1 = APPLICATION_PROTOCOL_DEFINITION('international standard',
  'automotive_design',2000,#2);
#2 = APPLICATION_CONTEXT(
  'core data for automotive mechanical design processes');
#3 = SHAPE_DEFINITION_REPRESENTATION(#4,#10);
#4 = PRODUCT_DEFINITION_SHAPE('','',#5);
#5 = PRODUCT_DEFINITION('design','',#6,#9);
#6 = PRODUCT_DEFINITION_FORMATION('','',#7);
#7 = PRODUCT('Open CASCADE STEP translator 7.8 1',
  'Open CASCADE STEP translator 7.8 1','',(#8));
#8 = PRODUCT_CONTEXT('',#2,'mechanical');
#9 = PRODUCT_DEFINITION_CONTEXT('part definition',#2,'design');
#10 = ADVANCED_BREP_SHAPE_REPRESENTATION('',(#11,#15),#242);
#11 = AXIS2_PLACEMENT_3D('',#12,#13,#14);
#12 = CARTESIAN_POINT('',(0.,0.,0.));
#13 = DIRECTION('',(0.,0.,1.));
#14 = DIRECTION('',(1.,0.,-0.));
#15 = MANIFOLD_SOLID_BREP('',#16);
#16 = CLOSED_SHELL('',(#17,#182,#238));
#17 = ADVANCED_FACE('',(#18),#33,.T.);
#18 = FACE_BOUND('',#19,.T.);
#19 = EDGE_LOOP('',(#20,#51,#52,#108,#132,#133));
#20 = ORIENTED_EDGE('',*,*,#21,.T.);
#21 = EDGE_CURVE('',#22,#24,#26,.T.);
#22 = VERTEX_POINT('',#23);
#23 = CARTESIAN_POINT('',(9.165151389912,-6.325486116767E-16,4.));
#24 = VERTEX_POINT('',#25);
#25 = CARTESIAN_POINT('',(6.123233995737E-16,-1.499759782662E-31,10.));
#26 = SEAM_CURVE('',#27,(#32,#44),.PCURVE_S1.);
#27 = CIRCLE('',#28,10.);
#28 = AXIS2_PLACEMENT_3D('',#29,#30,#31);
#29 = CARTESIAN_POINT('',(0.,0.,0.));
#30 = DIRECTION('',(-2.449293598295E-16,-1.,0.));
#31 = DIRECTION('',(1.,-2.449293598295E-16,0.));
#32 = PCURVE('',#33,#38);
#33 = SPHERICAL_SURFACE('',#34,10.);
#34 = AXIS2_PLACEMENT_3D('',#35,#36,#37);
#35 = CARTESIAN_POINT('',(0.,0.,0.));
#36 = DIRECTION('',(0.,0.,1.));
#37 = DIRECTION('',(1.,0.,-0.));
#38 = DEFINITIONAL_REPRESENTATION('',(#39),#43);
#39 = LINE('',#40,#41);
#40 = CARTESIAN_POINT('',(6.28318530718,-6.28318530718));
#41 = VECTOR('',#42,1.);
#42 = DIRECTION('',(0.,1.));
#43 = ( GEOMETRIC_REPRESENTATION_CONTEXT(2) 
PARAMETRIC_REPRESENTATION_CONTEXT() REPRESENTATION_CONTEXT('2D SPACE',''
  ) );
#44 = PCURVE('',#33,#45);
#45 = DEFINITIONAL_REPRESENTATION('',(#46),#50);
#46 = LINE('',#47,#48);
#47 = CARTESIAN_POINT('',(0.,-6.28318530718));
#48 = VECTOR('',#49,1.);
#49 = DIRECTION('',(0.,1.));
#50 = ( GEOMETRIC_REPRESENTATION_CONTEXT(2) 
PARAMETRIC_REPRESENTATION_CONTEXT() REPRESENTATION_CONTEXT('2D SPACE',''
  ) );
#51 = ORIENTED_EDGE('',*,*,#21,.F.);
#52 = ORIENTED_EDGE('',*,*,#53,.F.);
#53 = EDGE_CURVE('',#54,#22,#56,.T.);
#54 = VERTEX_POINT('',#55);
#55 = CARTESIAN_POINT('',(9.165151389912,-2.244814662671E-15,-4.));
#56 = SURFACE_CURVE('',#57,(#62,#96),.PCURVE_S1.);
#57 = CIRCLE('',#58,4.);
#58 = AXIS2_PLACEMENT_3D('',#59,#60,#61);
#59 = CARTESIAN_POINT('',(9.165151389912,0.,0.));
#60 = DIRECTION('',(1.,0.,0.));
#61 = DIRECTION('',(-0.,0.,1.));
#62 = PCURVE('',#33,#63);
#63 = DEFINITIONAL_REPRESENTATION('',(#64),#95);
#64 = B_SPLINE_CURVE_WITH_KNOTS('',8,(#65,#66,#67,#68,#69,#70,#71,#72,
    #73,#74,#75,#76,#77,#78,#79,#80,#81,#82,#83,#84,#85,#86,#87,#88,#89,
    #90,#91,#92,#93,#94),.UNSPECIFIED.,.F.,.F.,(9,7,7,7,9),(
    3.14159265359,3.926990816987,5.105088062083,5.694136684632,
    6.28318530718),.UNSPECIFIED.);
#65 = CARTESIAN_POINT('',(0.,-0.411516846067));
#66 = CARTESIAN_POINT('',(4.284698255295E-02,-0.411516846067));
#67 = CARTESIAN_POINT('',(8.569394027043E-02,-0.406709404919));
#68 = CARTESIAN_POINT('',(0.127672058251,-0.397094715593));
#69 = CARTESIAN_POINT('',(0.167911586997,-0.382827260894));
#70 = CARTESIAN_POINT('',(0.205655035228,-0.364220199447));
#71 = CARTESIAN_POINT('',(0.24036484262,-0.341691142283));
#72 = CARTESIAN_POINT('',(0.27167119032,-0.315706712604));
#73 = CARTESIAN_POINT('',(0.340828280564,-0.243331311622));
#74 = CARTESIAN_POINT('',(0.374124804511,-0.193233171165));
#75 = CARTESIAN_POINT('',(0.398409919024,-0.138113797371));
#76 = CARTESIAN_POINT('',(0.413530542191,-7.973980544844E-02));
#77 = CARTESIAN_POINT('',(0.419590005261,-1.976096236604E-02));
#78 = CARTESIAN_POINT('',(0.416577025117,4.02353776884E-02));
#79 = CARTESIAN_POINT('',(0.404429780871,9.860754796449E-02));
#80 = CARTESIAN_POINT('',(0.372696207638,0.181212557269));
#81 = CARTESIAN_POINT('',(0.359866290409,0.207922024194));
#82 = CARTESIAN_POINT('',(0.344800130075,0.23359616771));
#83 = CARTESIAN_POINT('',(0.32752608485,0.258023077937));
#84 = CARTESIAN_POINT('',(0.308092177841,0.280988936822));
#85 = CARTESIAN_POINT('',(0.286579573559,0.302281278219));
#86 = CARTESIAN_POINT('',(0.263115640506,0.32169568442));
#87 = CARTESIAN_POINT('',(0.212644024523,0.356396935576));
#88 = CARTESIAN_POINT('',(0.185636283091,0.371683771615));
#89 = CARTESIAN_POINT('',(0.157036275486,0.384720934035));
#90 = CARTESIAN_POINT('',(0.127074237149,0.395340896525));
#91 = CARTESIAN_POINT('',(9.603926477681E-02,0.403404350384));
#92 = CARTESIAN_POINT('',(6.427042809854E-02,0.40881266652));
#93 = CARTESIAN_POINT('',(3.213523691472E-02,0.411516846067));
#94 = CARTESIAN_POINT('',(1.068959363177E-16,0.411516846067));
#95 = ( GEOMETRIC_REPRESENTATION_CONTEXT(2) 
PARAMETRIC_REPRESENTATION_CONTEXT() REPRESENTATION_CONTEXT('2D SPACE',''
  ) );
#96 = PCURVE('',#97,#102);
#97 = CYLINDRICAL_SURFACE('',#98,4.);
#98 = AXIS2_PLACEMENT_3D('',#99,#100,#101);
#99 = CARTESIAN_POINT('',(0.,0.,0.));
#100 = DIRECTION('',(1.,0.,0.));
#101 = DIRECTION('',(-0.,0.,1.));
#102 = DEFINITIONAL_REPRESENTATION('',(#103),#107);
#103 = LINE('',#104,#105);
#104 = CARTESIAN_POINT('',(0.,9.165151389912));
#105 = VECTOR('',#106,1.);
#106 = DIRECTION('',(1.,0.));
#107 = ( GEOMETRIC_REPRESENTATION_CONTEXT(2) 
PARAMETRIC_REPRESENTATION_CONTEXT() REPRESENTATION_CONTEXT('2D SPACE',''
  ) );
#108 = ORIENTED_EDGE('',*,*,#109,.F.);
#109 = EDGE_CURVE('',#110,#54,#112,.T.);
#110 = VERTEX_POINT('',#111);
#111 = CARTESIAN_POINT('',(6.123233995737E-16,-1.499759782662E-31,-10.)
  );
#112 = SEAM_CURVE('',#113,(#118,#125),.PCURVE_S1.);
#113 = CIRCLE('',#114,10.);
#114 = AXIS2_PLACEMENT_3D('',#115,#116,#117);
#115 = CARTESIAN_POINT('',(0.,0.,0.));
#116 = DIRECTION('',(-2.449293598295E-16,-1.,0.));
#117 = DIRECTION('',(1.,-2.449293598295E-16,0.));
#118 = PCURVE('',#33,#119);
#119 = DEFINITIONAL_REPRESENTATION('',(#120),#124);
#120 = LINE('',#121,#122);
#121 = CARTESIAN_POINT('',(6.28318530718,-6.28318530718));
#122 = VECTOR('',#123,1.);
#123 = DIRECTION('',(0.,1.));
#124 = ( GEOMETRIC_REPRESENTATION_CONTEXT(2) 
PARAMETRIC_REPRESENTATION_CONTEXT() REPRESENTATION_CONTEXT('2D SPACE',''
  ) );
#125 = PCURVE('',#33,#126);
#126 = DEFINITIONAL_REPRESENTATION('',(#127),#131);
#127 = LINE('',#128,#129);
#128 = CARTESIAN_POINT('',(0.,-6.28318530718));
#129 = VECTOR('',#130,1.);
#130 = DIRECTION('',(0.,1.));
#131 = ( GEOMETRIC_REPRESENTATION_CONTEXT(2) 
PARAMETRIC_REPRESENTATION_CONTEXT() REPRESENTATION_CONTEXT('2D SPACE',''
  ) );
#132 = ORIENTED_EDGE('',*,*,#109,.T.);
#133 = ORIENTED_EDGE('',*,*,#134,.F.);
#134 = EDGE_CURVE('',#22,#54,#135,.T.);
#135 = SURFACE_CURVE('',#136,(#141,#175),.PCURVE_S1.);
#136 = CIRCLE('',#137,4.);
#137 = AXIS2_PLACEMENT_3D('',#138,#139,#140);
#138 = CARTESIAN_POINT('',(9.165151389912,0.,0.));
#139 = DIRECTION('',(1.,0.,0.));
#140 = DIRECTION('',(-0.,0.,1.));
#141 = PCURVE('',#33,#142);
#142 = DEFINITIONAL_REPRESENTATION('',(#143),#174);
#143 = B_SPLINE_CURVE_WITH_KNOTS('',8,(#144,#145,#146,#147,#148,#149,
    #150,#151,#152,#153,#154,#155,#156,#157,#158,#159,#160,#161,#162,
    #163,#164,#165,#166,#167,#168,#169,#170,#171,#172,#173),
  .UNSPECIFIED.,.F.,.F.,(9,7,7,7,9),(0.,0.785398163397,1.963495408494,
    2.552544031042,3.14159265359),.UNSPECIFIED.);
#144 = CARTESIAN_POINT('',(6.28318530718,0.411516846067));
#145 = CARTESIAN_POINT('',(6.240338324627,0.411516846067));
#146 = CARTESIAN_POINT('',(6.197491366909,0.406709404919));
#147 = CARTESIAN_POINT('',(6.155513248929,0.397094715593));
#148 = CARTESIAN_POINT('',(6.115273720181,0.382827260894));
#149 = CARTESIAN_POINT('',(6.077530271953,0.364220199446));
#150 = CARTESIAN_POINT('',(6.04282046456,0.341691142284));
#151 = CARTESIAN_POINT('',(6.01151411686,0.315706712604));
#152 = CARTESIAN_POINT('',(5.942357026615,0.243331311622));
#153 = CARTESIAN_POINT('',(5.909060502669,0.193233171165));
#154 = CARTESIAN_POINT('',(5.884775388153,0.138113797371));
#155 = CARTESIAN_POINT('',(5.86965476499,7.973980544941E-02));
#156 = CARTESIAN_POINT('',(5.863595301915,1.976096236567E-02));
#157 = CARTESIAN_POINT('',(5.866608282063,-4.023537768825E-02));
#158 = CARTESIAN_POINT('',(5.878755526308,-9.860754796449E-02));
#159 = CARTESIAN_POINT('',(5.910489099542,-0.181212557269));
#160 = CARTESIAN_POINT('',(5.923319016771,-0.207922024194));
#161 = CARTESIAN_POINT('',(5.938385177105,-0.23359616771));
#162 = CARTESIAN_POINT('',(5.95565922233,-0.258023077937));
#163 = CARTESIAN_POINT('',(5.975093129338,-0.280988936822));
#164 = CARTESIAN_POINT('',(5.996605733621,-0.302281278219));
#165 = CARTESIAN_POINT('',(6.020069666674,-0.32169568442));
#166 = CARTESIAN_POINT('',(6.070541282656,-0.356396935576));
#167 = CARTESIAN_POINT('',(6.097549024089,-0.371683771615));
#168 = CARTESIAN_POINT('',(6.126149031694,-0.384720934035));
#169 = CARTESIAN_POINT('',(6.156111070031,-0.395340896525));
#170 = CARTESIAN_POINT('',(6.187146042403,-0.403404350384));
#171 = CARTESIAN_POINT('',(6.218914879081,-0.40881266652));
#172 = CARTESIAN_POINT('',(6.251050070265,-0.411516846067));
#173 = CARTESIAN_POINT('',(6.28318530718,-0.411516846067));
#174 = ( GEOMETRIC_REPRESENTATION_CONTEXT(2) 
PARAMETRIC_REPRESENTATION_CONTEXT() REPRESENTATION_CONTEXT('2D SPACE',''
  ) );
#175 = PCURVE('',#97,#176);
#176 = DEFINITIONAL_REPRESENTATION('',(#177),#181);
#177 = LINE('',#178,#179);
#178 = CARTESIAN_POINT('',(0.,9.165151389912));
#179 = VECTOR('',#180,1.);
#180 = DIRECTION('',(1.,0.));
#181 = ( GEOMETRIC_REPRESENTATION_CONTEXT(2) 
PARAMETRIC_REPRESENTATION_CONTEXT() REPRESENTATION_CONTEXT('2D SPACE',''
  ) );
#182 = ADVANCED_FACE('',(#183),#97,.T.);
#183 = FACE_BOUND('',#184,.T.);
#184 = EDGE_LOOP('',(#185,#208,#235,#236,#237));
#185 = ORIENTED_EDGE('',*,*,#186,.T.);
#186 = EDGE_CURVE('',#22,#187,#189,.T.);
#187 = VERTEX_POINT('',#188);
#188 = CARTESIAN_POINT('',(25.,9.797174393179E-16,4.));
#189 = SEAM_CURVE('',#190,(#194,#201),.PCURVE_S1.);
#190 = LINE('',#191,#192);
#191 = CARTESIAN_POINT('',(0.,9.797174393179E-16,4.));
#192 = VECTOR('',#193,1.);
#193 = DIRECTION('',(1.,0.,0.));
#194 = PCURVE('',#97,#195);
#195 = DEFINITIONAL_REPRESENTATION('',(#196),#200);
#196 = LINE('',#197,#198);
#197 = CARTESIAN_POINT('',(6.28318530718,-0.));
#198 = VECTOR('',#199,1.);
#199 = DIRECTION('',(0.,1.));
#200 = ( GEOMETRIC_REPRESENTATION_CONTEXT(2) 
PARAMETRIC_REPRESENTATION_CONTEXT() REPRESENTATION_CONTEXT('2D SPACE',''
  ) );
#201 = PCURVE('',#97,#202);
#202 = DEFINITIONAL_REPRESENTATION('',(#203),#207);
#203 = LINE('',#204,#205);
#204 = CARTESIAN_POINT('',(0.,-0.));
#205 = VECTOR('',#206,1.);
#206 = DIRECTION('',(0.,1.));
#207 = ( GEOMETRIC_REPRESENTATION_CONTEXT(2) 
PARAMETRIC_REPRESENTATION_CONTEXT() REPRESENTATION_CONTEXT('2D SPACE',''
  ) );
#208 = ORIENTED_EDGE('',*,*,#209,.F.);
#209 = EDGE_CURVE('',#187,#187,#210,.T.);
#210 = SURFACE_CURVE('',#211,(#216,#223),.PCURVE_S1.);
#211 = CIRCLE('',#212,4.);
#212 = AXIS2_PLACEMENT_3D('',#213,#214,#215);
#213 = CARTESIAN_POINT('',(25.,0.,0.));
#214 = DIRECTION('',(1.,0.,0.));
#215 = DIRECTION('',(-0.,0.,1.));
#216 = PCURVE('',#97,#217);
#217 = DEFINITIONAL_REPRESENTATION('',(#218),#222);
#218 = LINE('',#219,#220);
#219 = CARTESIAN_POINT('',(0.,25.));
#220 = VECTOR('',#221,1.);
#221 = DIRECTION('',(1.,0.));
#222 = ( GEOMETRIC_REPRESENTATION_CONTEXT(2) 
PARAMETRIC_REPRESENTATION_CONTEXT() REPRESENTATION_CONTEXT('2D SPACE',''
  ) );
#223 = PCURVE('',#224,#229);
#224 = PLANE('',#225);
#225 = AXIS2_PLACEMENT_3D('',#226,#227,#228);
#226 = CARTESIAN_POINT('',(25.,0.,0.));
#227 = DIRECTION('',(1.,0.,0.));
#228 = DIRECTION('',(-0.,0.,1.));
#229 = DEFINITIONAL_REPRESENTATION('',(#230),#234);
#230 = CIRCLE('',#231,4.);
#231 = AXIS2_PLACEMENT_2D('',#232,#233);
#232 = CARTESIAN_POINT('',(0.,0.));
#233 = DIRECTION('',(1.,0.));
#234 = ( GEOMETRIC_REPRESENTATION_CONTEXT(2) 
PARAMETRIC_REPRESENTATION_CONTEXT() REPRESENTATION_CONTEXT('2D SPACE',''
  ) );
#235 = ORIENTED_EDGE('',*,*,#186,.F.);
#236 = ORIENTED_EDGE('',*,*,#134,.T.);
#237 = ORIENTED_EDGE('',*,*,#53,.T.);
#238 = ADVANCED_FACE('',(#239),#224,.T.);
#239 = FACE_BOUND('',#240,.T.);
#240 = EDGE_LOOP('',(#241));
#241 = ORIENTED_EDGE('',*,*,#209,.T.);
#242 = ( GEOMETRIC_REPRESENTATION_CONTEXT(3) 
GLOBAL_UNCERTAINTY_ASSIGNED_CONTEXT((#246)) GLOBAL_UNIT_ASSIGNED_CONTEXT
((#243,#244,#245)) REPRESENTATION_CONTEXT('Context #1',
  '3D Context with UNIT and UNCERTAINTY') );
#243 = ( LENGTH_UNIT() NAMED_UNIT(*) SI_UNIT(.MILLI.,.METRE.) );
#244 = ( NAMED_UNIT(*) PLANE_ANGLE_UNIT() SI_UNIT($,.RADIAN.) );
#245 = ( NAMED_UNIT(*) SI_UNIT($,.STERADIAN.) SOLID_ANGLE_UNIT() );
#246 = UNCERTAINTY_MEASURE_WITH_UNIT(LENGTH_MEASURE(1.E-07),#243,
  'distance_accuracy_value','confusion accuracy');
#247 = PRODUCT_RELATED_PRODUCT_CATEGORY('part',$,(#7));
ENDSEC;
END-ISO-10303-21;
